<svg height="959.72961pt" preserveAspectRatio="xMidYMid" viewBox="0 0 1119.75 959.72961" width="1119.75pt" xmlns="http://www.w3.org/2000/svg"><g transform="matrix(.1 0 0 -.1 -40.125 1079.8774)"><path d="m2627 10789c-652-75-1209-554-1373-1181-48-186-47-150-53-1278l-6-1065-33-95c-90-260-271-521-553-800-80-80-146-153-159-180-65-127-65-253 0-380 13-27 78-100 159-180 75-74 168-173 207-220 155-185 284-402 346-580l33-95 6-1065c6-1128 5-1092 53-1278 110-420 418-803 808-1007 188-98 373-154 584-176 218-22 322 2 428 102 183 171 170 448-27 606-65 51-136 73-270 84-138 10-215 28-315 75-213 98-363 272-434 506l-22 73-6 1080c-6 1051-7 1083-28 1178-44 202-140 431-263 629-79 126-214 305-292 386l-70 72 70 73c78 80 213 259 292 386 123 197 219 426 263 628 21 95 22 127 28 1178l6 1080 22 73c72 234 221 408 435 507 99 46 182 65 317 75 152 11 212 33 294 111 231 215 136 594-169 673-62 17-165 19-278 5z"/><path d="m9090 10784c-321-86-397-505-128-708 62-46 132-67 263-77 66-4 153-18 193-29 267-75 470-277 554-552l22-73 6-1080c6-1050 7-1083 28-1178 44-204 139-430 263-629 79-126 214-305 292-385l70-73-70-72c-138-143-323-414-418-613-54-115-110-278-137-402-21-95-22-128-28-1178l-6-1080-22-73c-68-224-210-395-409-496-100-50-198-75-339-85-205-16-311-77-385-223-121-239 27-525 295-571 86-14 292 3 433 38 568 137 1035 592 1179 1147 48 188 47 150 53 1278l6 1065 33 95c90 259 272 523 553 800 79 79 146 154 159 180 65 126 65 254 0 380-13 27-79 100-160 180-279 277-462 540-552 800l-33 95-6 1065c-6 1128-5 1092-53 1278-115 439-444 834-856 1031-177 84-331 128-525 151-121 13-209 12-275-6z"/><path d="m5111 7973c-24-8-63-34-85-57-36-36-58-83-185-396-79-195-156-380-171-410-38-75-124-154-213-195-39-18-200-85-357-148-372-151-370-150-408-182-54-46-77-99-77-185 0-64 4-82 28-122 15-26 42-58 60-72 17-13 194-90 391-170 198-81 377-156 399-168 22-11 65-43 95-72 67-62 87-104 268-551 113-280 134-325 170-361 103-104 286-93 367 22 16 23 96 204 177 401 80 197 154 374 164 393 25 48 113 137 161 163 22 11 201 86 398 167s377 160 401 177c50 36 87 103 94 173 10 108-59 213-168 257-270 109-683 279-714 295-57 29-144 116-172 171-14 26-90 208-170 405-80 196-157 372-170 389-59 78-186 112-283 76z"/><path d="m7512 5574c-65-32-80-54-126-178-44-121-79-176-154-248-71-68-122-97-242-140-70-25-104-42-130-70-72-73-78-176-16-261 25-34 65-56 177-97 103-37 162-75 231-148 67-70 96-121 138-237 41-114 58-137 122-169s108-33 174-2c63 29 82 56 124 171 42 116 71 167 138 237 69 73 128 111 231 148 155 57 189 85 213 174 10 36 10 56 0 92-24 90-53 113-235 184-95 36-146 70-213 141-63 67-93 120-134 234-42 115-61 142-124 171-66 31-110 30-174-2z"/></g></svg>