<svg height="999.99628pt" preserveAspectRatio="xMidYMid" viewBox="0 0 1099.3099 999.99628" width="1099.3099pt" xmlns="http://www.w3.org/2000/svg"><g transform="matrix(.1 0 0 -.1 -50.092758 1099.9963)"><path d="m1605 10993c-491-63-905-408-1050-873-93-299-65-638 76-921 74-150 235-342 369-441 169-126 368-209 569-238 132-20 346-8 456 24 247 73 487 252 650 485 45 64 53 71 77 66 49-8 280-104 433-180 137-68 353-198 369-223 3-5-54-57-127-115-582-461-1051-1051-1393-1752-122-252-176-382-259-626-126-371-206-733-252-1147-26-225-26-771 0-927 73-451 228-849 480-1227 140-211 249-341 456-548 350-350 669-575 1146-810 732-361 1524-540 2395-540 1075 0 2085 290 2905 835 863 572 1412 1364 1555 2239 57 347 46 797-30 1276-123 770-437 1544-882 2180-302 430-682 825-1083 1123-66 49-121 95-123 102-4 17 155 162 259 237 114 82 291 169 455 223 75 26 137 45 139 43 1-2 24-41 50-88 85-151 146-233 259-346 242-241 480-336 805-321 188 9 318 44 496 132 245 122 443 321 563 567 101 206 127 326 126 563-1 157-3 179-32 288-95 361-332 652-667 818-286 141-610 168-895 73-182-61-308-143-456-296-144-150-241-313-310-524l-36-110-132-38c-259-73-506-187-724-333-196-131-356-275-530-476l-32-38-143 59c-357 149-754 251-1142 294-158 17-642 17-800 0-417-46-813-150-1187-312-90-38-167-70-171-70s-45 33-90 73c-284 251-670 476-1082 627-49 19-92 35-94 36-2 2-10 47-18 101-38 258-170 520-358 708s-427 309-679 344c-73 10-246 13-311 4zm272-757c136-36 260-132 317-244 173-342-64-733-444-733-283 0-500 215-500 496 0 224 142 415 353 476 75 21 203 24 274 5zm8498-1c370-97 499-554 235-829-99-104-222-156-365-156-247 0-455 175-497 418-42 249 119 501 365 567 70 18 189 18 262 0zm-4059-1500c1222-129 2334-961 2959-2218 273-547 424-1118 466-1753 31-472-40-841-236-1222-189-370-519-737-915-1018-511-362-1166-618-1840-719-333-50-766-68-1085-46-1275 90-2389 641-2992 1481-225 314-367 668-413 1035-15 111-14 447 0 609 51 579 203 1117 461 1636 226 452 482 810 825 1154 432 432 922 740 1468 920 204 68 479 125 691 145 152 14 456 12 611-4z"/><path d="m5810 7999c-373-38-756-193-1045-424-663-530-925-1399-665-2198 222-679 800-1196 1500-1343 558-116 1145 18 1605 367 496 376 795 978 795 1599 0 632-305 1236-815 1615-392 291-896 432-1375 384zm435-764c237-49 437-153 611-318 205-194 332-434 379-716 21-123 16-343-9-459-66-304-235-570-479-753-102-77-295-171-415-203-583-155-1181 114-1449 649-94 188-128 337-128 565 0 178 14 268 62 410 153 447 550 773 1023 840 91 13 310 5 405-15z"/><path d="m5887 6484c-241-58-410-295-382-537 47-417 550-594 846-298 96 97 149 220 149 351 0 233-177 448-404 489-77 14-137 13-209-5z"/><path d="m4112 3611c-164-61-263-214-249-387 7-94 47-173 127-248 126-118 369-264 600-359 676-278 1714-323 2491-107 368 102 724 283 918 465 95 90 125 157 126 280 0 80-3 97-31 155-39 82-101 144-184 184-58 28-75 31-155 31-108 0-158-20-275-109-241-182-657-320-1145-378-133-16-543-15-680 1-483 56-879 186-1143 376-125 89-168 108-267 112-61 3-92-1-133-16z"/></g></svg>