<svg height="1051.6213pt" preserveAspectRatio="xMidYMid" viewBox="0 0 997.79333 1051.6213" width="997.79333pt" xmlns="http://www.w3.org/2000/svg"><path d="m4515 11251c-312-37-580-156-767-342-238-237-391-632-448-1156-7-62-17-113-23-113-5 0-78-27-161-60-392-155-801-392-1134-657-144-114-403-379-508-518-237-316-373-622-440-990-22-121-30-467-15-622 49-485 197-964 425-1368 42-75 76-141 76-149 0-7-11-46-25-87-101-294-141-615-116-935 48-622 265-1136 651-1538 308-322 739-559 1201-661l75-16 28-137c67-333 193-600 365-773 204-203 502-326 906-370 173-19 559-17 680 4 269 47 519 159 672 300l42 39 58-50c144-124 372-231 588-276 251-52 665-44 981 19 281 57 511 171 675 334 172 173 298 440 365 772l27 136 116 28c884 214 1515 834 1735 1703 86 337 107 731 57 1037-19 114-71 319-105 414-9 24-16 50-16 57 0 8 30 67 67 132 228 401 374 858 428 1337 19 169 19 453 0 597-65 498-294 937-700 1344-170 170-278 261-476 400-296 208-707 425-1005 530l-82 28-12 106c-57 509-196 885-419 1132-105 116-293 234-473 297-247 86-588 103-933 45-304-51-622-205-822-399l-55-53-35 39c-49 54-175 148-291 216-183 107-392 178-621 209-136 18-435 26-536 15zm465-761c95-16 244-70 328-119 87-51 198-152 242-222 18-27 41-76 51-110 18-57 19-103 19-800v-739h-374-374l-26 35c-37 48-134 120-209 156-422 197-913-136-884-601 24-382 379-654 751-575 126 27 277 115 342 200l26 35h374 374v-1875-1875h-370-369l-69 68c-115 113-280 182-437 182-268 0-515-184-598-445-31-99-31-261 0-360 62-196 222-356 418-418 91-29 260-30 350-3 114 34 244 117 301 191l26 35h374 374v-670c0-458-4-686-11-722-36-168-165-284-376-339-201-51-625-25-852 54-195 68-309 207-356 432-9 44-21 160-26 258-6 105-16 195-25 220-53 151-165 237-335 258-219 27-432 87-614 173-595 283-873 728-902 1446-5 139 7 332 24 376 4 11 99 14 536 16l532 3 57 27c80 37 152 107 191 187l32 66 3 357 3 358h184 184l64-62c76-75 167-131 262-161 99-31 261-31 360 0 146 46 282 154 358 283 185 317 57 725-276 881-236 110-514 60-704-128l-62-62-418-3-418-3-61-28c-77-36-154-113-191-192l-28-60-3-357-3-358h-242-242l-71 108c-307 463-495 1218-419 1687 92 574 578 1093 1388 1485 187 90 341 154 507 209 125 41 191 80 239 141 68 86 79 130 90 372 18 372 64 581 165 746 37 62 118 144 176 179 47 28 153 62 231 73 75 11 316 4 409-10zm2530-6c109-28 169-62 245-138 157-159 224-388 245-844 12-240 23-286 91-372 49-63 110-97 263-150 66-24 182-68 256-100l135-57 3-536 2-537h-310-310l-63 63c-74 73-147 118-249 155-101 36-268 38-373 5-197-63-355-221-418-418-31-99-31-261 0-360 115-363 520-545 860-386 75 35 172 108 209 156l26 34 546 3 547 3 58 27c80 38 158 115 193 191l29 62 3 543c2 298 5 542 9 542 14 0 182-152 280-254 240-250 392-535 438-822 76-469-116-1236-422-1691-89-132-107-178-107-278 0-72 6-94 52-219 106-282 138-461 129-726-21-631-226-1043-661-1331-241-159-529-265-824-304-131-17-197-43-261-101-93-84-118-156-130-382-16-297-57-434-163-548-93-99-193-147-388-184-136-27-367-44-495-37-314 17-519 149-564 365-8 37-11 338-11 972v920l1043 2 1042 3 66 32c84 42 143 101 183 183l31 65 3 418 3 419 54 52c316 309 228 829-171 1018-231 109-514 57-698-128-221-220-245-564-56-815 27-37 65-78 85-93l35-27v-190-189h-810-810v2739c0 2660 1 2741 19 2800 60 193 276 365 548 435 145 38 434 43 563 10z" transform="matrix(.1 0 0 -.1 -101.13166 1125.7995)"/></svg>