<svg height="861.93054pt" preserveAspectRatio="xMidYMid" viewBox="0 0 767.97223 861.93054" width="767.97223pt" xmlns="http://www.w3.org/2000/svg"><path d="m7893 10109c-341-40-683-183-948-399-106-87-4055-4041-4139-4144-184-229-328-487-419-756-310-908-83-1900 588-2575 910-916 2378-983 3375-152 19 16 608 601 1308 1300 1445 1444 1337 1323 1337 1492 0 77-4 99-28 150-37 79-114 156-191 192-52 23-74 28-151 28-171 0-49 109-1475-1316-1275-1275-1329-1326-1507-1433-163-97-366-175-573-217-100-21-143-24-325-24-179 0-227 4-324 23-625 126-1120 553-1326 1142-19 57-48 160-62 229-24 114-27 147-27 341-1 186 2 231 22 328 41 202 120 412 218 575 111 185 127 201 2158 2233 1157 1157 2010 2002 2051 2032 201 149 435 219 690 209 478-19 876-339 1003-805 24-88 26-113 26-277-1-200-11-257-78-421-80-195 27-83-2120-2232-1899-1901-1974-1974-2045-2010-65-32-84-37-165-40-74-3-103 0-155 18-243 82-354 345-244 580 22 47 211 241 1363 1395 1514 1517 1385 1373 1385 1550 0 93-2 105-33 167-90 184-308 257-501 167-68-32-2736-2702-2805-2806-319-488-249-1121 168-1511 93-86 177-144 296-201 376-182 809-149 1166 89 64 43 447 420 2038 2009 1077 1076 1992 1994 2033 2041 343 388 506 925 438 1444-55 417-239 783-542 1077-160 155-284 242-485 339-307 148-661 208-995 169z" transform="matrix(.1 0 0 -.1 -225.04574 1012.0608)"/></svg>