<svg height="879.25049pt" preserveAspectRatio="xMidYMid" viewBox="0 0 1039.3922 879.25049" width="1039.3922pt" xmlns="http://www.w3.org/2000/svg"><g transform="matrix(.1 0 0 -.1 -80.107732 1039.7505)"><path d="m2679 10386c-115-44-210-132-251-233l-23-58-3-4070c-2-3640 0-4075 13-4129 30-115 107-209 215-260 60-29 73-31 170-31 95 0 111 3 168 29 81 37 171 131 204 213l23 58v4095 4095l-23 58c-34 82-123 176-204 213-53 24-78 29-158 31-61 2-108-2-131-11z"/><path d="m9079 10386c-115-44-210-132-251-233l-23-58-3-4070c-2-3640 0-4075 13-4129 30-115 107-209 215-260 60-29 73-31 170-31 95 0 111 3 168 29 81 37 171 131 204 213l23 58v4095 4095l-23 58c-34 82-123 176-204 213-53 24-78 29-158 31-61 2-108-2-131-11z"/><path d="m1079 8786c-115-44-210-132-251-233l-23-58-3-2469c-2-2695-6-2533 53-2631 39-65 106-126 175-159 60-29 73-31 170-31 95 0 111 3 168 29 81 37 171 131 204 213l23 58v2495 2495l-23 58c-34 82-123 176-204 213-53 24-78 29-158 31-61 2-108-2-131-11z"/><path d="m4279 8386c-115-44-210-132-251-233l-23-58-3-2069c-2-2257-5-2133 53-2231 39-65 106-126 175-159 60-29 73-31 170-31 95 0 111 3 168 29 81 37 171 131 204 213l23 58v2095 2095l-23 58c-34 82-123 176-204 213-53 24-78 29-158 31-61 2-108-2-131-11z"/><path d="m7479 8386c-115-44-210-132-251-233l-23-58-3-2069c-2-2257-5-2133 53-2231 39-65 106-126 175-159 60-29 73-31 170-31 95 0 111 3 168 29 81 37 171 131 204 213l23 58v2095 2095l-23 58c-34 82-123 176-204 213-53 24-78 29-158 31-61 2-108-2-131-11z"/><path d="m10679 7586c-115-44-210-132-251-233l-23-58-3-1269c-3-1382-4-1335 53-1431 39-65 106-126 175-159 60-29 73-31 170-31 95 0 111 3 168 29 81 37 171 131 204 213l23 58v1295 1295l-23 58c-34 82-123 176-204 213-53 24-78 29-158 31-61 2-108-2-131-11z"/><path d="m5879 7186c-115-44-210-132-251-233l-23-58-3-869c-2-761-1-876 13-929 30-116 107-210 215-261 60-29 73-31 170-31 95 0 111 3 168 29 81 37 171 131 204 213l23 58v895 895l-23 58c-34 82-123 176-204 213-53 24-78 29-158 31-61 2-108-2-131-11z"/></g></svg>