<svg height="900.78705pt" preserveAspectRatio="xMidYMid" viewBox="0 0 999.52502 900.78705" width="999.52502pt" xmlns="http://www.w3.org/2000/svg"><g transform="matrix(.1 0 0 -.1 -99.975 1050.4888)"><path d="m3923 10499c-181-31-323-148-395-326l-23-58-3-4085c-2-2911 1-4100 9-4138 13-66 67-175 114-229 49-57 144-119 224-144 181-58 405 2 524 142 49 57 104 169 117 238 7 35 10 1449 10 4105 0 4461 5 4113-61 4237-43 79-88 130-160 178-101 68-244 100-356 80z"/><path d="m1420 10493c-205-37-373-200-409-397-15-84-15-8108 0-8192 31-170 155-312 329-375 64-24 71-24 415-24h350l68 27c145 58 237 150 295 295l27 68v4105 4105l-27 68c-59 147-158 245-304 299-56 21-77 22-389 24-181 1-341 0-355-3z"/><path d="m5645 10479c-51-25-92-64-118-114l-22-40v-4325-4325l22-40c45-84 129-134 224-135 105 0 212 80 239 179 7 26 9 1408 8 4342l-3 4304-22 41c-28 53-91 107-142 122-58 18-140 14-186-9z"/><path d="m7420 10493c-203-35-373-200-409-397-15-84-15-8108 0-8192 31-170 155-312 329-375l65-24h845 845l65 24c175 64 301 209 330 381 8 47 10 1208 8 4130l-3 4065-22 57c-56 148-156 248-308 309l-60 24-830 1c-456 1-841 0-855-3z"/><path d="m10661 10486c-48-17-108-71-134-119l-22-42v-4325-4325l22-40c96-179 350-179 446 0l22 40v4325 4325l-22 40c-59 110-196 163-312 121z"/></g></svg>