<svg height="833.56238pt" preserveAspectRatio="xMidYMid" viewBox="0 0 523.87524 833.56238" width="523.87524pt" xmlns="http://www.w3.org/2000/svg"><path d="m4065 10096c-342-89-600-358-670-699-13-63-15-529-13-3697l3-3625 29-60c78-159 263-255 433-225 116 20 166 55 392 275 342 332 858 832 1186 1150 170 165 368 356 438 425 71 69 132 125 137 125s127-115 272-255c1861-1806 1694-1648 1766-1684 214-108 484 3 563 231 19 55 19 119 19 3664 0 3967 5 3659-61 3830-61 159-203 333-346 425-85 55-176 93-282 120l-94 24h-1841l-1841-1zm3724-741c44-26 70-62 81-111 6-23 10-1285 10-3069 0-2385-3-3035-13-3054-18-36-59-44-95-17-15 11-387 370-826 796-533 517-814 783-844 799-62 32-169 28-223-9-33-23-1022-977-1457-1405-101-99-192-185-204-191-29-16-70-3-85 27-10 19-12 664-10 3079 2 3035 2 3055 22 3089 25 42 62 71 106 81 19 4 815 7 1769 7 1716-2 1735-2 1769-22z" transform="matrix(.1 0 0 -.1 -338.1334 1012)"/></svg>