<svg height="949.34485pt" preserveAspectRatio="xMidYMid" viewBox="0 0 1199.6826 949.34485" width="1199.6826pt" xmlns="http://www.w3.org/2000/svg"><g transform="matrix(.1 0 0 -.1 -.151186 1049.8448)"><path d="m3775 10487c-74-25-122-56-173-111-78-86-113-201-94-307 6-31 116-307 246-615 129-307 236-565 238-572 2-9-34-24-112-47-590-173-1147-489-1590-903-291-272-526-561-724-892-78-129-222-421-275-555-43-109-130-370-151-453-12-48-7-45-112-61-174-27-379-117-538-237-464-350-620-985-370-1512 69-145 130-231 245-348 113-114 212-185 359-255 152-73 353-119 516-119h55l59-135c177-408 473-840 806-1175 589-594 1333-984 2150-1129 321-57 299-56 1690-56 1407 0 1377-1 1720 61 1076 196 2034 837 2636 1764 102 157 224 383 290 535l59 135h55c297 0 621 130 842 338 160 151 297 377 353 582 191 710-269 1429-993 1554-46 8-85 16-88 18-2 3-22 67-44 142-306 1047-1057 1943-2040 2436-75 38-186 90-246 115-116 50-434 159-496 170-21 4-38 10-38 13s75 186 166 406c281 676 313 756 320 814 11 91-23 204-83 276-154 184-450 178-587-11-20-28-139-301-305-702l-272-656h-1244-1245l-34 80c-19 44-143 338-276 654s-254 593-270 617c-36 52-93 98-157 126-59 27-189 34-248 15zm3490-2247c535-46 1060-225 1495-508 540-353 982-874 1225-1447 524-1234 257-2631-685-3575-521-523-1121-820-1895-937-97-14-254-17-1305-20-1270-5-1377-2-1636 42-789 134-1484 541-1995 1170-886 1090-959 2650-180 3825 220 333 552 670 876 891 460 315 1006 510 1555 558 142 12 2401 13 2545 1z"/><path d="m4845 6994c-167-20-226-30-329-55-618-151-1139-609-1377-1209-95-240-132-448-132-730 0-223 11-319 62-515 181-692 746-1249 1446-1424 233-58 185-56 1485-56 1319 0 1261-2 1516 64 550 145 1030 540 1279 1056 92 190 144 352 181 570 24 139 24 471 0 610-75 441-257 796-565 1106-299 299-636 475-1076 561-108 21-128 22-1285 23-646 2-1188 1-1205-1zm-243-1505c226-47 398-259 398-489 0-270-230-500-500-500s-500 230-500 500c0 225 164 433 383 486 66 16 152 17 219 3zm3000 0c226-47 398-259 398-489 0-270-230-500-500-500s-500 230-500 500c0 225 164 433 383 486 66 16 152 17 219 3z"/></g></svg>