<svg height="861.85565pt" preserveAspectRatio="xMidYMid" viewBox="0 0 787.1709 861.85565" width="787.1709pt" xmlns="http://www.w3.org/2000/svg"><g transform="matrix(.1 0 0 -.1 -206.48188 1030.9278)"><path d="m4750 10295c-423-67-814-346-1019-726-23-42-59-123-80-179l-39-103-93-32c-455-155-831-445-1098-844-183-275-297-584-343-931-17-136-14-431 6-564 32-202 113-474 181-606 17-32 17-33-33-139-316-665-176-1440 352-1949l76-74-11-41c-6-23-13-121-16-217-4-136-2-196 11-270 68-393 283-726 611-947 113-76 288-155 402-182 43-10 53-18 64-43 19-47 132-211 191-280 189-218 465-380 767-449 138-32 366-36 516-11 280 49 531 172 722 355l83 79 85-80c195-185 442-306 720-354 222-38 502-12 705 65 315 119 598 360 749 639 29 54 42 69 66 74 68 15 185 59 270 102 407 203 685 581 761 1033 13 80 15 137 11 273-3 94-10 189-16 211l-10 41 107 109c504 517 630 1260 322 1912l-50 107 39 90c300 701 215 1500-225 2113-263 365-623 631-1054 779l-95 32-28 79c-141 400-444 708-847 860-203 77-483 103-705 65-280-49-524-168-720-354l-85-80-83 79c-249 238-599 375-955 372-70-1-165-7-212-14zm428-768c107-37 177-82 259-166 81-81 139-184 170-301 17-61 18-236 18-3060s-1-2999-18-3060c-31-117-89-220-170-301-82-83-151-128-259-167-65-24-87-27-208-27-115 0-145 3-201 23-203 70-359 237-444 474-19 53-40 126-46 162l-12 66h-86c-160 0-326 34-448 92-227 107-353 307-356 566-1 140 21 213 124 423 49 99 89 184 89 189s-48 34-107 65c-256 135-449 298-545 460-119 202-156 463-98 691 23 90 83 219 138 301 113 167 432 262 704 209 101-20 152-40 208-81 128-94 272-109 404-43 65 33 141 112 172 181 25 53 29 75 29 152 0 82-3 97-33 157-120 245-562 416-1021 395-156-7-323-39-451-87-47-17-92-33-101-36-12-4-20 13-38 85-84 342-28 746 144 1039 199 340 561 591 987 686 65 15 161 29 213 33l95 6v91c0 170 35 336 95 456 90 178 225 291 409 341 105 28 284 22 384-14zm2024 14c320-82 508-377 508-798v-93h49c74 0 194-18 306-46 441-111 798-387 983-759 127-255 171-595 116-887-32-168-106-346-222-533-74-120-113-167-190-230-124-103-267-160-476-190-137-19-179-33-240-74-170-117-208-368-82-534 45-59 129-114 207-134 60-15 79-16 182-4 287 31 548 121 757 260l75 50 9-57c14-87-6-261-44-374-45-135-108-236-220-348-104-105-246-205-411-290-54-28-99-55-99-61 0-5 36-81 80-168 43-87 88-187 100-221 84-248 7-547-179-695-106-85-264-150-408-170-92-12-225 40-278 109-18 23-30 59-40 115-8 44-23 101-34 126-30 67-104 141-180 178-59 28-75 32-156 32s-97-3-157-32c-81-38-146-102-185-181-26-53-28-65-27-177 1-103 5-132 29-205 34-105 84-206 140-285 54-75 172-190 248-240 31-21 57-42 57-47 0-16-114-81-185-106-93-33-250-41-350-18-186 44-354 174-434 338-84 171-76-158-76 3208 0 2839 1 2998 18 3060 67 246 249 427 486 485 85 20 234 18 323-4z"/><path d="m4614 8430c-126-27-232-119-279-243-11-28-31-59-50-72-34-27-130-55-186-55-52 0-143-34-198-74-53-39-89-86-123-161-31-70-31-197 0-276 43-108 143-194 262-225 122-31 360 11 539 97 222 105 385 286 456 504 36 109 32 199-10 293-68 152-251 246-411 212z"/><path d="m4037 5240c-105-27-206-113-255-218-23-48-27-70-27-147 0-76 4-99 27-147 49-105 132-176 253-218 87-30 141-65 184-121 52-65 79-139 92-256 15-133 39-192 108-262 65-68 113-94 199-112 117-24 241 14 331 102 102 101 133 237 97 434-71 386-274 682-579 845-159 85-331 125-430 100z"/><path d="m7193 8042c-102-36-177-105-221-202-66-143-22-443 101-686 139-274 356-463 644-560 211-71 405 1 495 184 30 61 33 75 33 157-1 72-5 100-23 140-54 119-120 177-253 225-180 65-257 170-280 384-14 122-40 185-105 255-72 78-149 113-259 118-60 3-93-1-132-15z"/></g></svg>