<svg height="899.48022pt" preserveAspectRatio="xMidYMid" viewBox="0 0 899.54999 899.48022" width="899.54999pt" xmlns="http://www.w3.org/2000/svg"><g transform="matrix(.1 0 0 -.1 -149.95 1049.6194)"><path d="m2947 10490c-473-56-902-317-1167-710-148-220-239-468-270-735-14-124-14-5966 0-6090 15-130 37-226 77-345 205-605 741-1032 1380-1100 66-7 1069-10 3103-8l3005 3 117 27c158 35 232 60 374 128 474 225 799 645 906 1171l23 114v3055 3055l-23 114c-107 526-432 946-907 1172-141 67-215 92-373 127l-117 27-3030 1c-1666 1-3061-2-3098-6zm6158-768c304-88 531-316 616-617 20-71 23-109 27-342l4-263h-3752-3752l4 263c5 284 13 335 73 472 82 186 254 357 440 440 54 24 169 57 235 68 14 2 1375 4 3025 3l3000-1zm643-4359-3-2388-23-79c-89-305-315-531-617-618l-80-23-2985-3c-2119-2-3004 0-3050 8-191 32-355 115-486 247-107 107-181 235-227 393l-22 75-3 2388-2 2387h3750 3750z"/><path d="m3741 6735c-279-61-491-323-491-610 0-265 185-516 440-596 411-129 834 202 807 631-25 383-382 656-756 575z"/><path d="m5855 6731c-117-29-200-76-291-166-66-65-89-96-122-165-48-102-62-163-62-278 0-158 55-299 160-414 77-84 152-134 260-172 74-26 99-30 195-30 186-1 314 52 446 184 121 122 179 261 179 432 0 115-14 176-62 278-33 69-56 100-122 165-93 91-168 134-290 165-96 24-196 25-291 1z"/><path d="m7991 6735c-232-51-426-247-476-481-85-399 239-776 645-751 438 28 717 490 532 881-127 269-415 413-701 351z"/><path d="m3741 4485c-351-77-569-452-462-795 95-302 414-491 721-426 334 70 556 406 486 736-71 338-408 558-745 485z"/><path d="m5852 4480c-124-33-198-76-288-165-126-125-184-263-184-437 0-115 14-176 62-278 123-257 428-400 701-330 126 32 202 75 293 166 66 64 89 97 122 165 22 46 45 108 51 137 16 76 14 218-4 287-37 147-141 291-267 373-140 91-334 124-486 82z"/></g></svg>