<svg height="1098.8628pt" preserveAspectRatio="xMidYMid" viewBox="0 0 1098.8379 1098.8628" width="1098.8379pt" xmlns="http://www.w3.org/2000/svg"><path d="m8720 11489c-420-46-784-190-1112-440-120-93-1567-1537-1661-1659-249-325-399-720-425-1121-31-477 92-946 353-1344l65-100-382-382c-211-211-387-383-392-383s-23 10-40 23c-104 77-312 187-475 252-119 46-322 98-471 121-141 22-443 24-580 5-363-50-735-209-1008-428-82-66-1412-1384-1539-1525-287-318-457-674-530-1103-25-151-25-524 0-670 63-362 187-654 400-945 83-112 653-692 792-805 353-286 766-447 1220-474 382-23 735 47 1081 215 140 68 322 188 439 290 142 123 1496 1480 1566 1569 237 303 380 633 433 1002 20 142 21 424 1 575-17 133-61 317-105 443-45 128-157 353-234 470l-66 100 386 386 387 387 106-70c259-170 578-288 899-332 147-21 430-21 571-1 377 55 748 214 1015 437 86 72 1408 1382 1523 1510 336 373 525 821 552 1313 29 520-116 1000-429 1420-91 122-660 696-800 807-298 236-643 386-1020 443-130 19-406 27-520 14zm420-1260c83-21 214-80 288-130 66-45 604-581 657-654 111-156 165-323 165-514 0-182-45-333-146-488-43-67-1354-1388-1474-1485-83-68-179-117-285-144-94-24-282-24-385 0-73 17-191 54-199 62-3 2 139 149 316 327 296 298 323 328 356 397 50 102 67 177 67 288 0 110-18 189-65 281-155 305-519 425-833 275-72-34-97-56-404-362-180-179-329-324-331-321-13 14-50 133-67 218-47 229-6 447 113 613 55 76 1443 1462 1507 1505 117 78 271 137 400 153 88 11 229 2 320-21zm-5032-5036c63-32 116-62 119-66 3-5-136-151-309-325-292-295-317-322-352-393-151-313-27-689 276-837 108-52 171-66 293-66 80 1 115 6 175 27 137 47 158 64 492 396 175 173 319 313 322 310 8-8 54-156 67-214 8-35 13-116 13-195-1-119-4-145-27-216-60-181-35-152-807-927-388-390-734-731-770-758-85-64-175-111-280-144-71-23-108-28-225-32-125-4-150-2-235 20-204 53-277 103-581 397-260 253-359 360-414 452-174 293-164 655 25 939 59 88 1451 1480 1539 1539 120 80 251 130 396 150 111 16 159 6 283-57z" transform="matrix(.1 0 0 -.1 -50.425 1149.5371)"/></svg>