<svg height="1000.4972pt" preserveAspectRatio="xMidYMid" viewBox="0 0 1099.6442 1000.4972" width="1099.6442pt" xmlns="http://www.w3.org/2000/svg"><g transform="matrix(.1 0 0 -.1 -50.177945 1049.9312)"><path d="m1865 10493c-274-33-479-107-692-248-287-192-497-469-602-798-70-218-65-60-68-2142-3-1634-1-1894 12-1996 79-611 527-1111 1133-1265 51-13 151-29 222-36l130-12v-526c0-572 1-586 58-699 54-109 162-201 280-242 87-30 278-43 452-30 377 28 707 130 971 303 273 178 555 469 773 798 79 120 175 284 212 362l17 37 1206 4c1334 3 1264 0 1481 69 529 168 923 617 1028 1171 16 85 17 227 17 2007 0 1808-1 1920-18 2009-111 576-519 1023-1081 1185-200 58-85 56-2909 55-1426-1-2605-4-2622-6zm5236-1003c185-35 340-185 384-371 22-96 22-3641 0-3737-41-171-145-286-329-361-37-14-170-16-1401-21l-1360-5-60-24c-112-45-196-111-251-197-18-28-53-104-79-170-192-489-447-806-786-975-99-50-153-69-190-69h-28l-3 523-3 522-28 71c-50 126-162 242-277 285-92 35-143 39-449 39-315 0-376 7-464 51-117 59-205 158-249 279l-23 65-3 1828c-3 2019-6 1895 61 2021 60 113 169 199 302 237 56 16 228 18 2621 18 1694 1 2580-2 2615-9z"/><path d="m9891 8490c-64-14-179-71-228-114-23-20-59-63-81-96-115-171-116-383-3-557 89-138 253-223 430-223 222 0 424-161 476-381 22-96 22-3641 0-3737-39-164-149-289-313-353-54-22-75-23-417-29l-360-6-71-28c-131-51-247-167-295-298-23-62-23-68-27-587l-3-523-45 5c-64 7-273 113-375 191-236 179-433 465-584 850-25 65-58 137-72 160-58 95-160 174-273 212-52 18-105 19-1155 19h-1100l-58-24c-271-109-397-387-296-656 45-121 159-232 296-286l58-24 921-3 920-3 28-57c125-257 356-580 575-806 360-369 713-551 1201-620 240-33 503-28 622 13 118 41 226 134 280 242 57 113 58 127 58 701v528h39c22 0 91 7 154 15 670 88 1205 623 1292 1294 13 102 15 362 12 1996-3 2081 2 1924-68 2142-170 530-614 924-1159 1028-103 19-318 28-379 15z"/></g></svg>