<svg height="711.45746pt" preserveAspectRatio="xMidYMid" viewBox="0 0 1001.8136 711.45746" width="1001.8136pt" xmlns="http://www.w3.org/2000/svg"><path d="m10240 8984c-30-8-93-33-140-55l-85-41-2080-2078c-2474-2470-3424-3415-3435-3415-8 0-683 667-1855 1834-652 649-683 678-755 713-351 169-757 0-877-366-22-67-26-100-26-191-1-97 3-120 29-195 17-47 47-110 67-140 21-32 669-687 1522-1540 1117-1118 1502-1496 1555-1531 109-72 189-94 340-94s232 22 339 94c51 34 848 824 3058 3031 3225 3221 3035 3026 3086 3185 17 56 22 94 22 185 0 128-20 208-78 310-41 75-168 197-244 238-126 67-313 90-443 56z" transform="matrix(.1 0 0 -.1 -98.686373 899.95743)"/></svg>