<svg height="1078.6224pt" preserveAspectRatio="xMidYMid" viewBox="0 0 720.31055 1078.6224" width="720.31055pt" xmlns="http://www.w3.org/2000/svg"><g transform="matrix(.1 0 0 -.1 -239.87786 1158.7049)"><path d="m5875 11453c-509-601-890-1186-1015-1560-50-151-64-242-56-365 34-524 393-956 904-1090 107-28 131-31 282-31 235-1 382 34 577 138 359 191 603 569 629 977 8 130-5 218-57 373-94 283-315 655-666 1122-152 202-450 564-470 570-6 2-64-58-128-134z"/><path d="m4269 7981c-109-35-190-109-243-221-28-58-31-74-31-160s3-101 32-162c59-126 168-207 309-231l64-11v-2198-2198h1600 1600v1199 1199l53 4c126 11 268 119 319 245l23 58v735c0 829 4 782-80 955-71 146-177 261-321 345-139 82-101 76-1699 276-808 101-1492 184-1520 183-27 0-75-8-106-18z"/><path d="m2690 1984c-337-91-398-552-96-729 86-50 131-55 528-55h367l12-22c52-101 204-236 333-297 173-83-25-75 2126-79 2100-3 2007-5 2159 57 142 58 285 172 360 288l34 52 391 3c383 3 392 4 449 27 82 32 176 122 212 202 103 231-18 491-260 553-53 14-403 16-3310 15-2828 0-3257-2-3305-15z"/></g></svg>