<svg height="1099.7206pt" preserveAspectRatio="xMidYMid" viewBox="0 0 749.88293 1099.7206" width="749.88293pt" xmlns="http://www.w3.org/2000/svg"><path d="m4324 11490c-190-20-387-79-554-166-577-300-875-974-734-1662 89-438 380-817 773-1004 46-22 136-57 200-78l116-37v-2543-2542l-115-37c-241-78-414-182-581-350-498-500-572-1334-172-1935 291-437 817-676 1380-628 609 52 1076 407 1277 970 14 41 38 131 53 200 24 113 27 149 27 322s-3 209-27 322c-31 145-61 235-123 364-96 203-260 401-432 524-100 71-292 168-402 201-41 13-79 26-83 30-5 3 4 58 19 120 75 319 223 628 433 909 70 93 260 291 363 377 125 104 322 230 483 309 123 60 237 102 625 232 583 196 703 243 928 373 761 439 1296 1148 1501 1993 22 89 42 181 46 206 11 75 12 76 73 90 163 36 381 138 524 245 617 464 763 1404 321 2069-364 547-1090 773-1762 550-706-235-1104-973-945-1754 70-341 283-678 551-869 100-72 288-166 411-206 45-15 82-30 82-34 0-3-13-60-29-126-100-407-313-793-600-1088-140-144-242-229-397-333-226-151-367-212-904-392-261-88-533-185-605-216-384-166-748-431-1052-765-58-64-110-118-115-119-4-2-7 789-6 1763l3 1767 120 39c241 79 402 176 571 344 209 208 336 446 401 753 24 113 27 149 27 322s-3 209-27 322c-44 209-115 379-229 549-294 440-840 679-1414 619zm406-765c194-48 344-172 435-360 64-133 80-204 80-365 0-160-16-232-80-365-92-189-241-312-440-362-98-24-352-24-450 0-198 50-349 174-442 364-105 216-109 491-10 705 44 97 74 139 146 213 96 97 226 162 369 185 82 13 315 4 392-15zm4513-504c189-50 333-172 422-356 55-115 75-194 82-325 17-333-161-638-433-740-130-48-329-63-488-35-149 26-262 83-360 181-217 219-279 602-143 896 44 96 73 139 143 210 97 99 206 155 352 183 108 20 321 14 425-14zm-4513-7496c194-48 344-172 435-360 64-133 80-204 80-365 0-160-16-232-80-365-92-190-240-312-440-362-98-24-352-24-450 0-199 50-348 173-441 364-106 216-110 491-11 705 44 97 74 139 146 213 96 97 226 162 369 185 82 13 315 4 392-15z" transform="matrix(.1 0 0 -.1 -299.99482 1149.9132)"/></svg>