<svg height="999.76917pt" preserveAspectRatio="xMidYMid" viewBox="0 0 799.38245 999.76917" width="799.38245pt" xmlns="http://www.w3.org/2000/svg"><g transform="matrix(.1 0 0 -.1 -200.5 1099.6192)"><path d="m2972 10989c-386-50-748-335-891-704-22-55-48-138-58-185-17-81-18-251-18-4100 0-3834 1-4019 18-4100 97-456 478-816 937-885 143-22 5937-22 6080 0 243 36 449 141 626 319 133 134 220 273 279 449 58 175 55-26 53 3604l-3 3328-33 70c-31 67-79 116-1070 1107s-1040 1039-1107 1070l-70 33-2340 1c-1287 1-2368-2-2403-7zm4030-1721 3-983 29-62c35-76 113-153 193-191l58-27 983-3 982-2v-2963c0-2678-2-2969-16-3018-35-121-124-213-241-249-65-20-83-20-2993-20-2902 0-2928 0-2991 20-119 37-203 123-241 242-17 58-18 195-18 3988 0 3903 0 3928 20 3991 37 117 122 203 239 240 53 17 162 18 2023 18l1968 1zm1363 92 610-610h-613-612v610c0 336 1 610 3 610 1 0 277-274 612-610z"/><path d="m6370 6865c-97-28-188-101-233-190-8-17-128-390-265-830-138-440-355-1133-482-1540l-232-740 4-85c4-68 10-97 32-141 35-70 103-139 176-176 50-25 65-28 160-28s111 3 162 28c64 31 128 91 163 151 13 23 148 439 300 926 742 2372 685 2184 685 2265 0 205-144 356-350 371-41 2-85-2-120-11z"/><path d="m4410 6366c-25-7-64-23-88-35-27-14-231-210-586-566-586-587-589-590-605-709-4-31-4-81 0-112 16-119 18-122 605-708 630-630 592-601 764-601 94 0 111 3 160 27 71 35 143 107 178 178 24 49 27 66 27 160 0 170 10 157-444 613l-385 387 390 393c357 358 393 398 419 457 26 56 30 77 30 155 0 77-4 98-27 147-60 130-183 216-319 223-44 3-92-1-119-9z"/><path d="m7398 6365c-104-28-198-110-246-213-23-48-27-71-27-147 0-78 4-99 30-155 26-59 62-99 419-457l390-393-385-387c-454-456-444-443-444-613 0-94 3-111 27-160 35-71 107-143 178-178 49-24 66-27 160-27 175 0 138-29 766 599 456 456 545 550 568 598 51 105 51 230 0 336-23 48-111 141-568 598-376 377-555 548-586 564-96 49-191 60-282 35z"/></g></svg>