<svg height="974.41779pt" preserveAspectRatio="xMidYMid" viewBox="0 0 949.7254 974.41779" width="949.7254pt" xmlns="http://www.w3.org/2000/svg"><g transform="matrix(.1 0 0 -.1 -124.81229 1074.8946)"><path d="m9360 10743c-199-20-427-103-593-215-85-57-243-218-302-307-205-312-265-695-168-1065l25-98-23-23c-20-19-472-375-1214-956-82-65-204-160-269-212l-119-93-100 58c-340 196-718 219-1084 67-87-37-233-127-304-188-43-37-54-42-73-33-35 15-1410 802-1420 812-4 4 2 58 14 121 19 94 22 130 16 218-13 194-57 356-142 521-173 335-455 541-855 627-123 26-389 24-519-5-258-56-467-168-632-340-169-175-271-375-325-632-25-118-24-383 0-499 57-265 165-473 339-649 160-161 383-276 638-329 118-24 374-24 488 0 208 44 402 138 561 271 28 23 50 35 60 31 25-10 1404-797 1419-810 11-10 9-32-9-126-17-92-20-134-15-214 11-184 55-353 132-508 166-337 468-561 864-644 118-25 383-24 499 0 262 56 455 154 626 318 322 310 448 790 328 1253-30 117-50 86 163 253 83 65 369 289 634 498 266 209 556 437 644 506l161 126 65-40c123-76 275-136 425-169 89-19 350-16 454 6 273 57 483 168 653 344 167 174 270 375 325 632 24 118 25 381 0 500-102 491-429 840-897 958-141 36-330 50-470 35zm288-758c88-21 148-54 210-117 224-225 171-665-97-811-151-83-398-75-534 16-72 49-159 168-196 270-63 173-21 384 101 513 65 68 123 104 208 126 81 21 225 23 308 3zm-6999-750c170-41 284-158 331-341 49-192-2-396-129-518-95-90-194-126-351-126-158 0-268 41-360 133-154 154-184 450-66 651 31 53 121 138 174 165 97 49 276 65 401 36zm3489-2000c34-8 81-24 104-36 121-62 246-269 255-424 9-144-47-304-140-395-92-90-201-130-357-130-42 0-102 5-131 10-120 22-245 113-303 220-36 66-66 189-66 270s30 204 66 269c33 62 101 133 161 168 101 59 277 79 411 48z"/><path d="m9375 7244c-120-18-172-29-262-59-197-66-348-159-494-304-143-144-248-313-310-504-62-189-59-84-59-2253 0-1771 2-1990 16-2075 45-264 156-480 349-675 146-148 312-251 504-313 141-46 212-56 391-55 137 0 181 4 260 23 491 120 848 486 956 981 18 81 19 173 19 2120v2035l-22 90c-82 341-271 613-554 797-119 77-258 135-409 169-82 19-318 33-385 23zm244-759c179-43 323-187 366-366 13-56 15-308 15-1994 0-2126 4-1994-62-2118-40-75-121-155-196-195-291-155-644-6-727 309-21 78-22 3927-1 4004 37 141 135 262 260 321 115 55 225 67 345 39z"/><path d="m2395 6494c-112-14-193-31-284-60-441-144-766-523-846-988-22-132-23-3253 0-3393 42-260 158-486 350-679 183-185 405-305 660-355 103-21 359-18 465 4 439 93 791 400 938 817 72 205 67 68 67 1910s5 1705-67 1910c-137 386-467 691-863 796-136 36-304 51-420 38zm269-773c116-41 229-138 282-242 56-111 54-42 54-1729 0-1352-2-1563-15-1619-89-376-566-510-840-236-33 33-73 85-88 116-60 120-57 23-57 1740 0 1740-5 1615 63 1743 60 114 185 208 320 242 70 18 206 11 281-15z"/><path d="m5842 4490c-512-72-919-435-1056-940l-31-115v-685-685l32-118c37-137 116-308 192-415 187-263 477-450 796-513 92-18 358-18 450 0 481 95 860 452 988 929l31 117 4 625c3 445 0 651-8 714-38 278-161 527-360 726-174 175-376 286-620 341-98 22-323 32-418 19zm282-756c177-46 315-182 361-359 22-88 22-1162 0-1250-58-227-252-375-488-375-232 0-440 166-486 388-7 35-11 245-11 615 0 619 0 624 62 739 104 195 344 298 562 242z"/></g></svg>