<svg height="899.46844pt" preserveAspectRatio="xMidYMid" viewBox="0 0 999.00061 899.46844" width="999.00061pt" xmlns="http://www.w3.org/2000/svg"><g transform="matrix(.1 0 0 -.1 -100.49938 1049.9684)"><path d="m5817 10489c-361-42-677-194-910-438-542-570-542-1532 0-2102 394-414 1029-557 1612-363 705 234 1105 976 945 1752-88 425-362 793-733 985-276 143-603 203-914 166zm426-768c119-31 190-74 288-171 73-72 93-99 132-180 66-138 81-208 81-370s-15-232-81-370c-39-80-59-108-132-181-96-96-180-144-306-176-98-24-352-24-450 0-126 32-210 80-306 176-73 73-93 101-132 181-66 139-82 209-82 370s16 232 81 368c34 70 62 111 115 167 109 114 212 171 367 200 108 20 321 14 425-14z"/><path d="m2610 9994c-307-38-573-165-766-366-133-138-222-290-282-478-45-143-57-227-56-405 0-230 37-390 134-585 165-330 475-561 857-637 121-24 385-24 503 0 513 106 858 446 971 958 19 84 23 134 24 264 0 91-6 192-14 235-30 168-100 342-198 495-54 84-214 246-299 303-138 93-316 166-478 197-80 16-328 27-396 19zm281-758c89-19 156-55 215-114 226-227 174-669-95-815-134-74-377-75-517-4-61 31-143 113-178 177-36 66-66 189-66 269 1 192 102 375 249 451 94 47 264 63 392 36z"/><path d="m9125 9994c-142-20-192-30-275-56-385-123-667-404-788-788-45-143-57-227-56-405 0-227 39-395 134-585 167-334 467-556 860-637 119-24 383-24 500 0 250 52 452 154 619 312 393 371 494 1003 241 1505-60 120-112 192-208 292-165 171-372 283-627 339-86 19-330 33-400 23zm266-758c94-20 155-55 222-125 148-155 179-408 76-617-36-74-116-157-183-191-140-71-383-70-517 4-186 101-279 351-219 587 47 184 165 304 334 341 81 18 205 18 287 1z"/><path d="m1718 6984c-339-61-615-324-695-664-17-69-18-152-18-1050 0-1077-2-1033 66-1289 162-610 609-1108 1209-1344 346-137 743-171 1115-96 55 11 103 24 108 28 4 4-10 48-32 98-68 156-125 348-177 592-4 21-9 23-42 17-135-23-200-28-312-22-323 15-614 146-836 378-169 176-268 360-331 615-15 61-17 167-20 988-2 730-1 925 10 945 7 13 28 35 46 47l34 23h706 706l17 105c32 198 104 374 223 550l64 95-882-1c-705-1-897-4-959-15z"/><path d="m4466 6984c-298-54-570-289-666-577-16-45-33-119-40-162-8-58-10-448-8-1400 4-1466 0-1378 73-1660 53-208 128-388 236-569 353-594 936-987 1621-1093 156-24 480-24 638 0 137 21 351 76 463 118 144 55 322 147 453 234 475 318 809 788 944 1328 66 268 63 180 67 1637 3 961 1 1347-7 1405-54 372-347 676-715 740-126 22-2936 21-3059-1zm2996-772 33-32 3-1243c3-1311 1-1378-42-1550-126-495-481-886-955-1051-182-64-281-79-496-80-207 0-274 9-459 65-460 141-825 503-974 969-71 222-67 131-67 1582v1306l25 27c14 15 34 31 45 36 11 4 658 7 1437 6l1418-2z"/><path d="m8454 6978c52-71 128-191 155-246 48-96 100-260 119-377l17-105 717-2 718-3 32-33 33-32v-918c0-994 1-967-56-1145-138-427-497-749-939-843-145-30-318-30-502 2-33 6-38 4-42-17-38-182-56-248-101-384-29-88-67-191-84-229-18-38-28-73-24-77s53-17 108-28c300-61 610-51 910 29 708 188 1260 756 1429 1471 51 215 51 210 51 1239 0 888-1 971-18 1040-74 315-314 562-633 652-79 23-81 23-993 26l-914 3z"/></g></svg>