<svg height="958.34106pt" preserveAspectRatio="xMidYMid" viewBox="0 0 999.5 958.34106" width="999.5pt" xmlns="http://www.w3.org/2000/svg"><g transform="matrix(.1 0 0 -.1 -80.5 1079)"><path d="m7100 10495-295-295 298-297 297-298 295 295c162 162 294 298 293 302-4 11-580 588-587 588-4 0-139-133-301-295z"/><path d="m4070 10385c-267-60-470-312-470-585 0-275 206-528 475-585 54-11 152-15 425-15 374 0 410-4 497-48 60-31 137-112 167-176 48-100 49-140 42-1190-3-566-2-976 3-970 22 23 189 320 260 462 277 555 443 1063 507 1557 24 186 25 502 1 615-92 438-354 751-737 880-173 59-212 63-675 66-348 3-442 1-495-11z"/><path d="m9455 10385c-318-60-573-314-639-637-13-63-16-155-16-512v-434l-267-5c-296-4-328-10-462-73-239-112-408-328-457-581-10-52-14-147-14-307v-233l-112-7c-346-21-704-169-900-372-146-153-878-949-875-954 3-8 522-489 557-517l27-22 158 172c644 700 705 764 768 801 102 60 201 86 367 96 91 6 173 17 219 30 269 75 481 287 562 562 20 65 23 103 26 340l5 266 266 5c237 3 275 6 340 26 274 81 480 287 564 563 21 70 22 92 26 541l3 467h600 599v400 400l-637-1c-482-1-655-4-708-14z"/><path d="m1900 9695-295-295 298-297 297-298 295 295c162 162 295 297 295 301 0 7-576 583-587 586-5 2-141-130-303-292z"/><path d="m1100 7295-295-295 298-297 297-298 295 295c162 162 295 297 295 300 0 7-577 584-587 587-5 2-141-130-303-292z"/><path d="m9900 7295-295-295 298-297 297-298 295 295c162 162 295 297 295 300 0 7-577 584-587 587-5 2-141-130-303-292z"/><path d="m3065 7179c-109-38-181-105-233-217-24-50-27-69-27-162 0-96 3-110 29-165 19-38 61-92 117-150l87-90-903-2258c-497-1242-909-2281-916-2310-91-380 289-721 662-593 24 9 1050 418 2279 910l2235 894 90-87c55-53 112-98 145-114 107-52 246-52 354 2 154 75 241 246 214 420-20 132 98 8-1917 2022-2088 2089-1895 1910-2066 1916-72 3-102-1-150-18z"/><path d="m8960 5990c-526-50-1058-213-1648-505-163-80-469-251-496-276-6-5 409-6 970-3 1055 7 1093 6 1192-43 62-30 143-107 171-161 48-94 51-125 51-501 0-274 4-372 15-426 57-269 310-475 585-475 278 0 529 206 586 480 13 63 15 140 11 495-5 451-9 494-67 665-127 375-437 640-855 731-106 23-367 33-515 19z"/><path d="m8300 2895-295-295 295-295c162-162 298-294 302-293 4 2 140 135 301 296l293 292-293 293c-161 160-296 293-301 295-4 1-140-131-302-293z"/></g></svg>