<svg height="1024.7223pt" preserveAspectRatio="xMidYMid" viewBox="0 0 1024.6816 1024.7223" width="1024.6816pt" xmlns="http://www.w3.org/2000/svg"><g transform="matrix(.1 0 0 -.1 -88.171634 1112.8321)"><path d="m10352 11110c-40-11-105-36-145-56-66-35-127-92-777-741l-705-703-74 55c-402 299-934 412-1433 305-199-43-403-131-584-251-91-61-156-119-399-360-159-158-362-357-450-443l-159-156-116 114c-128 127-209 184-308 218-57 20-87 23-202 23s-145-3-202-23c-129-45-243-134-319-250s-94-181-94-342c0-162 19-230 95-343 37-54 504-527 1847-1867 1959-1956 1841-1846 2006-1890 107-29 277-25 374 10 124 43 236 131 311 244 74 111 97 193 97 351 0 110-4 140-23 197-34 99-91 180-218 308l-113 115 415 420c413 418 517 536 604 685 95 163 169 366 206 565 15 78 19 146 18 310 0 187-3 224-27 336-57 269-164 510-319 719l-48 64 703 706c648 649 706 711 741 777 133 260 85 561-120 754-48 45-141 104-199 127-112 44-265 53-383 22zm-2579-2350c36-11 91-38 123-59 88-59 793-773 827-837 56-107 73-256 41-365-39-132-54-150-483-582l-406-407-682 682-683 683 383 383c210 211 409 403 442 427 58 42 135 78 185 88 68 12 191 6 253-13z"/><path d="m3342 7610c-211-55-359-191-437-400-26-67-29-88-29-200-1-140 9-182 73-305 27-52 68-103 163-200l127-131-395-395c-218-217-424-428-458-469-183-219-310-485-366-765-46-226-37-539 21-767 59-235 184-493 317-656l35-44-705-706c-673-676-706-710-741-782-56-115-70-184-64-320 5-133 27-205 87-299 55-84 101-133 178-186 102-69 194-98 328-103 131-5 202 10 314 65 72 35 107 68 782 741l706 705 39-30c65-51 204-139 288-181 598-298 1302-240 1827 150 49 36 260 238 510 487l427 425 129-125c144-139 208-182 324-216 96-28 242-31 333-8 145 37 278 132 364 260 77 116 96 183 96 345s-19 230-95 343c-37 54-507 530-1852 1873l-1803 1802-85 41c-146 71-295 88-438 51zm1743-3880c-220-221-421-414-446-430-105-69-252-94-373-66-141 33-158 47-567 455-207 207-389 396-405 421-93 151-100 339-17 505 19 37 128 153 436 463l412 412 680-680 680-680z"/></g></svg>