<svg height="749.92712pt" preserveAspectRatio="xMidYMid" viewBox="0 0 823.52502 749.92712" width="823.52502pt" xmlns="http://www.w3.org/2000/svg"><g transform="matrix(.1 0 0 -.1 -187.975 974.92216)"><path d="m2649 9734c-384-69-691-376-758-758-15-83-15-5869 0-5952 56-321 293-604 596-714 179-64-67-60 3513-60 2843 0 3268 2 3343 15 355 62 634 310 744 662l28 88v2985 2985l-28 88c-110 352-389 600-744 662-75 13-498 15-3352 14-2727-1-3279-3-3342-15zm6617-753c51-23 89-71 104-131 7-31 10-194 8-510l-3-465h-3375-3375v497 496l30 44c18 25 49 52 75 66l44 22h3226c3128 0 3226-1 3266-19zm112-3821c2-1408-1-1978-8-2010-15-60-53-108-104-131-40-18-138-19-3266-19h-3226l-44 23c-26 13-57 40-75 65l-30 44-3 1986c-1 1093 0 1993 3 1999 3 11 680 13 3377 11l3373-3z"/><path d="m7225 8602c-45-28-83-78-91-118-11-59 1-121 31-160 85-112 256-90 316 41 36 78 13 168-56 221-50 38-153 46-200 16z"/><path d="m7975 8602c-40-25-83-77-91-108-13-52 1-131 31-169 32-43 94-74 145-75 48 0 117 37 152 81 60 75 42 194-39 257-48 36-152 43-198 14z"/><path d="m8725 8602c-40-25-83-77-91-108-13-50 1-131 29-167 31-41 100-77 145-77 71 0 142 47 173 115 36 78 13 168-56 221-50 38-153 46-200 16z"/><path d="m4430 6357c-103-36-182-107-228-205-23-49-27-70-27-152 0-88 3-101 33-162 41-83 56-96 460-418 176-140 321-258 321-261 1-4-153-130-342-282-188-151-359-291-379-312-20-20-49-63-64-94-26-50-29-66-29-156 0-87 3-107 27-157 37-79 98-142 177-181 60-29 74-32 161-32 82 0 103 4 151 26 66 31 1134 882 1192 949 123 144 110 367-30 502-93 90-1099 889-1152 915-45 23-71 28-145 30-54 1-105-2-126-10z"/><path d="m6300 4679c-114-22-228-118-271-227-18-43-23-77-23-142-1-75 3-93 31-152 39-82 100-145 179-184l59-29h660 660l57 27c76 35 138 95 179 170 33 60 34 68 34 168 0 96-3 110-29 164-52 107-147 180-264 205-64 13-1203 14-1272 0z"/></g></svg>