<svg height="861.64886pt" preserveAspectRatio="xMidYMid" viewBox="0 0 861.72968 861.64886" width="861.72968pt" xmlns="http://www.w3.org/2000/svg"><g transform="matrix(.1 0 0 -.1 -169.20351 1030.615)"><path d="m4768 10300c-674-65-1296-316-1823-736-140-112-394-367-508-509-431-539-683-1171-738-1851-14-181-6-531 16-694 91-664 356-1260 785-1765 70-82 276-289 365-367 426-370 988-642 1554-752 314-61 722-78 1016-42 598 74 1147 288 1606 627 37 27 70 49 75 49s565-556 1244-1235c852-853 1252-1246 1290-1269 128-79 282-88 417-24 74 35 158 120 199 203 62 125 57 281-12 403-18 31-458 478-1275 1297l-1248 1250 25 30c14 17 55 75 93 130 266 391 443 816 530 1275 74 393 74 849 0 1240-161 843-626 1581-1321 2096-453 335-988 550-1568 630-133 18-588 27-722 14zm675-764c545-89 1011-313 1399-672 377-349 648-807 769-1299 54-220 72-376 72-620 1-319-35-548-130-835-438-1319-1841-2071-3178-1705-515 141-980 439-1325 850-334 397-548 907-601 1430-18 185-7 505 25 685 76 438 242 816 513 1173 162 213 445 469 688 622 119 75 363 194 500 243 185 66 437 124 640 145 95 11 533-2 628-17z"/><path d="m4930 8244c-452-56-833-317-1034-709-53-102-107-264-127-375s-18-365 4-470c57-268 174-488 362-675 201-201 438-324 714-370 150-25 389-17 523 18 452 118 790 430 933 860 46 140 65 258 65 413 0 152-18 271-61 404-47 142-42 138-96 91-62-55-148-97-232-112-200-35-407 75-497 265-79 166-50 370 73 506l42 46-87 33c-130 48-257 71-412 75-74 3-151 2-170 0z"/></g></svg>