<svg height="1061.4402pt" preserveAspectRatio="xMidYMid" viewBox="0 0 799.34503 1061.4402" width="799.34503pt" xmlns="http://www.w3.org/2000/svg"><g transform="matrix(.1 0 0 -.1 -200.5 1124.9401)"><path d="m5914 11241c-103-25-199-102-246-199-31-62-33-74-33-167s2-105 33-167c134-273 530-273 664 0 28 56 34 80 36 152 4 96-16 167-68 239-81 112-250 174-386 142z"/><path d="m2972 10989c-151-19-319-83-461-176-111-72-253-214-326-327-69-106-137-267-162-386-17-81-18-266-18-4100s1-4019 18-4100c10-47 37-133 61-191 152-376 498-645 899-699 50-6 430-10 1048-10h969v375 375h-963c-851 0-970 2-1018 16-121 35-213 124-249 241-20 65-20 80-20 3993s0 3928 20 3993c36 117 128 206 249 241 48 14 167 16 1018 16h963v375 375l-982-1c-541-1-1011-5-1046-10z"/><path d="m7000 10625v-375h964c939 0 966-1 1029-20 117-36 206-128 241-249 15-50 16-423 16-3981s-1-3931-16-3981c-35-121-124-213-241-249-63-19-90-20-1029-20h-964v-375-375h973c1039 0 1073 2 1232 51 169 52 329 150 461 283 133 134 220 273 279 449s55-88 52 4264c-2 3806-3 3991-21 4063-101 423-412 742-834 858l-97 27-1022 3-1023 3z"/><path d="m5883 9977c-162-58-253-184-253-352 0-169 99-305 259-355 35-11 85-20 111-20s76 9 111 20c160 50 259 186 259 355s-99 305-259 355c-81 26-151 25-228-3z"/><path d="m3787 8739c-101-24-208-113-253-212-25-54-29-74-29-152 0-77 4-99 28-151 36-77 113-154 192-191l60-28 608-3 607-3v376 375l-587-1c-324-1-605-5-626-10z"/><path d="m5885 8729c-157-50-255-187-255-354 0-124 52-230 147-299 250-182 593-9 593 299 0 169-99 305-259 355-78 25-148 25-226-1z"/><path d="m7000 8375v-376l608 3 607 3 58 27c80 38 158 115 193 191 25 53 29 74 29 152 0 77-4 98-27 147-37 80-107 151-187 191l-66 32-607 3-608 3z"/><path d="m5900 7485c-248-69-352-373-200-584 63-86 192-151 300-151 67 0 166 34 223 75 198 146 198 454 0 600-90 65-217 89-323 60z"/><path d="m3787 7239c-105-25-201-105-251-209-28-58-31-75-31-155 0-76 4-99 27-148 38-80 114-158 191-193l62-29 608-3 607-3v376 375l-587-1c-324-1-605-5-626-10z"/><path d="m7000 6875v-376l608 3 607 3 66 32c80 40 150 111 187 191 23 48 27 70 27 147s-4 99-27 148c-38 80-114 158-191 193l-62 29-607 3-608 3z"/><path d="m5885 6230c-112-38-193-116-236-229-32-87-25-204 19-293 134-273 530-273 664 0 31 62 33 74 33 167s-2 105-33 167c-80 164-275 245-447 188z"/><path d="m7000 5375v-376l608 3 607 3 61 28c77 36 154 113 191 192 24 52 28 73 28 150s-4 99-27 147c-37 80-107 151-187 191l-66 32-607 3-608 3z"/><path d="m5889 4981c-111-36-198-118-239-229-33-88-26-205 18-294 134-273 530-273 664 0 44 89 51 206 18 295-70 187-273 288-461 228z"/><path d="m7000 3875v-376l608 3 607 3 65 31c82 39 144 101 184 184 28 58 31 75 31 155 0 76-4 99-27 147-37 80-107 151-187 191l-66 32-607 3-608 3z"/><path d="m5885 3857c-90-30-188-118-228-205-32-68-32-236 0-305 30-65 112-148 180-183 53-27 67-29 163-29 94 0 111 3 161 28 67 32 151 118 182 184 18 40 22 66 22 153 0 127-17 171-96 255-76 80-140 109-253 112-56 2-107-2-131-10z"/><path d="m5885 2607c-90-30-188-118-228-205-18-39-22-65-22-152 0-94 3-111 28-161 32-67 118-151 184-182 69-32 236-31 306 1 66 30 151 114 184 181 25 50 28 67 28 161 0 127-17 171-96 255-76 80-140 109-253 112-56 2-107-2-131-10z"/><path d="m5885 1357c-90-30-188-118-228-205-32-68-32-236 0-305 30-65 112-148 180-183 53-27 67-29 163-29 94 0 111 3 161 28 67 32 151 118 182 184 18 40 22 66 22 153 0 127-17 171-96 255-76 80-140 109-253 112-56 2-107-2-131-10z"/></g></svg>