<svg height="999.38599pt" preserveAspectRatio="xMidYMid" viewBox="0 0 799 999.38599" width="799pt" xmlns="http://www.w3.org/2000/svg"><g transform="matrix(.1 0 0 -.1 -200.5 1099.886)"><path d="m3240 10993c-605-65-1095-515-1217-1118-17-86-18-258-18-3875s1-3789 18-3875c114-562 539-987 1104-1102 83-17 239-18 2873-18 2651 0 2789 1 2875 18 422 85 777 352 969 727 67 132 98 217 128 356l23 109v3785 3785l-23 109c-127 590-597 1022-1192 1096-79 9-5450 13-5540 3zm5523-759c211-47 383-202 454-409l28-80v-3740c0-3175-2-3748-14-3790-47-168-175-326-321-397-152-74 84-68-2913-68-2662 0-2695 0-2773 20-120 31-198 74-285 160-83 83-125 149-161 255l-23 70v3745 3745l23 70c35 103 77 172 156 251 39 39 96 84 126 101 52 30 156 67 210 76 14 2 1239 5 2723 6 2433 1 2705-1 2770-15z"/><path d="m3755 9479c-111-36-193-115-236-228-30-81-24-214 14-288 35-68 76-114 135-151 104-67-71-62 2352-60l2195 3 55 22c76 31 149 98 191 175 33 60 34 67 34 168 0 99-2 109-33 172-39 80-111 148-192 181l-55 22-2200 2c-2157 2-2201 2-2260-18z"/><path d="m3787 7989c-103-24-206-111-254-214l-28-60v-1715-1715l29-62c35-76 113-153 193-191l58-27h2215 2215l58 27c80 38 158 115 193 191l29 62v1715 1715l-29 62c-35 76-113 153-193 191l-58 27-2195 2c-1255 0-2211-3-2233-8zm3963-1989v-1250h-1750-1750v1250 1250h1750 1750z"/><path d="m3759 3231c-102-33-176-96-226-195-38-73-44-207-14-287 44-115 126-193 241-229 64-20 84-20 2260-18l2195 3 55 22c81 33 153 101 192 181 31 63 33 73 33 172 0 101-1 108-34 168-42 77-115 144-191 175l-55 22-2200 2c-2091 2-2203 1-2256-16z"/></g></svg>