<svg height="999.29852pt" preserveAspectRatio="xMidYMid" viewBox="0 0 1000.0099 999.29852" width="1000.0099pt" xmlns="http://www.w3.org/2000/svg"><g transform="matrix(.1 0 0 -.1 -99.995011 1099.7985)"><path d="m4487 10976c-112-47-181-123-216-236-11-36-48-217-83-402l-62-337-711-3-710-4-95-26c-52-14-133-42-179-62-292-126-537-398-630-701-53-169-51-62-51-2857v-2598h-213c-236 0-285-8-369-62-59-37-100-83-135-151-38-74-44-207-14-288 43-115 125-193 240-229 61-19 90-20 802-20 406 0 739-1 739-3 0-4-90-482-210-1112-103-539-104-558-52-669 37-77 99-138 182-179 58-29 73-32 155-32 77 0 99 4 150 28 78 36 157 114 188 186 18 41 69 287 186 908 89 469 161 857 161 863 0 7 334 10 1035 10h1034l3-618 3-617 28-56c32-67 118-151 184-182 69-32 237-32 306 0 66 31 152 115 184 182l28 56 3 618 3 617h1034c733 0 1035-3 1035-11 0-6 72-394 161-862 117-620 168-867 186-908 31-72 110-150 188-186 52-24 73-28 150-28s99 4 148 27c79 37 158 115 191 188 50 110 48 131-54 665-120 630-210 1108-210 1112 0 2 333 3 739 3 712 0 741 1 802 20 115 36 197 114 240 229 30 81 24 214-14 288-35 68-76 114-135 151-84 54-133 62-369 62h-213v2598c0 2823 2 2691-55 2867-124 377-421 652-819 757-78 21-104 22-791 25l-711 4-48 257c-80 425-93 485-116 534-32 70-90 130-162 169-61 33-67 34-173 34s-112-1-173-34c-117-64-188-170-198-298-5-56 5-121 50-360 31-161 56-295 56-298s-499-5-1110-5c-610 0-1110 2-1110 5s25 136 55 296 55 309 55 332c-1 135-78 261-202 327-57 31-72 35-158 37-83 3-103 0-153-21zm4755-1746c120-38 203-121 238-239 20-65 20-97 18-2168l-3-2102-160 157c-88 86-286 279-440 428-154 148-444 429-644 623-382 369-457 430-599 491-126 54-230 73-382 73-156 0-279-27-403-87-131-64-190-112-481-393-158-153-292-280-298-282-5-2-78 64-161 146-290 285-1059 1028-1144 1106-203 184-402 261-668 260-106-1-148-5-229-27-114-30-235-86-322-149-33-25-285-262-560-528l-499-484-3 1435c-2 1406-2 1436 18 1501 35 117 118 200 235 238 59 19 120 20 3242 20 3151 1 3182 1 3245-19zm-5032-2750c38-19 1322-1252 1328-1275 1-6-152-159-340-341-189-182-525-507-747-722l-404-392h-774-773v629 629l587 569c323 312 663 641 755 730 92 90 182 169 200 177 49 21 122 19 168-4zm3152-751c36-18 236-208 843-798 196-191 657-637 978-946l239-230-1070-3c-589-1-1555-1-2147 0l-1076 3 538 520c296 286 610 590 698 676 602 585 799 772 827 784 49 21 122 18 170-6z"/><path d="m7990 8485c-230-50-427-250-476-485-65-309 124-626 431-723 55-17 94-22 180-22 129 0 211 22 315 82 377 221 414 757 69 1028-146 115-336 159-519 120z"/></g></svg>