<svg height="1074.7664pt" preserveAspectRatio="xMidYMid" viewBox="0 0 1024.9949 1074.7664" width="1024.9949pt" xmlns="http://www.w3.org/2000/svg"><g transform="matrix(.1 0 0 -.1 -124.9 1124.8938)"><path d="m8605 11234c-38-8-113-36-165-61-78-39-109-61-175-128-73-74-105-122-376-571-163-269-595-979-959-1579-910-1496-865-1420-896-1510-24-70-28-95-28-205 0-111 3-134 28-205 38-109 78-176 153-256 102-108 220-173 365-203 69-14 301-16 2198-16 2301 0 2194-2 2325 53 130 55 267 173 333 288 100 176 117 397 45 578-15 36-128 233-251 436-414 682-728 1198-869 1430-458 753-618 1016-807 1330-188 312-220 358-292 431-67 68-96 89-175 127-152 74-299 93-454 61zm270-1018c53-31 100-92 115-147 7-25 9-360 8-967l-3-929-30-49c-101-163-329-163-430 0l-30 49v951 951l28 47c52 88 132 131 234 124 44-2 75-11 108-30zm-10-2677c115-43 195-161 195-289 0-173-137-310-310-310-220 0-367 217-289 427 59 155 241 233 404 172z"/><path d="m3205 10739c-559-72-1023-480-1160-1022-35-139-45-250-45-494v-223h-213c-236 0-285-8-369-62-58-37-100-83-136-151-25-48-27-61-27-162s2-114 27-162c36-68 78-114 136-151 100-64 75-62 958-62 775 0 804 1 865 20 160 50 259 186 259 355 0 130-55 235-160 307-85 58-142 68-382 68h-208v223c0 190 3 235 20 301 57 226 230 398 456 456 76 20 114 20 1933 20h1856l41 68c166 274 390 641 402 660l14 22-2098-1c-1170-1-2130-5-2169-10z"/><path d="m2000 7500v-250h-213c-236 0-285-8-369-62-59-37-100-83-135-151-38-74-44-207-14-288 43-115 125-193 240-229 61-19 90-20 860-20 865 0 861 0 956 56 58 34 112 94 143 163 37 79 43 202 13 282-43 115-125 193-240 229-55 17-91 20-277 20h-214v250 250h-375-375z"/><path d="m2000 5750v-250h-214c-186 0-222-3-277-20-157-49-260-188-260-350 0-79 6-110 37-172 47-94 130-162 233-192 80-24 1615-24 1706-1 115 30 212 117 255 232 18 48 21 73 18 148-3 79-8 98-38 153-41 78-113 144-188 174-53 21-75 23-289 26l-233 3v250 249h-375-375z"/><path d="m8501 5989c-520-46-1045-257-1461-585-109-87-357-335-444-444-732-927-794-2218-152-3205 678-1043 1973-1503 3156-1120 813 263 1470 909 1749 1719 238 688 191 1445-129 2101-253 519-678 958-1190 1229-460 243-1004 352-1529 305zm-891-1264c19-9 284-265 588-568l552-552 553 552c303 303 568 559 587 569 25 13 57 19 110 19 64 0 82-4 123-28 55-33 102-93 118-151 14-51 6-133-16-177-9-19-265-283-568-586l-552-553 552-552c303-304 559-569 569-588 13-25 19-57 19-110 0-64-4-82-28-122-33-57-78-93-142-114-55-19-135-14-186 11-19 9-283 265-586 568l-553 552-552-552c-304-303-569-559-588-569-55-29-172-26-230 6-53 30-105 96-121 153-14 51-6 133 16 178 9 19 265 283 568 586l552 553-552 552c-303 304-559 569-569 588-13 25-19 57-19 110 0 64 4 82 28 122 31 53 79 93 134 114 48 18 147 12 193-11z"/><path d="m2000 4000v-250h-213c-236 0-285-8-369-62-59-37-100-83-135-151-38-74-44-207-14-288 43-115 125-193 240-229 55-17 91-20 276-20h213l5-277c6-358 29-471 137-698 180-375 531-649 955-746l100-23 1497-3 1497-4-82 115c-127 178-239 371-326 564l-33 72h-1216c-1358 0-1291-3-1440 70-144 71-251 197-314 367-19 52-22 84-26 311l-4 252h209c241 0 298 10 383 68 66 45 111 103 140 179 31 82 26 205-12 284-48 103-126 170-237 203-43 12-101 16-268 16h-213v250 250h-375-375z"/></g></svg>