<svg height="842.84338pt" preserveAspectRatio="xMidYMid" viewBox="0 0 674.41473 842.84338" width="674.41473pt" xmlns="http://www.w3.org/2000/svg"><path d="m2883 10296c-104-34-185-106-232-205l-26-56v-3190-3190l27-57c35-76 95-138 170-179l63-34 995-5 995-5 5-455 6-455 27-75c89-246 268-415 512-485l90-25 1635 2 1635 3 75 28c202 74 347 202 435 382 79 163 76 116 73 1205l-3 965-31 88c-44 121-86 188-179 283-112 113-228 177-377 208-65 14-165 16-637 16h-560l-71 88c-39 48-105 129-147 180-108 132-222 212-378 266-58 20-84 20-760 24-783 3-765 5-920-68-181-84-320-240-393-443l-26-72-6-455-5-455-752-3-753-2v1880 1880l753-2 752-3 6-450c6-503 5-493 81-645 34-69 60-103 138-180 108-109 183-153 324-194l88-26h1608c1570 0 1609 0 1686 20 43 11 117 39 164 62 69 34 103 60 181 138 82 82 102 108 141 190 82 168 79 118 76 1210l-3 965-31 88c-40 111-83 182-162 268-104 112-225 183-377 220-74 17-122 19-647 19h-567l-123 153c-203 251-273 308-468 378l-65 24-700 3c-792 3-769 5-930-74-182-89-309-234-382-434l-27-75-6-455-5-455-752-3-752-2-3 697-3 698-23 58c-33 82-115 166-194 202-75 34-196 44-265 21zm3877-939c25-12 85-79 190-209 176-219 216-261 280-293 85-43 123-45 711-45 613 0 590 2 643-60 14-17 30-48 36-70 7-26 10-272 8-738l-3-698-27-41c-14-22-43-48-65-59-37-18-81-19-1414-19h-1375l-41 27c-22 14-48 43-59 65-18 36-19 77-22 1003-2 697 0 980 8 1018 15 67 61 116 122 131 26 6 230 9 508 8 423-2 468-4 500-20zm-43-4488c26-5 57-18 69-27 11-9 89-103 173-207 167-207 203-244 271-279 84-44 122-46 711-46 613 0 590 2 643-60 14-17 30-48 36-70 7-26 10-272 8-738l-3-698-27-41c-14-22-43-48-65-59-37-18-83-19-1378-22-977-2-1354 0-1393 8-72 16-116 60-132 132-8 38-10 321-8 1018 3 920 4 967 22 1003 21 42 64 76 110 87 50 12 908 12 963-1z" transform="matrix(.1 0 0 -.1 -262.5 1030.8434)"/></svg>