<svg height="999.78949pt" preserveAspectRatio="xMidYMid" viewBox="0 0 998.875 999.78949" width="998.875pt" xmlns="http://www.w3.org/2000/svg"><path d="m5675 10989c-2199-138-4073-1742-4554-3899-84-375-115-670-115-1090 0-339 14-521 60-802 145-888 520-1706 1100-2403 137-164 452-481 609-612 377-314 767-560 1185-746 1569-700 3371-550 4800 398 292 194 510 373 770 634 212 212 313 328 479 551 545 731 871 1572 967 2495 25 237 25 734 0 970-107 1021-484 1921-1139 2715-209 254-552 580-842 800-932 708-2127 1064-3320 989zm531-773c297-95 617-438 873-938 120-232 195-423 285-728 34-116 136-516 136-535 0-13-162-15-1500-15-1422 0-1500 1-1500 18 0 29 116 468 165 627 76 244 133 388 237 596 279 561 625 918 962 995 92 21 242 12 342-20zm-1787-303c-234-388-373-705-514-1166-46-151-147-540-182-702l-9-40-733-3-733-2 36 65c393 715 1046 1344 1781 1718 91 46 356 166 368 167 5 0-1-17-14-37zm3212 11c35-14 132-58 214-98 785-378 1459-1012 1871-1761l36-65-733 2-733 3-9 40c-35 162-136 551-181 700-143 466-281 780-515 1168-13 20-21 37-19 37 3 0 33-12 69-26zm-4038-2846c-62-463-93-825-93-1078s31-615 93-1077l23-173h-841-841l-52 208c-152 610-172 1152-67 1787 9 50 39 183 67 298l52 207h841 841zm4069-33c116-856 116-1234 0-2090l-27-200h-1635-1635l-22 160c-102 733-116 1151-58 1705 17 160 74 598 80 618 4 10 336 12 1637 10l1633-3zm2456-2c84-339 119-592 129-933 11-403-27-742-129-1152l-52-208h-841-841l23 173c62 461 93 828 93 1084 0 246-32 613-93 1071l-23 172h841 841zm-6395-3088c5-22 35-149 68-282 152-622 336-1098 582-1508 36-60 64-111 63-113-5-4-227 93-341 150-702 352-1318 918-1724 1585-44 72-89 149-100 172l-21 41 732-2 732-3zm3777 30c0-42-130-523-197-730-211-651-599-1216-973-1418-111-60-198-82-330-82s-219 22-330 82c-373 201-760 766-973 1418-67 205-197 686-197 730 0 13 154 15 1500 15 1338 0 1500-2 1500-15zm2214-52c-406-733-1053-1352-1803-1727-119-60-342-158-347-154-1 2 27 53 63 113 186 310 336 657 463 1070 58 190 131 467 170 645 11 52 22 101 25 108 3 9 160 12 736 12h731z" transform="matrix(.1 0 0 -.1 -100.6 1099.8841)"/></svg>