<svg height="1104.1761pt" preserveAspectRatio="xMidYMid" viewBox="0 0 815 1104.1761" width="815pt" xmlns="http://www.w3.org/2000/svg"><g transform="matrix(.1 0 0 -.1 -192.5 1152.3041)"><path d="m4780 11520c-1996-5-2160-7-2218-23-160-44-309-133-418-251-102-109-159-212-201-367-17-61-18-308-18-4809v-4745l23-89c25-98 91-246 143-322 53-77 174-198 252-252 114-79 186-111 337-155l75-22 3190-3c2259-2 3214 0 3274 8 260 34 504 178 668 394 62 82 137 242 165 351l23 90v3635 3635l-27 45c-34 57-2810 2832-2856 2855-33 16-74 22-192 27-36 2-1035 1-2220-2zm1942-1552 3-1073 23-79c101-348 371-589 722-645 42-7 430-11 1098-11h1032v-3378c0-3000-2-3384-15-3437-43-168-153-289-320-356l-60-24-3173-3c-3503-2-3237-7-3366 60-77 41-175 139-209 209-62 127-57-273-55 4859l3 4685 26 55c47 101 126 169 228 196 36 10 496 13 2053 13l2007 1zm2436-1326c-117-1-537-1-933 0l-720 3-57 23c-67 27-157 105-194 168-55 93-54 75-54 1064v915l1085-1085 1085-1085z"/><path d="m4020 5991c-148-48-220-204-154-335 43-84 118-130 214-130 138 0 234 97 234 234 0 95-44 169-128 212-43 22-128 32-166 19z"/><path d="m5040 5760v-240h1440 1440v240 240h-1440-1440z"/><path d="m4020 4791c-148-48-220-204-154-335 43-84 118-130 214-130 138 0 234 97 234 234 0 95-44 169-128 212-43 22-128 32-166 19z"/><path d="m5040 4560v-240h1440 1440v240 240h-1440-1440z"/><path d="m4020 3591c-148-48-220-204-154-335 43-84 118-130 214-130 138 0 234 97 234 234 0 95-44 169-128 212-43 22-128 32-166 19z"/><path d="m5040 3360v-240h1440 1440v240 240h-1440-1440z"/></g></svg>