<svg height="312.20773mm" viewBox="0 0 312.3367 312.20773" width="312.3367mm" xmlns="http://www.w3.org/2000/svg"><path d="m54.126456-38.69501-2.38125-.4883-1.85208-.64253-1.85208-.64253-1.98438-.99944-1.98437-.99945-1.51109-1.02531-1.51108-1.02531-1.59919-1.33085-1.59918-1.33086-1.74061-2.0397-1.74061-2.03969-1.20388-1.93124-1.20389-1.93123-1.0345-2.39956-1.03451-2.39955-.65939-2.68067-.6594-2.68067-.16084-3.19759-.16085-3.19758.32997-2.62147.32997-2.62148.6502-2.25073.6502-2.25073 1.35614-2.86073 1.35614-2.86072-8.76935-8.76935-8.76936-8.76935-2.06161 1.02139-2.06162 1.02139-1.9843703.72395-1.98438.72396-2.24896.48867-2.24895.48868-4.49792-.007-4.49792-.007-2.80777-.70314-2.8077697-.70314-2.40475-1.03674-2.40474-1.03674-1.93123-1.20389-1.93124-1.20388-1.99351-1.7012-1.99351-1.7012-1.41118-1.68886-1.41118-1.68887-.9914-1.46081-.9914-1.46082-1.05658-2.11666-1.05658-2.11667-.67709-2.11667-.6771-2.11666-.35253-1.45521-.35252-1.45521v-5.02708-5.02709l.47533-1.95842.47533-1.95843.61169-1.74574.6117-1.74574 1.14207-2.31072 1.14208-2.31072 1.64279-2.18889 1.64278-2.18889 2.08124-1.9862 2.08124-1.9862 1.85208-1.22432 1.85209-1.22432 1.85208-.93128 1.85208-.93128 2.26722-.7931 2.2672097-.7931 2.72517-.45568 2.72518-.45568 4.00343996.13956 4.00345004.13956 2.57954.67338 2.57955.67337 2.5092603 1.10047 2.50926 1.10048 2.43748 1.62216 2.43748 1.62216 2.282 2.26252 2.282 2.26253 1.84866 2.7991 1.84867 2.79911 1.12042 2.81296 1.12042 2.81297.52058 2.31648.52057 2.31649.16503 3.0427.16503 3.04271-.311 2.38125-.31099 2.38125-.67082 2.51354-.67083 2.51355-1.35171 2.86072-1.3517 2.86072 8.76399 8.764 8.764 8.76399 2.86072-1.35547 2.86072-1.35546 1.98438-.55494 1.98437-.55495 2.51354-.38618 2.51355-.38619 2.28881-.002 2.28881-.002 3.01924.51617 3.01923.51616 2.26486.81952 2.26485.81952 1.98434 1.0148 1.98433 1.0148 8.7752-8.77814 8.77521-8.77814-1.14756-2.24896-1.14756-2.24896-.69289-2.10515-.6929-2.10516-.45625-2.11667-.45626-2.11666-.0117-3.83646-.0117-3.83646.45605-2.32169.45605-2.32169.80674-2.30852.80673-2.30852 1.13796-2.15644 1.13796-2.15644 1.44496-1.9446 1.44496-1.9446 2.287114-2.18684 2.28712-2.18685 2.05253-1.34218 2.05253-1.34218 1.95622-.91782 1.95622-.91781 1.88721-.61605 1.88721-.61605 2.48705-.42721 2.48704-.42722 3.06223.001 3.06223.001 2.38725.3872 2.38724.3872 2.04426.66731 2.04425.66731 1.72046.7801 1.72045.78009 2.18242 1.4261 2.18242 1.42611 1.5713 1.43458 1.57131 1.43458 1.07453 1.15755 1.07453 1.15755 1.21619 1.66539 1.21619 1.6654 1.0727 2.07185 1.07269 2.07184.8102 2.30852.81021 2.30852.45424 2.32169.45424 2.32169-.002 3.70417-.002 3.70416-.32659 1.68191-.32659 1.68191-.65907 2.28684-.65907 2.28684-1.31508 2.65465-1.31508 2.65464-1.68681 2.24755-1.68681 2.24754-1.98426 1.88485-1.98425 1.88485-2.05429 1.38622-2.05428 1.38622-2.40404 1.1339-2.40404 1.1339-2.38125.67119-2.38125.67118-2.38125.3096-2.38125.3096-3.3073-.15656-3.30729-.15657-2.64583-.65905-2.64583-.65905-1.63954-.64974-1.63953-.64974-1.7116-.90886-1.71159-.90887-8.778704 8.78163-8.77869 8.78163 1.19782 2.48694 1.19781 2.48694.66282 2.00667.66281 2.00667.41262 2.35895.41262 2.35896.00084 3.20648.00085 3.20649-.39458 2.2627-.39458 2.2627-.69323 2.20373-.69322 2.20373-1.05271 2.11667-1.05271 2.11666-1.22941 1.85209-1.22941 1.85208-1.98619 2.08124-1.9862 2.08123-2.21607 1.66319-2.21607 1.66319-2.45362 1.20992-2.45362 1.20993-2.07633.67778-2.07633.67778-2.22002.38714-2.22002.38714-3.73565-.0223-3.73566-.0223zm10.59389-14.68327 1.57695-.3995 2.24-1.09686 2.24-1.09686 1.99873-2.00937 1.99873-2.00936.9942-1.90488.99419-1.90487.52176-2.04005.52176-2.04006-.004-2.40507-.004-2.40507-.40413-1.7198-.40413-1.71979-.91429-1.85325-.9143-1.85325-1.12506-1.36289-1.12506-1.36289-1.31619-1.08179-1.3162-1.08179-1.72651-.9021-1.72652-.90209-1.45521-.4309-1.4552-.4309-2.40109-.16062-2.40108-.16063-2.09683.45574-2.09684.45575-2.24896 1.07306-2.24895 1.07306-2.14239 2.14608-2.14239 2.14608-1.10352 2.24896-1.10353 2.24896-.38751 1.85208-.38752 1.85208-.005 2.0082-.005 2.0082.53072 2.09284.53071 2.09285.78174 1.5875.78175 1.5875 1.3362 1.64229 1.33621 1.6423 1.65082 1.16974 1.65081 1.16975 1.10569.55718 1.10568.55719 1.80474.51458 1.80473.51459 2.78868.0188 2.78868.0188zm-62.4522203-61.9097 1.85208-.38751 2.23172-1.10015 2.23171-1.10015 2.1461603-2.14576 2.14617-2.14577.82344-1.5875.82345-1.5875.56287-1.71979.56286-1.71979.15711-2.38125.15711-2.38125-.43818-2.11667-.43819-2.11666-.77033-1.64824-.77032-1.64824-.83264-1.21019-.83263-1.21019-1.36661-1.33416-1.3666103-1.33415-1.7198-1.01505-1.71979-1.01504-1.71979-.58741-1.71979-.5874-3.05543004-.12265-3.05542996-.12265-2.09202.57393-2.09202.57394-1.86401.97272-1.8640097.97273-2.00936 1.99873-2.00937 1.99873-1.09686 2.24-1.09686 2.24-.3995 1.57695-.39951 1.57694v2.66695 2.66694l.40935 1.57695.40934 1.57694.64972 1.42263.64973 1.42264 1.20124 1.68339 1.20124 1.68339 1.61209 1.3044 1.61209 1.3044 1.6176997.81523 1.61771.81522 1.98438.51447 1.98437.51447 2.11667.01 2.11666996.01zm124.0061443-.01 1.93553-.40673 2.11919-1.02525 2.11919-1.02525 1.74419-1.59823 1.74419-1.59823 1.11885-1.71727 1.11884-1.71727.63614-1.82923.63615-1.82923.30486-2.04973.30486-2.04974-.30782-2.20033-.30781-2.20034-.51573-1.499-.51573-1.499-.82845-1.44798-.82845-1.44798-1.45216-1.56851-1.45216-1.5685-1.76074-1.15178-1.76075-1.15177-1.45521-.56492-1.4552-.56491-1.19063-.26479-1.19062-.26479-2.43438-.006-2.43437-.006-1.40208.28686-1.40209.28687-2.47596 1.18814-2.47596 1.18813-2.04275 2.03073-2.04275 2.03073-.84556 1.4987-.84556 1.4987-.51573 1.499-.51573 1.499-.30694 2.19407-.30693 2.19406.32218 2.20344.32219 2.20343.65181 1.73292.65182 1.73293 1.08497 1.66614 1.08497 1.66615 1.74419 1.59823 1.74418 1.59823 2.13313 1.03249 2.13313 1.0325 1.70586.37291 1.70586.37292 2.03322.0266 2.03322.0266zm35.75567 39.71336-1.10485-.34547-.9174-.56698-.91739-.56698-.70328-.92204-.70327-.92204-.41869-.99208-.41869-.99209-.004-1.76987-.004-1.76987.71649-1.46446.7165-1.46446 1.04328-.89301 1.04328-.89301 1.35223-.43672 1.35222-.43672h33.99942 33.99942l-.15523-.59531-.15522-.59532-.73545-2.51354-.73544-2.51354-.13236-64.69063-.13236-64.69062-.43594-.79438-.43593-.79437-.49011-.43049-.49011-.43049-.82674-.41843-.82674-.41843-43.62326-.0991-43.62326-.0991-2.50725-.44163-2.50725-.44162-3.02259-.80665-3.0226-.80665-2.67224-1.05769-2.67223-1.05769-2.24896-1.21398-2.24896-1.21398-1.89683-1.27968-1.89683-1.27967-1.67505-1.38076-1.67504-1.38076-1.61539-1.63156-1.61539-1.63156-2.56849-3.20808-2.5685-3.20808-1.954804-1.70487-1.9548-1.70488-1.54316-1.04793-1.54316-1.04794-1.86324-.94956-1.86325-.94956-1.81148-.68184-1.81148-.68184-2.13718-.57283-2.13718-.57282-36.38021-.0858-36.38021-.0858-.8655503.1574-.86555.15739-.9339.81998-.9339.81997-.44951.82062-.4495.82062-.1323 31.61771-.13229 31.61771-.72241 1.22889-.72242 1.22888-.86508.73119-.86509.7312-1.18445.52622-1.18445004.52623-1.72595996-.003-1.72597-.003-1.2447-.58863-1.24471-.58863-1.05938-1.1493-1.05939-1.1493-.47404-1.01005-.47403-1.01004v-32.14679-32.14687l.4633-1.71979.4633-1.71979 1.17639-2.38125 1.17639-2.38125 1.10013-1.32292 1.10012-1.32292 1.49352-1.27458 1.49351996-1.27459 1.67569004-.94333 1.6757-.94333 2.02847-.6925 2.02847-.6925 36.6399803-.0716 36.63998-.0716 3.04752.39968 3.04752.39969 2.71384.66047 2.71384.66046 2.57782.963 2.57783.963 2.31331 1.15905 2.313314 1.15906 1.78773 1.09055 1.78774 1.09056 2.11666 1.65452 2.11667 1.65453 1.9225 1.91852 1.9225 1.91852 2.48805 3.07371 2.48805 3.07371 1.1457 1.09359 1.1457 1.09359 1.95018 1.48965 1.95018 1.48966 2.20066 1.19958 2.20066 1.19958 2.11649.77243 2.1165.77243 2.5962.59081 2.59621.59081 44.97917.1456 44.97917.1456 2.31807.8294 2.31807.8294 1.47985.89039 1.47986.8904 1.6759 1.52988 1.6759 1.52988.90582 1.24824.90582 1.24825.71055 1.28871.71055 1.28872.71501 2.01857.71501 2.01858.13229 64.82292.1323 64.82291.57759 1.52791.57759 1.52792.9947 1.35505.9947 1.35505 1.55424 1.00455 1.55423 1.00455 1.4982.31103 1.49819.31102 1.5843-.16559 1.5843-.16559 1.59694-.7473 1.59695-.74731 1.23792-1.23792 1.23792-1.23792.71572-1.46288.71572-1.46288.21415-2.04005.21415-2.04005.0143-77.01764.0143-77.01764.8091-1.61916.8091-1.61916.84455-.7139.84454-.71391 1.19062-.53595 1.19063-.53595h1.71979 1.71979l1.21428.54412 1.21428.54412.96391.96391.96391.96391.39003.75425.39004.75425.2745 1.68896.2745 1.68895-.0178 76.2-.0178 76.2-.22343 2.65595-.22343 2.65594-.43843 1.70968-.43842 1.70968-1.16868 2.47828-1.16869 2.47827-1.35339 1.82561-1.35338 1.82562-1.818 1.65925-1.818 1.65925-2.11913 1.28108-2.11914 1.28107-2.58299.87964-2.58299.87963-1.71979.27468-1.71979.27467-46.43438-.0157-46.43437-.0157zm79.68611-210.87294-2.11667-.33692-2.11667-.57663-2.11666-.57663-2.92412-1.42382-2.92411-1.42381-2.10297-1.56745-2.10297-1.56746-2.11957-2.22476-2.11958-2.22475-1.2215-1.86057-1.2215-1.86057-.92376-1.8436-.92377-1.8436-.67608-1.98437-.67609-1.98438-.4708-2.11666-.4708-2.11667-.14453-10.84792-.14452-10.84791-82.15313-.075-82.153124-.075-2.92402.25874-2.92401.25874-1.77011.64251-1.7701.64251-1.49681.89355-1.49682.89354-1.65436 1.64229-1.65437 1.64229-.93261 1.53525-.93262 1.53525-.74195 2.11413-.74195 2.11413-.13743 11.37708-.13742 11.37708-.82081 1.45521-.82082 1.45521-1.11499.85762-1.115.85761-1.48182.43078-1.48182.43077-1.26063-.1493-1.26063-.1493-1.02218-.52148-1.02217-.52147-1.07687-1.16826-1.07686-1.16826-.56489-1.5098-.56489-1.5098.002-10.24268.002-10.24268.37908-2.51464.37908-2.51464.70615-2.24786.70615-2.24786 1.01509-2.11667 1.01509-2.11666.96722-1.45521.96721-1.45521 1.49497-1.83032 1.49497-1.83032 1.76384-1.51826 1.76385-1.51825 1.54344-1.04729 1.54345-1.04728 1.85208-.92871 1.85209-.92872 1.92255-.69056 1.92255-.69057 2.61692-.5333 2.61693-.53329 89.519904.003 89.5199.003 3.43958.38521 3.43958.38521 2.07853.3986 2.07853.3986 2.55168.6951 2.55168.6951 2.76592 1.03887 2.76591 1.03886 3.13589 1.57626 3.13588 1.57626 2.5777 1.71604 2.5777 1.71605 2.54158 2.12142 2.54159 2.12142 1.90369 2.05397 1.90369 2.05397 1.98563 2.64584 1.98564 2.64583 1.45153 2.46181 1.45153 2.46181 1.04142 2.22234 1.04142 2.22233.93868 2.5919.93868 2.59189.7774 3.175.7774 3.175.39387 2.99228.39386 2.99228.0417 3.22543.0417 3.22543-.67537 1.32495-.67536 1.32496-.7497.7497-.7497.7497-1.19656.70347-1.19655.70347-14.81667.0442-14.81667.0442zm21.14207-16.08942-.37454-1.65365-.6777-2.24896-.6777-2.24895-1.69947-3.43959-1.69947-3.43958-1.78889-2.49102-1.78889-2.49102-2.66835-2.66836-2.66836-2.66835-2.49102-1.78632-2.49102-1.78633-3.175-1.58138-3.175-1.58138-2.38125-.77427-2.38125-.77428-1.78593-.39589-1.78594-.3959v9.11309 9.11309l.41874 2.02726.41874 2.02725.74218 1.63685.74219 1.63686 1.05945 1.41796 1.05946 1.41797 1.02076.95907 1.02077.95906 1.39356.94184 1.39357.94184 1.51685.57227 1.51685.57227 1.5875.35006 1.5875.35007 9.3031.021 9.3031.021z" transform="translate(33.450624 350.3704)"/></svg>