<svg height="823.7085pt" preserveAspectRatio="xMidYMid" viewBox="0 0 823.42499 823.7085" width="823.42499pt" xmlns="http://www.w3.org/2000/svg"><g transform="matrix(.1 0 0 -.1 -188.075 1011.85)"><path d="m5595 10105c-954-96-1835-513-2510-1190-683-684-1098-1564-1190-2523-19-200-19-584 0-784 37-385 126-760 268-1123 69-177 244-521 347-683 323-508 743-934 1236-1255 570-371 1194-588 1874-653 229-22 691-14 907 15 927 127 1741 527 2388 1176 574 575 964 1297 1125 2083 63 309 75 441 75 832s-12 523-75 832c-171 833-609 1612-1230 2186-677 626-1510 1000-2419 1087-189 18-613 18-796 0zm570-735c859-47 1622-386 2220-985 795-795 1136-1904 929-3025-177-962-812-1834-1690-2319-969-536-2172-553-3159-46-649 333-1179 872-1500 1526-401 818-448 1800-128 2659 358 960 1154 1721 2128 2033 282 91 613 149 905 160 41 2 86 4 100 5s102-3 195-8z"/><path d="m5773 8074c-542-79-961-370-1039-722-36-160-4-298 87-375 55-48 116-67 210-67 156 0 234 47 399 242 136 161 200 219 295 264 231 111 541 73 711-88 96-90 136-187 136-328 0-220-98-346-463-600-382-266-517-450-549-752-26-243 39-402 189-459 83-32 252-32 335 1 129 50 183 135 197 312 20 242 99 348 429 570 221 149 311 220 403 318 119 126 194 267 233 436 29 121 26 352-4 458-125 434-517 728-1062 795-114 15-394 12-507-5z"/><path d="m5749 4807c-117-40-226-141-280-262-19-42-23-68-23-160-1-105 1-113 32-177 84-172 238-268 432-268 264 1 460 191 460 449 0 195-123 359-318 423-81 26-217 24-303-5z"/></g></svg>