<svg height="959.81976pt" preserveAspectRatio="xMidYMid" viewBox="0 0 959.25995 959.81976" width="959.25995pt" xmlns="http://www.w3.org/2000/svg"><g transform="matrix(.1 0 0 -.1 -120.61222 1119.8198)"><path d="m5755 11193c-262-16-537-52-752-98-914-197-1735-645-2393-1304-804-805-1280-1821-1392-2966-16-170-16-683 1-850 17-176 55-429 86-572 196-911 639-1726 1300-2389 830-834 1922-1328 3100-1404 100-6 939-10 2261-10 1771 0 2114 2 2176 14 337 65 595 330 648 666 8 56 10 625 8 2265-4 2416 0 2261-68 2663-126 746-428 1449-885 2057-267 356-531 628-875 901-845 672-1920 1042-2995 1032-93-1-192-3-220-5zm695-818c919-109 1738-503 2380-1145 573-573 961-1313 1104-2105 49-270 60-408 60-725 0-316-11-453-60-725-224-1248-1049-2329-2199-2881-413-198-806-310-1295-371-202-24-675-25-880 0-835 101-1554 415-2179 951-680 583-1151 1407-1315 2296-49 269-60 403-60 730s11 461 60 730c294 1600 1539 2868 3133 3189 152 31 325 56 496 71 147 13 597 4 755-15z"/><path d="m6279 9185c-112-41-212-133-247-227-12-32-183-1031-427-2498-338-2026-407-2455-402-2508 3-46 15-84 41-137 59-119 158-192 296-217 160-30 341 64 415 216 26 54 65 277 437 2505 224 1345 408 2466 408 2491 0 66-24 145-63 209-42 69-138 144-209 166-62 18-199 19-249 0z"/><path d="m4285 7986c-59-19-101-43-147-84-37-33-846-1231-893-1323-57-110-57-248 0-358 10-19 205-316 435-660 264-396 433-640 460-665 68-61 140-89 241-94 106-5 173 12 249 65 115 81 176 208 168 351-3 54-12 94-30 132-13 30-174 279-356 553l-332 497 332 497c182 274 343 523 357 553 36 80 41 192 11 280-40 119-129 210-245 251-64 22-187 25-250 5z"/><path d="m7460 7979c-108-42-177-108-228-217-24-50-27-69-27-157 0-87 3-107 26-155 14-30 175-279 357-553l332-497-339-508c-206-309-346-531-360-565-60-161 4-358 149-460 76-53 143-70 249-65 101 5 173 33 241 94 27 25 196 269 460 665 230 344 425 641 435 660 57 110 57 248 0 358-10 19-205 316-435 660-264 396-433 640-460 665-71 64-140 90-250 93-78 3-105-1-150-18z"/></g></svg>