<svg height="949.83191pt" preserveAspectRatio="xMidYMid" viewBox="0 0 949.68011 949.83191" width="949.68011pt" xmlns="http://www.w3.org/2000/svg"><g transform="matrix(.1 0 0 -.1 -125.15588 1074.9264)"><path d="m2455 10739c-373-48-713-250-942-559-105-142-191-334-235-525l-22-100-3-2490c-3-2473-3-2490 17-2555 50-161 185-260 355-260 169 0 305 99 355 259 20 62 20 89 20 2027v1964h4000 4000v-1962c0-2176-5-2023 67-2127 46-67 104-112 180-141 83-31 215-25 290 13 101 52 167 132 197 238 15 50 16 288 13 2545l-3 2489-22 97c-137 594-598 1014-1192 1088-107 13-6972 12-7075-1zm327-776c82-39 142-99 182-183 28-58 31-75 31-155s-3-97-31-155c-40-83-102-145-184-184-58-28-75-31-155-31s-97 3-155 31c-83 39-145 101-184 184-28 58-31 75-31 155 0 78 4 98 28 150 90 194 310 276 499 188zm1249 0c81-38 143-100 183-183 28-58 31-75 31-155s-3-97-32-157c-39-82-99-142-183-182-58-28-75-31-155-31s-97 3-155 31c-212 101-284 356-155 549 102 151 301 206 466 128zm5499 1c82-39 144-101 184-184 28-58 31-75 31-155s-3-97-31-155c-39-83-101-145-184-184l-65-31h-2090-2090l-60 28c-79 37-156 114-192 191-24 53-28 73-28 151 0 80 3 97 31 155 49 102 128 171 239 206 32 10 458 12 2115 11l2075-2z"/><path d="m4072 6749c-124-16-247-111-295-229-22-55-22-56-25-775l-3-720-398-399-399-399-97 13c-241 32-452-37-623-203-74-72-109-119-156-213-55-111-70-181-70-329 0-120 3-137 32-222 44-128 84-195 173-288 102-106 219-175 369-217 59-16 282-16 340 1 230 66 400 201 494 392 76 156 98 280 76 444l-13 97 485 486c419 421 488 494 509 542l24 55 3 814c2 711 1 821-13 874-47 185-220 300-413 276z"/><path d="m5270 6741c-86-28-162-86-208-159-66-103-62-8-62-1606v-1451l-403-401-402-402-65 14c-125 26-282 10-411-42-175-71-336-229-407-399-46-111-57-165-56-300 0-120 3-137 33-225 42-123 102-218 193-306 303-292 765-283 1058 22 160 167 233 394 200 624l-13 90 477 478c423 423 481 484 509 542l32 65 3 1569c3 1733 6 1625-60 1728-37 59-83 100-151 135-44 23-67 27-147 30-52 1-106-1-120-6z"/><path d="m6520 6741c-83-26-162-85-208-159-66-103-63 5-60-1729l3-1570 35-68c31-59 92-124 509-541l474-473-13-91c-23-160-1-292 77-450 39-80 60-109 137-186s106-98 186-137c202-99 385-112 591-42 97 33 181 87 267 169 91 88 151 183 193 306 31 89 33 104 33 230s-2 141-32 229c-42 122-89 198-176 289-176 182-434 267-666 218l-65-14-402 402-402 401-1 1445c0 1607 4 1515-68 1620-73 107-178 161-310 159-42 0-88-4-102-8z"/><path d="m7770 6741c-84-26-172-94-213-164-59-100-58-79-55-973l3-819 24-55c21-48 90-121 509-542l485-486-13-97c-22-164 0-288 76-444 94-191 264-326 494-392 58-17 281-17 340-1 148 41 269 112 371 220 82 85 123 151 162 257 101 282 31 583-184 792-173 167-391 237-630 203l-90-13-400 399-399 399v701c0 675-1 704-20 765-51 162-187 260-358 258-42 0-88-4-102-8z"/></g></svg>