<svg height="771.19922pt" preserveAspectRatio="xMidYMid" viewBox="0 0 881.40002 771.19922" width="881.40002pt" xmlns="http://www.w3.org/2000/svg"><path d="m2139 9731c-104-33-182-101-226-197-45-98-148-659-187-1019-32-297-39-431-39-755 0-350 13-562 53-840 198-1360 870-2462 1945-3189 776-525 1664-821 2705-902 256-20 667-16 845 9 669 91 1279 384 1741 834l71 69 30-68c114-254 209-582 268-923 61-347 72-384 146-485 92-127 231-207 388-225 334-37 622 219 622 554 0 74-7 121-41 251-109 427-232 762-411 1115-115 227-177 328-393 634-6 9 5 45 33 110 24 54 67 170 96 259 264 800 179 1686-231 2431-311 564-789 1018-1364 1295-243 117-458 190-717 245-433 91-927 87-1993-19-848-85-1207-88-1563-14-437 91-879 318-1337 689-130 105-165 127-235 145-76 19-136 18-206-4zm519-1110c428-258 842-413 1289-481 217-33 417-43 703-37 258 6 365 14 1000 76 689 67 1144 87 1416 60 535-52 1033-284 1416-661 380-373 615-846 689-1388 20-139 16-458-6-605-15-105-78-382-89-392-2-2-53 32-112 76-389 285-885 518-1435 674-279 80-458 122-1004 236-706 148-914 202-1184 308-271 106-433 206-602 373-113 111-127 130-266 350-41 65-83 90-152 90-102 0-180-65-189-158-5-61 6-98 74-234 200-403 534-700 1056-939 264-121 539-217 1327-464 512-161 773-260 1086-415 236-116 450-251 630-395 119-95 315-286 315-307 0-18-230-245-327-321-256-203-575-359-897-438-216-52-324-64-611-63-1267 5-2430 447-3217 1225-657 649-1027 1489-1120 2539-16 181-16 700 0 880 16 177 54 500 59 500 2 0 70-40 151-89z" transform="matrix(.1 0 0 -.1 -168.7 974.84322)"/></svg>