<svg height="999.77124pt" preserveAspectRatio="xMidYMid" viewBox="0 0 799.276 999.77124" width="799.276pt" xmlns="http://www.w3.org/2000/svg"><path d="m5775 10994c-22-2-96-9-165-15-166-14-381-51-560-95-1322-325-2392-1303-2833-2590-95-278-156-548-193-859-22-183-25-650-6-820 86-751 344-1367 837-2000 105-135 264-318 534-613 418-457 508-562 606-707 89-131 107-174 144-341 17-76 58-263 91-414 156-709 175-782 241-912 59-119 113-194 213-294 177-176 385-283 626-319 138-21 1242-21 1380 0 168 25 324 86 471 185 82 55 233 207 288 287 51 76 111 197 139 278 24 72 89 354 212 915 97 443 105 469 196 605 86 130 219 286 548 644 408 444 577 644 744 878 576 810 803 1723 676 2718-111 867-520 1687-1155 2317-641 635-1458 1026-2369 1133-126 15-575 28-665 19zm635-769c383-51 709-151 1040-316 206-103 333-182 513-318 620-465 1056-1154 1217-1919 53-251 64-371 64-672 0-205-4-308-17-403-67-497-225-898-519-1319-168-241-341-440-703-808-148-151-304-313-346-360-163-182-293-367-376-535l-37-75h-1246-1245l-48 94c-122 241-284 440-692 856-390 397-552 583-732 840-191 274-334 568-418 856-132 452-150 1003-49 1506 72 363 233 768 428 1076 252 398 642 788 1029 1029 452 280 934 437 1497 487 99 9 530-4 640-19zm630-7490c0-8-36-177-80-376-53-239-89-376-105-407-48-92-114-148-212-181-60-20-81-21-643-21s-583 1-643 21c-98 33-164 89-213 182-17 33-50 164-105 410-44 199-82 368-84 375-3 9 209 12 1040 12 923 0 1045-2 1045-15z" transform="matrix(.1 0 0 -.1 -200.54403 1099.6962)"/></svg>