<svg height="35.11665mm" viewBox="0 0 79.08287 35.11665" width="79.08287mm" xmlns="http://www.w3.org/2000/svg"><path d="m73.074548 113.16456c-8.240707 0-11.096861 2.57522-11.096861 9.45809v15.21721c0 .70233.327755 1.03009 1.030088 1.03009h4.588576c.702333 0 1.030088-.32776 1.030088-1.03009v-13.57844c0-3.97988 1.076911-5.15044 5.10362-5.15044h12.454705c3.886243 0 4.822687.98327 4.822687 5.15044v13.57844c0 .70233.374578 1.03009 1.030088 1.03009h4.588576c.702333 0 1.030089-.32776 1.030089-1.03009v-15.21721c0-6.88287-2.856155-9.45809-11.143684-9.45809zm33.665202-9.41126c-.70234 0-1.03009.32775-1.03009 1.03009v24.62847c0 6.97651 2.90297 9.45809 11.09686 9.45809h13.11022c8.19388 0 11.14368-2.48158 11.14368-9.45809v-6.78921c0-6.97651-2.9498-9.45809-11.14368-9.45809h-17.55833v-8.38117c0-.70234-.32775-1.03009-1.03009-1.03009zm5.61866 15.21721h16.90282c4.07353 0 5.15044 1.03009 5.15044 4.96316v4.16717c0 3.97989-1.07691 4.96316-5.15044 4.96316h-11.7992c-4.02671 0-5.10362-.98327-5.10362-4.96316z" fill="#2a84f8" stroke-miterlimit="0" stroke-width="4.42415" transform="translate(-61.977636 -103.7533)"/></svg>

