<svg height="918.35602pt" preserveAspectRatio="xMidYMid" viewBox="0 0 599.39911 918.35602" width="599.39911pt" xmlns="http://www.w3.org/2000/svg"><g transform="matrix(.1 0 0 -.1 -300.10091 1068.5319)"><path d="m5841 10680c-738-77-1340-615-1491-1332-39-186-41-292-37-1658 3-1186 5-1323 20-1400 46-228 116-418 217-587 247-412 635-688 1116-795 146-32 522-32 668 0 750 167 1276 758 1345 1512 14 152 15 2561 1 2719-32 359-161 669-396 951-242 291-615 506-990 570-133 23-338 32-453 20zm367-765c174-42 326-127 453-254 124-124 200-258 251-441l23-85v-1350-1350l-23-89c-81-321-317-577-622-674-104-33-178-45-290-45-234 0-432 74-619 232-128 108-248 307-293 486l-23 90v1350c0 1257 1 1355 18 1419 26 101 72 211 125 296 62 101 205 242 310 304 92 54 244 110 342 125 84 13 267 5 348-14z"/><path d="m3280 6455c-160-45-266-176-277-343-13-188 39-531 117-775 194-606 629-1143 1213-1499 339-206 717-345 1127-414 85-14 158-31 162-38 4-6 8-264 8-573v-562l-702-3-703-3-67-32c-81-38-146-102-185-181-25-51-28-68-28-157 0-90 3-106 28-158 52-105 152-183 265-207 31-7 649-9 1792-8l1745 3 65 31c133 63 210 177 217 319 7 136-52 256-161 329-100 66-94 66-848 66h-678v574 575l58 6c157 19 423 80 602 139 199 65 452 182 636 294 813 495 1322 1334 1328 2187l1 160-33 67c-66 136-187 211-337 211-148 0-271-76-336-208-29-58-32-75-40-210-10-168-31-303-66-425-227-789-973-1371-1898-1479-135-16-464-14-602 4-431 57-824 213-1150 459-329 247-575 581-691 936-60 183-78 285-91 508-8 131-12 149-40 207-79 159-265 246-431 200z"/></g></svg>