<svg height="899.54285pt" preserveAspectRatio="xMidYMid" viewBox="0 0 899.04999 899.54285" width="899.04999pt" xmlns="http://www.w3.org/2000/svg"><path d="m2620 10494c-14-2-59-9-100-15-102-15-247-62-355-116-336-167-560-469-642-863-22-106-24-370-4-480 30-167 111-367 204-505 59-86 196-225 281-283 366-254 832-300 1244-125l83 36 269-269c148-148 270-272 270-276s-25-46-56-95c-130-206-234-457-281-682-23-110-26-150-27-316 0-202 10-281 59-462 51-189 150-403 277-595 39-58 70-110 68-115-1-4-75-89-164-188-335-371-457-505-460-505-1 0-39 13-84 30-147 54-268 73-452 74-221 1-378-33-566-120-174-82-371-251-468-402-149-231-211-442-211-722 0-238 39-402 141-600 68-131 130-214 232-311 165-159 373-264 617-315 110-22 371-25 485-5 258 46 484 162 661 340 235 236 353 529 354 876 0 202-25 312-123 533l-45 103 35 37c30 32 191 209 526 579l82 91 111-64c250-142 503-227 764-255 138-14 229-7 375 30 63 17 118 27 122 23s79-171 166-372c88-201 171-390 185-422l25-56-67-45c-139-92-269-293-340-523-45-147-56-223-56-394s11-247 56-394c145-473 535-789 1045-847 232-26 500 18 709 117 538 254 805 890 630 1499-30 105-95 246-160 346-60 92-198 235-290 299-143 98-341 180-515 211-66 12-273 18-299 9-14-5-53 80-320 692l-69 156 72 49c104 71 234 182 322 276 62 67 214 264 242 314 6 9 109-13 413-88l406-101 6-107c14-246 80-447 214-656 55-84 214-246 300-304 138-92 307-161 483-198 103-21 381-24 480-5 181 35 373 115 516 214 85 58 222 197 281 283 91 134 163 310 200 485 24 118 24 382 0 500-109 519-464 875-977 977-105 21-371 23-480 4-167-30-364-109-500-201-88-60-213-181-241-235-13-25-30-45-37-45-21 0-787 192-795 200-5 4 5 63 22 131 34 134 37 194 20 347-20 189-77 401-155 585-19 44-33 81-32 82 11 7 548 395 742 535 165 119 243 170 251 164 194-141 376-225 585-270 116-25 377-25 510-1 570 105 979 516 1086 1092 26 138 26 382 0 520-81 434-331 777-704 965-200 100-396 144-647 144-253 0-443-43-646-145-561-282-845-936-682-1574 14-55 26-106 27-114 0-8-66-63-149-123-413-300-790-574-802-581-9-5-36 12-80 50-530 455-1235 607-1844 398-134-47-296-124-433-208-59-37-111-67-115-67-3 0-128 123-278 273l-272 274 41 94c22 52 54 146 71 209 27 104 30 130 31 275 1 133-3 178-22 264-87 388-305 679-633 843-99 49-228 93-333 113-79 16-336 28-386 19zm279-759c258-61 405-340 331-629-59-233-225-356-480-356-91 0-193 21-251 51-68 34-156 125-189 194-61 129-75 264-40 399 47 183 166 305 334 341 83 18 217 18 295 0zm6441-10c130-40 247-131 314-245 153-260 119-604-80-810-109-114-216-158-404-167-222-11-371 39-493 166-238 246-235 680 8 923 80 79 189 133 310 152 65 10 290-3 345-19zm-3647-1990c452-68 832-383 985-815 53-150 67-238 67-420s-14-270-67-420c-153-434-531-746-990-816-129-20-335-13-458 15-525 120-899 532-971 1069-23 174 3 407 66 582 125 346 407 625 755 748 76 27 194 55 275 65 74 10 249 6 338-8zm3698-1999c90-19 154-54 217-118 190-191 187-556-6-740-32-30-77-65-101-77-134-69-381-66-513 6-63 34-137 109-172 173-36 66-66 189-66 270 0 236 136 428 340 482 80 21 213 22 301 4zm-6492-1751c88-21 151-58 215-125s91-117 117-217c60-235-39-496-223-589-142-72-384-71-518 2-187 102-281 352-220 588 45 179 156 295 320 338 82 21 225 22 309 3zm4249-750c87-21 148-54 208-115 65-65 99-127 124-226 60-235-33-486-218-587-137-74-386-75-522-1-187 102-280 353-220 588 45 176 158 295 320 338 81 21 225 23 308 3z" transform="matrix(.1 0 0 -.1 -150.5 1049.7087)"/></svg>