<svg height="679.80023pt" preserveAspectRatio="xMidYMid" viewBox="0 0 1039.6134 679.80023" width="1039.6134pt" xmlns="http://www.w3.org/2000/svg"><g transform="matrix(.1 0 0 -.1 -80.575 919.9219)"><path d="m1880 9194c-14-2-56-9-95-15-226-37-455-158-631-333-170-170-275-363-331-608-23-102-23-374 0-476 106-463 434-806 885-924 107-28 131-31 282-31 133-1 183 3 260 20 234 52 427 158 596 327 156 156 260 338 316 554 29 108 31 130 31 287 0 181-9 246-58 391-97 288-321 546-595 684-165 83-306 118-500 124-74 3-146 3-160 0z"/><path d="m4690 9184c-337-91-398-552-95-729 100-59-121-55 3231-53l3069 3 58 23c82 34 176 123 212 203 103 231-18 491-260 553-53 14-384 16-3110 15-2652 0-3057-2-3105-15z"/><path d="m4690 7584c-109-29-199-103-250-204-114-226 11-502 256-565 54-14 308-15 2330-13l2269 3 58 23c82 34 176 123 212 203 103 231-18 491-260 553-53 14-307 16-2310 15-1948 0-2257-2-2305-15z"/><path d="m1880 4794c-14-2-56-9-95-15-226-37-455-158-631-333-170-170-275-363-331-608-23-102-23-374 0-476 106-463 434-806 885-924 107-28 131-31 282-31 133-1 183 3 260 20 234 52 427 158 596 327 156 156 260 338 316 554 29 108 31 130 31 287 0 181-9 246-58 391-97 288-321 546-595 684-165 83-306 118-500 124-74 3-146 3-160 0z"/><path d="m4690 4784c-337-91-398-552-95-729 100-59-121-55 3231-53l3069 3 58 23c82 34 176 123 212 203 103 231-18 491-260 553-53 14-384 16-3110 15-2652 0-3057-2-3105-15z"/><path d="m4690 3184c-109-29-199-103-250-204-114-226 11-502 256-565 54-14 308-15 2330-13l2269 3 58 23c82 34 176 123 212 203 103 231-18 491-260 553-53 14-307 16-2310 15-1948 0-2257-2-2305-15z"/></g></svg>