<svg height="1053.2252pt" preserveAspectRatio="xMidYMid" viewBox="0 0 851.91974 1053.2252" width="851.91974pt" xmlns="http://www.w3.org/2000/svg"><path d="m6013 11213c-247-332-415-768-463-1198-13-118-13-386 0-516 61-606 442-1133 1107-1533l62-37 3-122c4-146-9-642-20-782l-8-100-72 144c-121 239-214 389-347 556-199 251-413 431-654 551-201 99-430 169-676 206-131 19-592 16-760-5-175-22-386-61-536-100l-124-32 3-49c9-184 121-558 238-801 320-664 918-1131 1635-1279 164-34 558-69 948-86 129-6 236-11 237-13 5-5-80-434-121-608-79-335-193-714-306-1011-72-191-62-185-121-81-338 590-838 1017-1473 1256-202 76-433 135-675 174-158 25-494 25-630 0-240-45-453-116-685-232-155-76-362-201-379-228-13-21 77-294 157-472 321-718 820-1181 1442-1340 200-51 289-60 575-59 450 1 862 69 1303 214 83 27 153 47 155 45 6-6-154-284-251-437-414-650-960-1162-1590-1488-558-289-1126-436-1831-472l-236-12v-263-264l98 5c53 3 158 8 232 11 328 14 715 73 1045 160 532 140 1042 381 1479 699 205 149 330 258 552 480 282 282 456 494 659 801 115 174 253 411 343 592l31 61 54-29c29-15 107-51 172-79 408-176 882-278 1425-310 324-18 498-11 708 30 571 113 1120 536 1517 1170 78 124 210 368 204 375-18 17-190 115-287 164-465 233-1002 360-1524 361-532 0-1006-180-1493-569-117-93-359-326-465-446-29-33-49-51-45-40 195 542 340 1114 428 1690l23 150 250 6c848 21 1540 232 2010 612 162 131 376 375 513 587 133 205 254 497 301 730 28 135 40 400 19 417-21 16-267 33-495 33-451 0-856-69-1194-202-467-185-792-502-1083-1058-72-138-176-371-227-508-12-34-24-61-26-59s0 48 6 103c17 172 39 550 46 794l6 235 54 86c143 228 281 591 343 900 39 196 52 314 58 536 6 251-8 394-57 563-92 319-252 580-517 842-233 231-527 430-853 579-177 80-158 80-217 2zm386-640c196-126 396-309 525-480 124-165 218-386 247-583 15-106 6-448-16-585-30-196-131-555-163-587-5-5-53 17-113 54-282 170-529 402-675 634-132 212-185 417-185 729 0 300 57 564 177 823l44 94 37-23c21-12 76-47 122-76zm-1428-2681c319-58 558-181 780-401 172-171 301-355 432-617 58-116 157-343 157-360 0-12-391 15-660 46-180 21-310 51-459 106-450 168-794 479-1010 913-63 125-127 288-118 297 5 6 159 29 247 37 25 3 151 3 280 2 186-2 259-7 351-23zm4674 6c-88-296-343-669-610-891-189-158-473-296-785-380-183-50-565-117-599-106-22 8 152 380 264 564 221 363 431 548 777 681 224 87 573 149 851 153 108 1 108 1 102-21zm-5819-2628c666-102 1210-404 1587-881 96-122 191-269 180-279-13-13-295-95-443-128-382-87-868-116-1135-67-486 88-890 425-1166 972-37 73-71 146-77 162l-10 29 89 41c162 74 408 149 539 164 106 12 310 6 436-13zm5184-544c152-23 248-43 395-83 138-37 375-121 375-132-1-12-122-175-190-256-278-328-601-539-950-622-250-59-808-33-1252 57-126 26-415 104-427 116-7 6 67 91 188 217 293 305 593 512 911 630 87 32 273 79 360 91 73 9 488-3 590-18z" transform="matrix(.1 0 0 -.1 -192 1127.1252)"/></svg>