<svg height="959.46082pt" preserveAspectRatio="xMidYMid" viewBox="0 0 959.3299 959.46082" width="959.3299pt" xmlns="http://www.w3.org/2000/svg"><g transform="matrix(.1 0 0 -.1 -120.45 1079.9358)"><path d="m7402 10789c-30-5-88-21-130-35-168-55-147-37-1035-923-931-929-882-872-882-1031 0-76 3-93 33-152 41-84 120-158 200-188 47-18 72-21 147-18 144 7 151 11 520 377 288 286 326 320 385 346 57 26 77 30 161 30 90 0 99-2 171-37 91-45 147-103 191-196 29-61 32-76 32-162 0-87-3-101-33-164-26-57-57-94-167-206-162-164-180-197-179-315 0-63 5-89 23-125 51-99 144-165 249-176 84-9 152 14 238 79 89 67 158 97 242 104 170 14 319-75 396-236 28-60 31-75 31-161s-3-101-31-160c-17-36-48-85-69-110-61-73-80-123-79-215 0-92 21-143 83-208 59-63 123-90 211-91 138-2 132-5 515 374 367 364 385 378 509 401 262 48 505-195 457-457-24-129-23-129-576-684-582-584-566-564-573-715-3-75 0-100 18-147 30-80 104-159 187-200 59-29 75-32 153-32 160 0 102-51 1031 881 888 889 867 867 924 1037 59 176 57 358-6 530-64 177-24 134-1387 1499-692 692-1286 1282-1322 1311-181 149-413 212-638 175z"/><path d="m4550 8059c-105-21-123-36-672-587-568-570-579-582-632-742-63-190-60-361 10-549 50-134 107-206 399-501 247-250 275-282 309-350 62-128 78-245 51-375-30-142-108-261-261-398-165-148-338-265-879-592-409-248-569-351-739-479-448-337-807-870-912-1357-26-117-26-367 0-459 61-223 215-377 441-442 111-31 323-31 471 0 382 82 803 328 1139 666 187 188 344 409 660 931 416 688 564 897 748 1054 188 161 414 192 640 89 66-30 94-55 352-309 307-303 374-355 521-408 172-63 354-65 530-6 165 55 174 62 746 633 564 563 566 565 589 689 15 81 3 163-37 241-31 62-161 194-1596 1629-1241 1239-1573 1566-1613 1586-87 43-171 54-265 36zm-1986-5297c91-42 149-100 194-190 35-72 37-81 37-172s-2-100-37-172c-45-91-103-147-196-191-61-29-76-32-162-32s-101 3-162 32c-93 44-151 100-196 191-35 72-37 81-37 171 0 87 3 102 32 163 40 85 97 147 172 186 78 42 122 52 213 48 61-3 92-11 142-34z"/></g></svg>