<svg height="711.22247pt" preserveAspectRatio="xMidYMid" viewBox="0 0 862.0047 711.22247" width="862.0047pt" xmlns="http://www.w3.org/2000/svg"><g transform="matrix(.1 0 0 -.1 -168.99533 955.72245)"><path d="m2615 9544c-396-71-731-356-863-734-66-189-62-11-62-2810 0-2229 2-2548 15-2626 40-233 146-437 313-604 148-146 312-241 520-298l97-27h3365 3365l97 27c442 122 757 463 833 902 13 78 15 397 15 2626s-2 2548-15 2626c-76 439-391 780-833 902l-97 27-3335 2c-2857 1-3346-1-3415-13zm6736-771c79-39 140-102 177-181l27-57 3-1645c1-905 1-1872 0-2148l-3-504-24 21c-13 11-148 132-300 269-1362 1228-1465 1319-1534 1361-31 18-96 47-144 65-84 29-95 31-238 31-130 0-159-3-219-23-94-32-172-72-237-123-45-36-420-372-774-695-474-431-758-683-765-679-4 3-174 147-376 321-203 173-398 333-434 354s-100 50-143 65c-261 87-529 31-745-154-396-341-687-591-895-772-137-117-257-220-268-228-19-13-19 14-17 2235l3 2249 26 56c47 100 130 172 232 205 34 10 627 12 3312 11l3270-2z"/><path d="m4204 7679c-307-47-552-276-625-584-20-86-16-259 9-348 71-250 251-440 497-523 115-39 277-45 395-15 272 68 468 253 552 521 20 64 23 95 23 215-1 127-3 148-29 220-68 196-192 344-366 435-136 70-314 101-456 79z"/></g></svg>