<svg height="908.28583pt" preserveAspectRatio="xMidYMid" viewBox="0 0 908.48322 908.28583" width="908.48322pt" xmlns="http://www.w3.org/2000/svg"><path d="m7383 10590c-148-21-297-74-423-152-98-60-246-201-309-296-184-274-229-620-120-928 39-110 59-151 116-233 24-35 43-64 41-65-2-2-106-81-233-177-126-96-316-239-422-319-105-80-343-260-528-400s-342-259-349-264c-8-6-44 5-102 32-167 75-372 135-579 169-137 22-516 25-640 5-140-23-308-63-375-90-148-59-301-173-389-289-205-273-254-621-132-928 70-174 92-199 779-887l636-638-30-32c-41-44-888-967-1034-1128-63-69-214-234-335-366-121-131-373-405-560-609-187-203-444-484-572-623s-244-272-258-295c-132-226-2-506 258-558 76-16 174 1 244 41 28 16 165 134 305 262 139 129 636 584 1103 1013 468 429 936 858 1040 954 105 96 269 247 365 335 96 87 192 175 213 195l37 35 643-640c385-384 664-655 698-677 231-150 471-197 729-142 359 77 622 335 714 700 49 198 61 303 61 545 0 169-5 253-18 335-34 204-96 417-171 582-20 44-36 83-36 86s86 120 192 259c105 139 261 345 347 458 85 113 209 277 276 365s174 228 237 311l115 152 83-54c305-195 689-215 1015-54 513 253 727 867 480 1379-26 52-67 124-92 160-62 88-2150 2181-2258 2263-103 78-254 152-377 183-110 27-286 39-385 25zm253-769c41-18 228-201 1106-1079 875-875 1061-1066 1080-1107 33-73 31-181-5-251-73-143-250-204-388-134-24 13-109 86-189 165-92 90-164 152-196 168-156 79-333 44-450-88-29-33-138-172-241-310-104-137-409-540-678-895s-537-708-595-785c-120-159-141-200-148-301-6-99 10-155 80-275 161-278 226-529 215-839-5-164-33-328-64-380-49-84-173-113-258-60-16 10-758 747-1647 1637-1488 1490-1617 1622-1628 1663-22 83 9 169 74 210 94 58 440 87 654 56 201-30 378-92 557-196 55-32 124-66 153-75 70-23 188-17 256 13 27 13 137 89 243 170 107 81 290 219 406 307 1169 884 1508 1142 1540 1174 114 109 143 289 70 435-17 33-75 101-168 196-80 81-152 164-165 189-81 161 15 365 195 412 48 13 138 3 191-20z" transform="matrix(.1 0 0 -.1 -151.27812 1059.5889)"/></svg>