<svg height="1099.6191pt" preserveAspectRatio="xMidYMid" viewBox="0 0 947.01031 1099.6191" width="947.01031pt" xmlns="http://www.w3.org/2000/svg"><g transform="matrix(.1 0 0 -.1 -200.5 1099.6192)"><path d="m2972 10989c-386-50-748-335-891-704-22-55-48-138-58-185-17-81-18-251-18-4100 0-3834 1-4019 18-4100 25-119 93-280 162-386 108-167 302-334 480-414 88-39 219-76 318-90 50-6 455-10 1131-10 1171 0 1122-3 1226 68 66 45 111 103 140 179 31 82 26 205-12 284-48 103-126 170-237 203-49 14-169 16-1107 16-1025 0-1054 1-1115 20-119 37-203 123-241 242-17 58-18 195-18 3988 0 3903 0 3928 20 3991 37 119 123 203 242 241 57 17 142 18 2024 18h1964l2-982 3-983 29-62c35-76 113-153 193-191l58-27 983-3 982-2v-839c0-812 1-841 20-902 50-160 186-259 355-259 170 0 305 99 355 260 20 64 20 85 18 1260l-3 1195-33 70c-31 67-79 116-1070 1107s-1040 1039-1107 1070l-70 33-2340 1c-1287 1-2368-2-2403-7zm5393-1629 610-610h-613-612v610c0 336 1 610 3 610 1 0 277-274 612-610z"/><path d="m8925 5467c-22-8-58-23-80-35-24-12-260-241-591-574-627-629-598-593-599-753 0-81 3-97 31-155 40-83 102-145 184-184 59-28 74-31 155-30 58 1 106 7 135 18l44 17 242-243 243-243-572-547c-894-854-1126-1076-1362-1302-121-116-265-254-320-306-364-346-401-393-432-548-31-152 20-322 131-435 105-106 204-147 358-147 115 0 191 21 276 77 48 32 538 539 2148 2225l369 386 242-241 243-242-21-65c-57-180 28-372 199-453 60-29 76-32 157-32 160 1 124-28 753 599 640 638 617 609 617 776 0 87-3 101-32 161-63 127-175 200-318 207-64 3-92 0-140-17l-60-21-782 782-783 783 21 55c17 45 20 71 17 145-4 76-9 99-35 150-38 74-105 138-181 173-68 31-192 40-257 19z"/></g></svg>