<svg height="575.51642pt" preserveAspectRatio="xMidYMid" viewBox="0 0 959.68549 575.51642" width="959.68549pt" xmlns="http://www.w3.org/2000/svg"><path d="m5065 9097c-53-25-110-81-126-126-6-14-42-179-80-366-39-187-112-545-164-795s-160-774-240-1165c-80-390-158-771-174-845l-28-135-15 35c-8 19-106 282-219 583-220 591-226 604-313 649-30 16-59 22-106 22-74 0-125-22-175-74-17-17-120-212-240-453l-211-422-434-5-435-5-20 25c-11 14-46 51-78 83-269 270-741 109-800-273-48-312 231-591 542-543 125 19 230 82 311 185l39 48 543 3c537 2 543 2 584 24 67 36 99 83 222 329 64 129 119 234 122 234s124-320 270-711c285-765 285-765 374-811 54-29 155-31 206-4 49 25 88 64 111 109 11 20 47 169 80 330 33 160 93 454 134 652 313 1525 397 1930 399 1933 2 1 6-12 10-30 269-1491 729-4015 737-4046 16-58 77-124 141-152 93-40 201-12 269 69 28 32 128 283 524 1315 273 712 493 1270 497 1263s115-302 248-656c132-354 249-660 259-680 42-81 117-125 211-125 70 0 114 16 163 63 16 14 150 221 299 459l270 432h567 566l24-36c66-97 198-178 320-197 314-48 596 235 543 546-54 317-387 495-675 359-67-31-149-100-188-156l-24-35-665-3c-660-3-665-3-705-25-22-11-52-34-67-50-14-15-104-152-198-303-95-151-173-276-175-278-1-2-121 313-265 700s-273 728-287 758c-47 106-117 154-223 154-100 0-172-46-217-139-11-22-217-554-459-1183-367-956-440-1138-447-1115-4 15-185 1009-402 2208s-400 2199-406 2222c-35 132-202 209-324 150z" transform="matrix(.1 0 0 -.1 -120.15928 911.71157)"/></svg>