<svg height="900pt" preserveAspectRatio="xMidYMid" viewBox="0 0 899.87213 900" width="899.87213pt" xmlns="http://www.w3.org/2000/svg"><g transform="matrix(.1 0 0 -.1 -150.12786 1050)"><path d="m2455 10486c-236-37-447-146-621-320-111-111-193-234-250-375-82-204-77-134-82-1241-2-688 0-1009 8-1065 35-253 144-472 324-651 177-177 386-283 626-319 141-22 1940-22 2083 0 238 36 445 142 623 319 148 147 242 311 302 526l27 95 3 991c3 1080 2 1100-53 1269-113 347-397 629-739 734-163 50-183 51-1211 50-715-1-980-4-1040-13zm2033-754c119-38 205-122 242-241 19-61 20-90 20-990 0-818-2-934-16-982-35-121-124-213-241-249-63-19-90-20-993-20-875 0-932 1-988 18-107 34-184 102-236 212-21 45-21 49-24 985-2 706 0 955 9 998 25 120 123 227 244 266 58 19 97 20 992 20 879 1 935 0 991-17z"/><path d="m3000 8500v-500h500 500v500 500h-500-500z"/><path d="m7449 10485c-238-40-443-146-615-319-185-186-290-400-324-659-7-55-10-405-8-1067l3-985 27-95c60-215 154-379 302-526 175-176 386-283 626-319 141-22 1940-22 2083 0 416 63 770 365 902 770 54 168 55 181 55 1207 0 607-4 975-11 1025-33 248-144 470-323 649-178 177-385 283-623 319-134 20-1974 20-2094 0zm2039-753c119-38 205-122 242-241 19-61 20-90 20-991 0-875-1-932-18-988-38-119-122-205-241-242-61-19-90-20-991-20s-930 1-991 20c-81 26-150 76-193 143-69 105-67 59-64 1108l3 944 23 58c40 99 150 192 256 218 17 4 450 7 963 8 879 1 935 0 991-17z"/><path d="m8000 8500v-500h500 500v500 500h-500-500z"/><path d="m2450 5485c-156-25-322-92-461-185-98-66-238-212-308-320s-131-255-158-380c-17-79-18-155-18-1100 0-1146-4-1087 79-1291 152-376 497-644 899-698 50-7 416-11 1020-11 1007 0 1044 2 1202 51 342 105 626 387 740 734 55 169 56 189 53 1269l-3 991-27 95c-120 427-415 719-842 833-80 21-92 21-1086 23-809 2-1022 0-1090-11zm2043-755c117-36 206-128 241-249 14-48 16-164 16-982 0-874-1-931-18-987-38-119-122-205-241-242-61-19-90-20-991-20s-930 1-991 20c-125 39-223 145-248 267-9 43-11 292-9 998 3 936 3 940 24 985 52 108 128 177 233 211 52 17 121 18 987 18 908 1 934 0 997-19z"/><path d="m3000 3500v-500h500 500v500 500h-500-500z"/><path d="m6500 4816c0-447 3-685 10-688 5-1 314-2 685 0l675 2v685 685h-685-685z"/><path d="m9130 4816c0-539 3-685 13-687 6-2 315-3 685-1l672 2v685 685h-685-685z"/><path d="m7880 3500v-620h620 620v620 620h-620-620z"/><path d="m6500 2185v-685h685 685v685 685h-685-685z"/><path d="m9128 2185 2-685h685 685v685 685h-687-688z"/></g></svg>