<svg height="999.16858pt" preserveAspectRatio="xMidYMid" viewBox="0 0 799.37213 999.16858" width="799.37213pt" xmlns="http://www.w3.org/2000/svg"><g transform="matrix(.1 0 0 -.1 -200.12786 1099.6686)"><path d="m4257 10985c-176-30-348-102-486-205-114-84-1467-1437-1551-1551-112-151-186-338-210-529-8-66-10-295-8-755l3-660 27-58c38-80 115-158 191-193 62-29 63-29 295-32l232-4v-248-248l-233-4-233-3-65-32c-80-39-150-111-187-191l-27-57v-2000c0-1892 1-2005 18-2090 114-562 539-987 1104-1102 83-17 239-18 2873-18 2651 0 2789 1 2875 18 422 85 777 352 969 727 67 132 98 217 128 356l23 109v3785 3785l-23 109c-51 239-153 446-306 621-78 90-73 84-142 145-168 148-387 258-622 312l-97 22-2235 2c-1809 2-2250 0-2313-11zm4506-751c211-47 383-202 454-409l28-80v-3740c0-3175-2-3748-14-3790-47-168-175-326-321-397-152-74 84-68-2913-68-2662 0-2695 0-2773 20-120 31-198 74-285 160-81 80-123 146-161 250l-23 65-3 1752-2 1751 232 4c232 3 233 3 295 32 76 35 153 113 191 193l27 58v715 715l-27 57c-37 80-107 152-187 191l-65 32-234 3-233 4 3 451 3 452 32 67c29 62 81 117 721 756 418 418 708 700 736 717 97 57-43 54 2289 54 1938 1 2165-1 2230-15z"/><path d="m4520 9741c-83-26-162-85-208-159-63-98-62-88-62-833 0-650 1-679 20-740 36-115 114-197 229-240 81-30 214-24 288 14 68 35 114 76 151 135 63 98 62 88 62 833 0 650-1 679-20 740-51 162-187 260-358 258-42 0-88-4-102-8z"/><path d="m5770 9741c-83-26-162-85-208-159-63-98-62-88-62-832s-1-734 62-832c37-58 83-100 151-136 48-25 61-27 162-27s114 2 162 27c68 36 114 78 151 136 63 98 62 88 62 833 0 650-1 679-20 740-51 162-187 260-358 258-42 0-88-4-102-8z"/><path d="m7020 9741c-84-26-172-94-213-164-58-99-58-91-55-848 3-692 3-694 25-749 31-76 98-149 175-191 60-33 67-34 168-34 99 0 109 2 172 33 80 39 148 111 181 192 22 55 22 57 25 750 2 674 2 697-18 760-50 162-186 261-358 259-42 0-88-4-102-8z"/><path d="m8236 9725c-78-32-122-68-172-141-66-98-65-94-62-864 3-682 3-685 25-740 33-81 101-153 181-192 89-44 206-51 293-19 115 43 193 125 229 240 19 61 20 90 20 735 0 750 0 746-68 846-73 106-177 160-310 160-58 0-91-6-136-25z"/></g></svg>