<svg height="999.78186pt" preserveAspectRatio="xMidYMid" viewBox="0 0 950.15002 999.78186" width="950.15002pt" xmlns="http://www.w3.org/2000/svg"><g transform="matrix(.1 0 0 -.1 -199.85 1099.6192)"><path d="m2970 10989c-239-31-483-159-660-345-163-171-260-369-295-601-22-148-22-7938 0-8086 37-247 149-461 332-637 98-95 158-139 270-196 110-56 220-91 343-110 145-21 5938-21 6083 1 234 35 431 133 605 299 140 134 234 280 292 453 61 183 60 158 60 1613v1325l-375-375-375-375-2-960-3-960-31-65c-50-104-131-174-236-204-48-15-348-16-2998-14l-2945 3-65 31c-83 40-145 102-184 184l-31 65v3965 3965l31 65c41 84 101 145 183 184l66 31 1483 3 1482 2v-1097c0-1206 0-1206 60-1386 95-284 323-538 593-661 197-90 304-106 727-106h325l375 375 374 374-709 3-710 3-65 31c-83 39-145 101-184 184l-31 65-3 845-2 845 912-912c502-502 916-916 921-920 4-4 112 97 240 223 127 127 247 243 266 258 18 15 32 29 30 31s-571 572-1264 1266c-1169 1171-1265 1264-1325 1293l-65 31-1715 1c-943 1-1744-2-1780-7z"/><path d="m10858 8481c-92-30-146-67-264-183l-111-109-83 21c-145 37-343 43-482 15-196-39-400-141-550-273-134-117-2511-2508-2547-2560-21-31-52-84-68-117-34-66-40-86-309-960-181-587-188-613-189-695 0-76 3-92 32-151 40-80 111-150 191-187 48-22 71-26 142-26 82 0 107 6 825 227 407 126 772 243 812 262 39 18 99 52 132 74 91 62 2582 2556 2648 2652 100 145 159 290 189 460 22 128 15 329-16 457l-22 94 109 111c159 162 203 251 203 411 0 142-45 253-144 352-100 100-210 144-355 143-54 0-107-7-143-18zm-598-1006c55-18 134-81 177-142 93-131 87-304-16-436-22-29-586-597-1253-1263l-1213-1211-380-116c-209-63-381-115-382-113-1 1 50 172 114 381l117 380 1230 1231c962 961 1242 1236 1284 1258 103 54 217 65 322 31z"/><path d="m4287 5739c-103-24-206-111-254-214-24-52-28-73-28-150 0-80 3-97 31-155 39-82 101-144 184-184l65-31h924 924l62 197c69 219 124 342 209 466l56 82-1067-1c-588-1-1085-5-1106-10z"/><path d="m4287 3989c-103-24-206-111-254-214-24-52-28-73-28-150 0-82 3-97 32-156 39-80 111-150 191-187l57-27 774-3c738-2 773-2 766 15-89 212-98 447-25 659 11 31 20 61 20 66 0 11-1484 8-1533-3z"/></g></svg>