<svg height="950.37085pt" preserveAspectRatio="xMidYMid" viewBox="0 0 1000.45 950.37085" width="1000.45pt" xmlns="http://www.w3.org/2000/svg"><g transform="matrix(.1 0 0 -.1 -99.775 1049.6)"><path d="m2355 10493c-22-2-86-13-142-23-419-82-798-356-1017-735-92-160-156-353-181-542-23-172-23-5214 0-5386 84-641 578-1160 1220-1283 70-13 166-18 427-21l337-5 3-551c4-549 4-552 27-615 41-110 148-232 244-277 104-48 279-71 467-60 572 33 974 206 1366 587 240 234 461 535 630 858l29 55 1955 5c1823 5 1961 7 2044 23 651 131 1137 642 1221 1284 23 172 23 5214 0 5386-65 495-374 924-833 1156-80 40-244 96-360 123l-97 23-3650 1c-2007 0-3668-1-3690-3zm7263-1008c138-33 256-121 319-241 67-126 63 74 63-2749 0-2825 5-2611-63-2739-62-119-202-221-336-246-35-6-782-10-2105-10-2233 0-2097 3-2219-55-67-31-157-112-196-175-17-27-51-103-77-167-195-495-441-801-783-973-98-49-154-70-192-70h-28l-3 523c-3 505-4 524-25 579-64 170-210 297-377 327-38 7-258 11-605 11-598 0-616 2-730 60-115 58-210 180-246 315-13 52-15 352-15 2620 0 2823-4 2623 63 2749 62 117 181 208 315 240 89 22 7148 22 7240 1z"/><path d="m3920 6994c-189-37-336-164-396-344-28-83-26-225 4-313 47-136 164-254 302-304 94-35 232-39 320-9 151 51 268 165 322 315 28 77 30 234 4 311-52 153-165 270-312 321-58 20-194 32-244 23z"/><path d="m5920 6994c-189-37-336-164-396-344-28-83-26-225 4-313 47-136 164-254 302-304 94-35 232-39 320-9 151 51 268 165 322 315 28 77 30 234 4 311-52 153-165 270-312 321-58 20-194 32-244 23z"/><path d="m7920 6994c-189-37-336-164-396-344-28-83-26-225 4-313 47-136 164-254 302-304 94-35 232-39 320-9 151 51 268 165 322 315 28 77 30 234 4 311-52 153-165 270-312 321-58 20-194 32-244 23z"/></g></svg>