<svg height="999.61926pt" preserveAspectRatio="xMidYMid" viewBox="0 0 849.388 999.61926" width="849.388pt" xmlns="http://www.w3.org/2000/svg"><g transform="matrix(.1 0 0 -.1 -150.5 1099.6192)"><path d="m2970 10989c-239-31-483-159-660-345-121-127-196-251-250-414-62-183-60-108-60-2125v-1840l83 140c175 295 381 567 598 790l69 70 2 1350 3 1350 31 65c41 84 101 145 183 184l66 31 1483 3 1482 2v-1097c0-1206 0-1206 60-1386 55-162 132-288 260-420 176-184 391-295 640-333 78-11 291-14 1193-14h1097l-2-2482-3-2483-31-65c-50-103-130-173-234-204-48-14-200-16-1394-16h-1341l3-212c4-233-5-321-45-433-13-38-27-78-30-88-5-16 65-17 1383-17 1523 0 1494-1 1674 60 165 55 288 130 418 254 140 134 234 280 292 453 64 192 60 21 58 2995l-3 2703-31 66c-29 61-139 173-1697 1731-1554 1554-1671 1669-1734 1700l-68 33-1715 1c-943 1-1744-2-1780-7zm4945-2429 810-810-845 2-845 3-65 31c-83 40-145 102-184 184l-31 65-3 845-2 844 177-177c98-97 543-541 988-987z"/><path d="m3529 7237c-68-19-130-59-243-157-618-533-1072-1328-1221-2135-55-302-58-344-64-1180-6-779-6-780-29-843-13-35-99-215-191-401-258-515-276-577-276-976v-260l28-60c37-79 114-156 191-192l61-28 430-3c451-4 499 0 579 40 65 33 141 112 172 181 29 62 29 63 32 294l4 233h623 623l4-233 3-233 32-65c39-80 111-150 191-187l57-27h465 465l57 27c106 49 185 142 214 250 17 65 19 380 3 513-25 213-61 308-270 726-92 185-178 365-190 400-23 64-23 67-30 859-4 437-11 813-14 835s-13 90-21 150c-106 787-469 1527-1034 2109-160 165-322 303-397 338-74 35-181 46-254 25zm213-1004c141-139 220-233 324-389 175-262 301-574 369-916 57-283 57-293 65-1173 7-791 8-823 29-917 21-96 70-248 97-300 8-15 14-29 14-33 0-3-457-5-1015-5s-1015 2-1015 4 11 28 24 57c30 68 69 191 92 289 15 66 18 169 24 895 8 852 10 888 55 1134 83 446 271 861 529 1169 76 90 277 292 291 292 4 0 57-48 117-107z"/><path d="m3537 4990c-103-26-208-114-253-213-25-53-29-75-29-152 0-82 3-97 32-156 39-80 111-150 191-187 49-23 70-27 147-27s99 4 151 28c77 36 154 113 191 192 24 51 28 73 28 150 0 82-3 97-32 155-64 131-177 208-315 215-40 3-90 0-111-5z"/></g></svg>