<svg height="1103.6873pt" preserveAspectRatio="xMidYMid" viewBox="0 0 862.85596 1103.6873" width="862.85596pt" xmlns="http://www.w3.org/2000/svg"><g transform="matrix(.1 0 0 -.1 -168.54403 1151.8876)"><path d="m5440 11514c-159-28-252-64-367-140-259-172-416-485-495-989-19-122-16-521 5-680 41-309 102-617 179-908l42-157 825 2 825 3 47 111c87 206 155 435 195 659 28 151 25 500-5 695-113 741-452 1248-924 1380-70 20-269 35-327 24zm281-515c244-117 445-528 504-1035 33-286 12-484-82-747l-35-97-461 2-462 3-32 135c-41 171-79 378-98 545-51 440 41 912 217 1109 87 98 157 127 289 123 74-3 95-8 160-38z"/><path d="m7140 11511c-148-48-220-204-154-335 43-84 118-130 214-130 138 0 234 97 234 234 0 95-44 169-128 212-43 22-128 32-166 19z"/><path d="m8100 11511c-148-48-220-204-154-335 43-84 118-130 214-130 138 0 234 97 234 234 0 95-44 169-128 212-43 22-128 32-166 19z"/><path d="m9047 11507c-20-7-53-25-73-41-39-31-779-1011-796-1054-74-186 102-378 293-320 62 18 106 64 260 269l144 193 3-1137c1-625 1-1649 0-2274l-3-1137-144 193c-79 105-161 207-182 225-70 60-160 72-245 32-118-55-173-189-126-308 6-14 185-258 397-542 363-482 390-517 438-541 71-35 147-34 217 2 48 26 79 65 440 546 288 385 391 529 400 562 51 182-114 345-298 295-63-16-104-59-264-272l-143-192-3 1137c-1 625-1 1649 0 2274l3 1137 142-190c78-104 157-203 175-221 93-90 242-82 331 17 66 73 83 165 49 252-17 42-756 1021-796 1055-62 50-139 65-219 40z"/><path d="m10020 11511c-148-48-220-204-154-335 43-84 118-130 214-130 138 0 234 97 234 234 0 95-44 169-128 212-43 22-128 32-166 19z"/><path d="m4857 8037c-80-343-73-712 18-982 164-488 586-696 1013-499 232 106 403 312 491 588 70 217 90 374 98 734l6 282h-799-799zm1101-459c-17-233-41-334-106-453-44-81-98-127-174-150-65-19-141-19-177 0-74 38-154 168-192 312-22 84-37 294-25 357l7 36h337 338z"/><path d="m2721 5510c-202-32-425-162-573-335-235-276-386-655-450-1135-19-146-16-503 6-625 40-225 107-450 194-656l48-114 825-3 825-2 41 157c116 438 188 868 200 1188 20 585-155 1108-452 1347-79 64-212 132-310 158-90 24-267 34-354 20zm292-504c178-87 296-354 337-765 26-265-7-578-103-981l-32-135-462-3-461-2-36 102c-95 275-115 452-81 742 58 494 249 899 482 1024 80 42 122 52 219 48 65-2 93-8 137-30z"/><path d="m4260 5511c-148-48-220-204-154-335 75-147 275-178 385-59 47 49 63 93 63 163 0 95-44 169-128 212-43 22-128 32-166 19z"/><path d="m5220 5511c-148-48-220-204-154-335 43-84 118-130 214-130 138 0 234 97 234 234 0 95-44 169-128 212-43 22-128 32-166 19z"/><path d="m6180 5511c-148-48-220-204-154-335 43-84 118-130 214-130 138 0 234 97 234 234 0 95-44 169-128 212-43 22-128 32-166 19z"/><path d="m7140 5511c-148-48-220-204-154-335 43-84 118-130 214-130 138 0 234 97 234 234 0 95-44 169-128 212-43 22-128 32-166 19z"/><path d="m8100 5511c-148-48-220-204-154-335 43-84 118-130 214-130 138 0 234 97 234 234 0 95-44 169-128 212-43 22-128 32-166 19z"/><path d="m10020 5511c-148-48-220-204-154-335 43-84 118-130 214-130 138 0 234 97 234 234 0 95-44 169-128 212-43 22-128 32-166 19z"/><path d="m1923 1878c7-350 28-513 92-718 126-401 420-655 784-677 208-12 419 85 561 260 62 76 141 231 174 340 51 168 61 246 60 477-1 229-7 284-51 478l-28 122h-799-799zm1193-234c12-63-3-273-25-357-38-144-118-274-192-312-59-31-182-12-260 40-75 49-151 203-175 354-7 48-17 137-21 199l-8 112h337 337z"/></g></svg>