<svg height="879.24548pt" preserveAspectRatio="xMidYMid" viewBox="0 0 693.30096 879.24548" width="693.30096pt" xmlns="http://www.w3.org/2000/svg"><g transform="matrix(.1 0 0 -.1 -253.14049 1039.575)"><path d="m6140 10389c-98-15-250-70-343-125-76-45-198-165-1565-1529-1058-1056-1497-1501-1533-1553-107-154-157-304-166-497-4-96-1-139 15-215 46-221 121-346 354-585l161-165-162-165c-231-236-307-362-353-585-25-120-20-294 12-415 27-104 95-243 158-325 28-36 587-601 1244-1255 1093-1091 1200-1195 1275-1239 317-186 703-176 1008 27 88 58 2989 2958 3056 3054 61 89 100 170 136 288l27 90v325c1 179 0 606-1 950s-1 960 0 1370c2 823 2 820-63 985-69 173-82 188-664 773-298 299-568 565-602 592-71 57-186 121-270 151-139 48-155 49-929 54-454 2-755 0-795-6zm1453-750c51-11 58-17 579-537 450-451 528-533 537-567 7-27 11-261 11-703 0-573-2-668-15-700-11-26-425-447-1428-1451-777-777-1432-1426-1456-1442-55-36-124-39-185-9-59 28-2319 2291-2341 2342-17 43-20 105-5 145 16 42 2865 2890 2915 2914 38 18 74 19 688 19 421-1 667-4 700-11zm1126-4047c1-261 0-286-18-320-30-57-2867-2888-2913-2907-49-20-94-19-143 4-50 24-2339 2312-2355 2354-16 44-12 107 10 151 11 23 80 102 157 178l138 138 733-733c404-402 760-754 793-781 105-87 219-146 364-188 69-20 102-23 240-22 144 0 169 3 249 28 101 30 192 73 281 131 40 26 454 432 1255 1232l1195 1193 6-88c4-48 7-214 8-370z"/><path d="m7438 8954c-80-19-146-55-211-114-166-151-209-377-110-580 39-80 145-183 227-220 328-149 695 84 696 440 0 135-48 248-146 347-122 121-289 168-456 127z"/></g></svg>