<svg height="999.54211pt" preserveAspectRatio="xMidYMid" viewBox="0 0 950.18329 999.54211" width="950.18329pt" xmlns="http://www.w3.org/2000/svg"><g transform="matrix(.1 0 0 -.1 -124.9 1099.67)"><path d="m5855 10994c-16-2-66-9-110-15-612-83-1166-534-1385-1129-30-81-58-186-80-292l-11-58h-1349c-1321 0-1349 0-1411-20-157-49-260-188-260-350 0-79 6-110 37-172s74-110 132-146c89-57 126-62 448-62h292l6-42c3-24 24-234 46-468 218-2282 583-6025 595-6099 97-591 598-1061 1205-1131 66-8 688-10 2055-8l1960 4 92 21c439 104 789 382 968 767 95 204 108 269 155 756 11 113 69 716 130 1340 60 624 132 1369 160 1655 27 286 88 914 134 1395 47 481 104 1066 126 1300s43 444 46 467l6 42 312 3c295 3 314 4 366 25 81 33 153 101 192 181 44 89 51 206 19 293-43 115-125 193-240 229-62 20-90 20-1411 20h-1349l-11 58c-73 365-220 648-469 906-269 277-594 449-970 513-85 14-368 25-426 17zm390-774c288-78 514-260 645-520 34-67 70-163 70-187 0-11-163-13-960-13s-960 2-960 13c0 46 77 214 140 307 145 213 381 366 638 415 110 21 322 13 427-15zm2840-1502c-3-18-39-386-80-818-42-432-100-1037-130-1345s-86-886-125-1285c-296-3075-289-3001-315-3087-64-208-245-372-460-418-105-22-3845-22-3950 0-155 33-296 128-384 260-95 143-85 71-231 1582-172 1774-268 2765-389 4028-56 572-103 1057-106 1078l-5 37h3090 3091z"/><path d="m6818 7498c-103-13-210-84-262-173-59-100-56 14-56-2081 0-1900 0-1923 20-1987 48-156 189-258 355-258 167 0 305 101 355 260 20 62 20 89 20 1985 0 1703-2 1929-15 1981-49 185-221 298-417 273z"/><path d="m5020 7491c-83-26-161-85-209-159-65-101-61 29-61-2088 0-1896 0-1923 20-1985 50-159 188-260 355-260s305 101 355 260c20 62 20 89 20 1985 0 2136 5 1989-68 2096s-178 161-310 159c-42 0-88-4-102-8z"/></g></svg>