<svg height="1124.6294pt" preserveAspectRatio="xMidYMid" viewBox="0 0 949 1124.6294" width="949pt" xmlns="http://www.w3.org/2000/svg"><g transform="matrix(.1 0 0 -.1 -125.5 1149.85)"><path d="m5903 11485c-62-17-117-50-193-115-30-26-138-110-240-186-884-664-1910-1141-2868-1334-285-57-537-86-864-99-204-8-208-8-270-39-81-40-140-99-181-181l-32-66v-1730c0-1816 0-1809 45-2160 61-465 187-953 364-1400 92-231 302-652 433-868 500-821 1169-1510 2048-2109 465-317 1022-620 1595-868 168-73 235-88 320-72 118 22 731 308 1100 513 1365 760 2357 1738 2952 2914 352 697 546 1376 620 2180 10 108 13 534 13 1870v1730l-29 62c-35 77-113 154-193 190-54 25-71 27-268 35-470 18-872 82-1326 213-811 234-1656 663-2394 1215-93 70-202 154-240 187-94 78-130 99-200 118-72 18-123 18-192 0zm256-963c1090-819 2411-1352 3646-1472 61-6 129-13 153-16l43-5-4-1547c-3-1383-5-1563-21-1697-48-419-117-748-230-1090-79-236-136-375-256-620-250-510-548-928-970-1359-458-468-952-842-1604-1215-274-157-872-451-916-451-22 0-252 106-501 230-1238 620-2173 1426-2764 2380-117 190-304 563-384 765-172 437-267 832-328 1365-15 128-17 326-20 1692l-4 1546 38 6c21 3 74 8 118 11 235 19 685 95 946 160 965 242 1945 715 2749 1324 80 60 147 110 148 110 2 1 75-52 161-117z"/><path d="m5817 8989c-593-68-1053-436-1236-984-106-318-106-692 0-1010 93-280 270-529 499-702 97-73 307-180 425-216 491-152 1035-69 1416 218 618 464 764 1403 322 2069-80 121-223 271-332 349-302 218-710 321-1094 276zm413-764c239-59 421-246 492-505 19-69 23-110 23-220 0-161-16-232-82-370-39-80-59-108-132-181-149-149-276-194-536-193-254 0-380 47-527 194-76 75-94 101-132 181-57 122-76 199-83 334-11 233 67 446 219 593 101 98 202 150 346 177 97 18 320 13 412-10z"/><path d="m4467 5484c-294-53-566-284-663-563-43-125-54-207-54-419 0-281 22-437 75-542 14-28 65-86 130-148 334-319 787-575 1234-698 818-224 1642-112 2366 324 242 146 569 421 620 522 57 113 79 288 72 588-3 179-8 230-25 292-94 338-363 586-697 645-126 22-2936 21-3058-1zm2995-772 33-32 3-165 3-164-38-34c-238-215-594-409-905-492-384-103-767-99-1148 10-290 84-567 231-824 440l-86 70 2 167c3 162 4 167 28 193 14 15 34 31 45 36 11 4 658 7 1437 6l1418-2z"/></g></svg>