<svg
  height="849.47211pt"
  preserveAspectRatio="xMidYMid"
  viewBox="0 0 1049 849.47211"
  width="1049pt"
  xmlns="http://www.w3.org/2000/svg"
>
  <g transform="matrix(.1 0 0 -.1 -75.5 1024.6)">
    <path
      d="m1990 10243c-157-17-336-69-472-138-389-196-658-550-745-980-17-86-18-233-18-3125s1-3039 18-3125c121-599 604-1047 1203-1115 72-8 1183-10 4089-8l3990 3 97 23c556 128 962 544 1075 1099 17 83 18 249 18 3123 0 2892-1 3039-18 3125-111 552-520 969-1075 1097l-97 23-4015 1c-2208 0-4031-1-4050-3zm8080-771c193-70 333-210 397-397l28-80v-2990c0-2532-2-2998-14-3040-30-106-83-197-161-276-83-83-149-126-255-161l-70-23h-3995c-3664 0-3999 1-4045 16-111 36-189 83-266 159-81 80-123 146-161 250l-23 65-3 2973c-2 3297-8 3043 65 3191 28 57 58 96 118 156 99 100 189 147 340 179 11 2 1811 3 4000 2l3980-1z"
    />
    <path
      d="m2060 8991c-73-23-139-81-166-147-20-47-20-391 0-438 19-46 72-104 120-129 38-20 54-22 236-22 220 0 244 6 310 81 56 64 60 85 60 289s-4 225-60 289c-65 73-92 81-295 83-99 1-191-2-205-6z"
    />
    <path
      d="m3560 8991c-49-16-87-40-120-77-56-64-60-85-60-289s4-225 60-289c66-75 90-81 310-81s244 6 310 81c56 64 60 85 60 289s-4 225-60 289c-65 73-92 81-295 83-99 1-191-2-205-6z"
    />
    <path
      d="m5060 8991c-73-23-139-81-166-147-21-50-20-391 2-442 19-47 67-97 119-125 37-20 54-22 235-22 220 0 244 6 310 81 56 64 60 85 60 289s-4 225-60 289c-65 73-92 81-295 83-99 1-191-2-205-6z"
    />
    <path
      d="m6560 8991c-73-23-139-81-166-147-20-47-20-391 0-438 19-46 72-104 120-129 38-20 54-22 236-22 220 0 244 6 310 81 56 64 60 85 60 289s-4 225-60 289c-65 73-92 81-295 83-99 1-191-2-205-6z"
    />
    <path
      d="m8060 8991c-73-23-139-81-166-147-20-47-20-391 0-438 19-46 72-104 120-129 38-20 54-22 236-22 220 0 244 6 310 81 56 64 60 85 60 289s-4 225-60 289c-65 73-92 81-295 83-99 1-191-2-205-6z"
    />
    <path
      d="m9560 8991c-73-23-139-81-166-147-20-47-20-391 0-438 19-46 72-104 120-129 38-20 54-22 236-22 220 0 244 6 310 81 56 64 60 85 60 289s-4 225-60 289c-65 73-92 81-295 83-99 1-191-2-205-6z"
    />
    <path
      d="m5079 7486c-159-46-273-162-315-321-11-40-14-266-14-1165 0-1205-2-1158 54-1269 74-146 250-242 415-228 109 9 104 7 761 382 69 39 399 226 733 415 663 376 679 386 738 505 62 127 62 263 0 389-59 120-76 131-738 506-335 189-664 376-733 415-440 251-613 347-651 361-60 21-192 27-250 10z"
    />
    <path
      d="m2060 3741c-73-23-139-81-166-147-20-47-20-391 0-438 19-46 72-104 120-129 38-20 54-22 236-22 220 0 244 6 310 81 56 64 60 85 60 289s-4 225-60 289c-65 73-92 81-295 83-99 1-191-2-205-6z"
    />
    <path
      d="m3560 3741c-49-16-87-40-120-77-56-64-60-85-60-289s4-225 60-289c66-75 90-81 310-81s244 6 310 81c56 64 60 85 60 289s-4 225-60 289c-65 73-92 81-295 83-99 1-191-2-205-6z"
    />
    <path
      d="m5060 3741c-74-23-138-80-164-143-22-51-23-392-2-442 19-46 72-104 120-129 38-20 54-22 236-22 220 0 244 6 310 81 56 64 60 85 60 289 0 206-6 234-63 293-67 70-92 77-292 79-99 1-191-2-205-6z"
    />
    <path
      d="m6560 3741c-74-23-138-80-164-143-22-51-23-392-2-442 19-46 72-104 120-129 38-20 54-22 236-22 220 0 244 6 310 81 56 64 60 85 60 289s-4 225-60 289c-65 73-92 81-295 83-99 1-191-2-205-6z"
    />
    <path
      d="m8060 3741c-73-23-139-81-166-147-20-47-20-391 0-438 19-46 72-104 120-129 38-20 54-22 236-22 220 0 244 6 310 81 56 64 60 85 60 289s-4 225-60 289c-65 73-92 81-295 83-99 1-191-2-205-6z"
    />
    <path
      d="m9560 3741c-73-23-139-81-166-147-20-47-20-391 0-438 19-46 72-104 120-129 38-20 54-22 236-22 220 0 244 6 310 81 56 64 60 85 60 289s-4 225-60 289c-65 73-92 81-295 83-99 1-191-2-205-6z"
    />
  </g>
</svg>
