<svg height="5.138205mm" viewBox="0 0 37.660835 5.1382051" width="37.660835mm" xmlns="http://www.w3.org/2000/svg"><path d="m21.20007 120.81639c-.931333 0-1.254125.29104-1.254125 1.06892v1.71979c0 .0794.03704.11642.116416.11642h.518584c.07937 0 .116417-.037.116417-.11642v-1.53458c0-.44979.121708-.58209.576792-.58209h1.407584c.439209 0 .545042.11113.545042.58209v1.53458c0 .0794.04233.11642.116417.11642h.518583c.07937 0 .116417-.037.116417-.11642v-1.71979c0-.77788-.322792-1.06892-1.259417-1.06892zm4.910674 0c-.926042 0-1.254126.28046-1.254126 1.06892v.76729c0 .78846.328084 1.06892 1.254126 1.06892h1.497542c.926043 0 1.259418-.28046 1.259418-1.06892v-.76729c0-.78846-.333375-1.06892-1.259418-1.06892zm-.502709 1.20121c0-.43921.116417-.55033.576792-.55033h1.349376c.465667 0 .582084.11112.582084.55033v.50271c0 .4445-.116417.55563-.582084.55563h-1.349376c-.460375 0-.576792-.11113-.576792-.55563zm5.360461-1.20121c-.931334 0-1.254126.29104-1.254126 1.06892v.76729c0 .78317.322792 1.06892 1.254126 1.06892h1.481668c.936625 0 1.259417-.28575 1.259417-1.06892v-2.78342c0-.0794-.03704-.11641-.116417-.11641h-.518583c-.07408 0-.116417.037-.116417.11641v.94721zm1.407584 2.24896h-1.3335c-.455084 0-.576793-.11112-.576793-.56091v-.47096c0-.4498.121709-.56092.576793-.56092h1.915584v1.03188c0 .44979-.127.56091-.582084.56091zm3.397254-2.24896c-.936626 0-1.259417.29104-1.259417 1.06892v.76729c0 .78317.322791 1.06892 1.259417 1.06892h2.28071c.0635 0 .09525-.0318.09525-.0952v-.46567c0-.0635-.03175-.0953-.09525-.0953h-2.206627c-.455083 0-.582083-.11112-.582083-.4445v-.0953h2.672293c.211667 0 .301625-.0794.301625-.29633v-.54504c0-.65617-.206375-.86784-.915459-.86784zm-.508 1.16417v-.10583c0-.33338.111125-.42863.582083-.42863h1.322918c.259292 0 .322792.0529.322792.25929v.18521c0 .0582-.02646.09-.08996.09zm3.910541-2.22779c-.07937 0-.116416.037-.116416.11641v2.78342c0 .78846.328083 1.06892 1.254125 1.06892h1.481668c.926042 0 1.259417-.28046 1.259417-1.06892v-.76729c0-.78846-.333375-1.06892-1.259417-1.06892h-1.984376v-.94721c0-.0794-.03704-.11641-.116417-.11641zm.635001 1.71979h1.910293c.460375 0 .582083.11642.582083.56092v.47096c0 .44979-.121708.56091-.582083.56091h-1.333501c-.455084 0-.576792-.11112-.576792-.56091zm5.344587-.65617c-.926042 0-1.254126.28046-1.254126 1.06892v.76729c0 .78846.328084 1.06892 1.254126 1.06892h1.497543c.926042 0 1.259417-.28046 1.259417-1.06892v-.76729c0-.78846-.333375-1.06892-1.259417-1.06892zm-.502709 1.20121c0-.43921.116417-.55033.576792-.55033h1.349376c.465667 0 .582084.11112.582084.55033v.50271c0 .4445-.116417.55563-.582084.55563h-1.349376c-.460375 0-.576792-.11113-.576792-.55563zm5.360461-1.20121c-.931334 0-1.254126.29104-1.254126 1.06892v.76729c0 .78317.322792 1.06892 1.254126 1.06892h1.481667c.936626 0 1.259418-.28575 1.259418-1.06892v-2.78342c0-.0794-.03704-.11641-.116417-.11641h-.518584c-.07408 0-.116416.037-.116416.11641v.94721zm1.407584 2.24896h-1.333501c-.455083 0-.576792-.11112-.576792-.56091v-.47096c0-.4498.121709-.56092.576792-.56092h1.915585v1.03188c0 .44979-.127.56091-.582084.56091zm5.498048-2.24896c-.0635 0-.09525.0212-.127.0741l-1.227668 2.16429c-.07938-.0106-.100542-.0423-.148167-.12171l-1.17475-2.04258c-.02646-.0529-.0635-.0741-.127-.0741h-.613834c-.07408 0-.105834.0688-.06879.13229l1.428751 2.46592c.08467.15875.185208.21696.370417.22754l-.248709.43392c-.04763.09-.127.12171-.269875.12171h-.381c-.0635 0-.09525.0317-.09525.0952v.50271c0 .0635.03175.0952.09525.0952h.370417c.4445 0 .6985-.11113.836084-.35984l2.032001-3.58246c.03704-.0635.0053-.13229-.06879-.13229z" fill="#bec1dd" stroke-miterlimit="0" stroke-width=".5" transform="translate(-19.945939 -119.75277)"/></svg>