<svg
  height="823.76898pt"
  preserveAspectRatio="xMidYMid"
  viewBox="0 0 852.42285 823.76898"
  width="852.42285pt"
  xmlns="http://www.w3.org/2000/svg"
>
  <g transform="matrix(.1 0 0 -.1 -168.97716 1011.751)">
    <path
      d="m8325 10107c-22-8-56-22-75-31-19-10-371-354-781-765-856-855-804-793-804-966 0-175-53-111 798-962 797-799 790-792 915-814 72-13 155 0 228 36 42 20 201 174 798 772 686 686 749 751 778 812 28 58 32 76 32 151 0 64-6 100-23 145-22 57-59 96-774 812-852 854-807 815-962 820-55 2-105-2-130-10zm549-2201-437-437-439 438-438 438 437 437 438 438 439-439 438-438z"
    />
    <path
      d="m3315 9929c-638-60-1190-517-1374-1137-64-215-80-492-41-718 85-495 403-924 855-1152 376-191 815-222 1221-87 578 192 1004 718 1075 1326 16 139 7 365-20 493-68 320-216 592-446 821-263 262-593 416-974 454-115 12-165 12-296 0zm379-774c310-90 535-331 602-645 18-87 18-243-2-338-69-337-353-608-694-662-409-64-810 185-934 579-131 418 78 866 483 1035 53 22 159 51 226 60 72 10 233-4 319-29z"
    />
    <path d="m5440 8435v-375h375 375v375 375h-375-375z" />
    <path d="m3000 5815v-375h375 375v375 375h-375-375z" />
    <path d="m8060 5815v-375h375 375v375 375h-375-375z" />
    <path
      d="m3282 4885c-119-33-180-88-272-245-375-638-1289-2237-1303-2280-56-164 29-364 190-446l58-29h1420 1420l58 29c115 59 196 179 205 306 9 131 44 62-532 1060-126 217-314 544-419 725-105 182-244 422-309 535-135 233-186 293-284 330-76 28-165 34-232 15zm427-1687c176-307 321-562 321-568 0-7-213-10-655-10-461 0-655 3-655 11 0 6 42 83 94 172 106 182 474 821 525 910 18 32 37 55 41 50 4-4 152-259 329-565z"
    />
    <path
      d="m7198 4856c-102-36-181-108-227-205l-26-56v-1220-1220l26-56c46-98 127-170 231-206 33-11 244-14 1239-13 1175 0 1200 1 1253 20 104 39 185 123 223 234 17 48 18 122 18 1246v1195l-23 57c-30 75-80 138-139 176-103 66-15 62-1337 62-962-1-1208-3-1238-14zm1987-1481v-750l-747-3-748-2v755 755l748-2 747-3z"
    />
  </g>
</svg>
