<svg height="498" viewBox="0 0 174.09584 131.7625" width="658" xmlns="http://www.w3.org/2000/svg"><g fill="#c8c8c8" transform="translate(-5.4092 -35.553389)"><path d="m86.082047 129.01994c-6.907827-.39468-13.500925-2.58574-19.123474-6.3552-7.653844-5.13129-12.766555-12.83231-14.365345-21.63781-.42749-2.354431-.487958-3.183891-.477388-6.548481.214125-11.043085 1.16319-22.061342 1.983888-33.074591.546322-7.332931.694676-8.996683.838393-9.402413.599087-1.691269 1.948362-2.923332 3.573856-3.263389.388521-.08128 7.643956-.101825 28.376769-.08037 26.879364.02787 27.871394.03502 28.329304.205277 1.42852.53118 2.56792 1.724051 3.04961 3.192697.15759.480483.17522 1.144453.22189 8.351692l.0508 7.82971.24449.628233c.33423.858908.66068 1.392425 1.23951 2.025759.72121.789133 1.52999 1.321703 3.04719 2.006557 1.46491.661254 2.45644 1.226181 3.42426 1.950959 3.16205 2.368039 5.46319 6.154339 6.10159 10.039549.79138 4.816248-.77805 11.97703-4.06752 18.558911-3.50544 7.01394-9.06875 13.27969-15.87415 17.87849-3.79392 2.56376-7.16689 4.23988-11.37228 5.65115-3.649098 1.22458-7.174188 1.86584-11.261063 2.04852-2.205163.0986-2.121095.0987-3.940214-.005zm5.457068-5.41453c6.948517-.61604 13.590595-3.224 18.743855-7.35968 2.03249-1.63115 4.64118-4.43041 5.84323-6.27011 1.53272-2.34574 1.71354-4.78736.50256-6.78576-.33011-.54472-.72984-.98306-2.01578-2.21038-2.25612-2.153291-3.01428-5.096211-2.04617-7.942561 1.07827-3.170262 4.39718-5.182164 7.59298-4.602816 1.41746.256972 2.49781.810061 3.70756 1.898123.40245.361967.8845.722528 1.07121.80124.50497.212893 1.23812.185353 1.68021-.06315 1.59983-.899166 1.59717-4.549854-.005-7.790761-.8896-1.798715-1.94303-3.061023-3.61278-4.329072-.65087-.494295-1.52729-.982927-2.73129-1.522809-3.4487-1.546396-5.69798-4.064916-6.62944-7.422989-.19105-.688829-.20588-1.066675-.30763-7.84162-.11493-7.654645-.0951-7.394079-.59892-7.850039-.53302-.482381 1.09577-.454203-26.253393-.454203h-25.376031l-.418274.220914c-.269107.142124-.515659.378126-.691338.661764-.308667.498351-.159086-1.117403-1.148318 12.40411-.238674 3.262372-.517899 7.020637-.620501 8.351685-.176949 2.295618-.305191 4.13519-.616581 8.844523-.387633 5.862467-.483108 12.51945-.205947 14.35989.664038 4.409381 2.061557 8.114511 4.381276 11.615751 1.755961 2.65034 3.924302 4.9194 6.645009 6.95369 6.531071 4.8833 14.582557 7.09018 23.109503 6.33422zm-13.096969-6.88364c-2.33367-.29531-4.693104-1.17305-6.531987-2.42997-1.028854-.70325-2.716888-2.41128-3.380591-3.42065-.665641-1.0123-1.281375-2.38623-1.58334-3.53299-.304567-1.15664-.313758-3.57987-.01786-4.7129.115568-.44254.158413-.78299.109547-.8703-.04414-.0789-.36833-.23819-.720406-.35402-2.130804-.70095-3.757157-2.146311-4.725412-4.199541-.471757-1.00039-.628934-1.68495-.679679-2.96021-.07733-1.94353.428906-3.696467 1.552185-5.374666.279378-.417386.507959-.844425.507959-.948973 0-.104573-.102694-.326006-.228218-.492173-.707451-.936507-1.369489-2.41378-1.615505-3.604818-.193346-.936047-.193528-2.707455-.000359-3.642569.565663-2.738545 2.199254-5.030736 4.47651-6.281297.74092-.406864.73678-.390936.410197-1.578701-.272597-.991415-.300618-2.572839-.06129-3.458555.801484-2.966102 3.297011-5.095245 6.200694-5.290317.456789-.03081.900519-.09166.986076-.135447.08555-.04385.349321-.475732.586148-.959836.734396-1.501168 1.782812-2.585814 3.149424-3.258237 1.816548-.893817 4.093141-.946405 5.795634-.133877.802372.382936 1.814307 1.330785 2.206654 2.066908.631875 1.185515.586833-.821221.585018 26.065746-.0018 26.965313.04324 25.033003-.616172 26.421543-.253086.53293-.512429.87982-1.068249 1.4289-.785193.77564-1.507645 1.19423-2.543585 1.47375-.571052.15408-2.18632.26002-2.793356.1832zm1.229761-3.55416c.648834-.14952 1.332872-.52864 1.838769-1.01914 1.419114-1.37591 1.427131-3.57895.01532-4.20347-.321221-.14209-.605948-.17407-1.433877-.16097-.891304.0141-1.08691-.0115-1.42545-.18738-.910042-.47247-1.327699-1.22044-1.246475-2.23228.08106-1.00991.570241-1.68696 1.696851-2.34856 2.055814-1.20726 3.120999-2.93633 3.414214-5.542101.08716-.7746.08711-1.2304-.000251-2.00674-.491065-4.364057-2.888998-7.49928-6.773599-8.85628-1.020752-.356573-1.126141-.411953-1.601261-.84119-.844738-.763169-.988873-1.635219-.477622-2.889717.587384-1.441324.593395-2.665395.0193-3.931527-.331275-.730608-1.301536-1.746146-2.048522-2.144113-2.645696-1.409543-5.98259.0051-7.116084 3.016279-.55511 1.474792-.508983 2.74784.148206 4.090061.794034 1.621694 2.32821 2.491175 4.412534 2.50075 1.419838.0064 2.61794.495113 3.51167 1.432094.935699.980997 1.312612 2.275125.845027 2.901403-.327444.438582-.680999.64664-1.08095.63616-.384291-.0102-.50598-.0724-1.601229-.820071-2.363886-1.613704-5.059542-1.00838-6.233232 1.399721-.415451.85239-.557539 1.72493-.421616 2.58909.34799 2.21244 2.271512 3.79007 4.381903 3.59394.965626-.0897 1.843747-.46147 2.848164-1.20566 1.637177-1.21304 3.078631-1.79643 4.432558-1.794.666035.001 1.393224.15896 1.859205.40335.368602.19331.93003.78674 1.143738 1.20892.352539.69645.141048 1.80397-.446435 2.33782-.528564.48031-.806212.54956-2.263243.56457-1.594144.0165-2.251742.15296-3.262442.677471-1.264067.65599-2.298725 1.98822-2.683242 3.45496-.209616.79956-.20604 2.22083.0075 3.01969.455367 1.70282 1.544052 3.28723 3.023571 4.40035 1.895293 1.42592 4.902195 2.32868 6.516919 1.95657zm3.07829-25.008148c.110083-.286861.06388-9.966155-.05011-10.498355-.131138-.612228-.613551-1.144146-1.175849-1.296519-.207501-.05625-.614892-.166474-.905312-.244993-1.701291-.459957-2.662817-2.379723-2.121207-4.235173.237981-.81529.567681-1.292812 1.701712-2.464725.828866-.856543 1.135636-1.249346 1.408286-1.803201.899112-1.826469.748664-3.443279-.418533-4.49777-.540895-.488673-.9722-.654706-1.70307-.655627-.845613-.0013-1.480824.287582-2.083132.946604-.674536.738048-.879597 1.341979-.903654 2.661369-.0208 1.14086-.106964 1.395378-.576586 1.703077-.357199.23405-.87135.190597-1.616919-.136636-.367486-.161296-.878954-.34049-1.136596-.398236-1.34642-.301742-2.973407.541979-3.571177 1.851934-.325041.712289-.307573 1.81761.03918 2.479708.506009.966153 1.160977 1.418823 2.588599 1.789024 1.723736.446994 2.871211 1.139109 3.914373 2.361033 1.698647 1.989708 2.039429 5.036719.836424 7.47865-.429094.871002-.364757 1.049199.494382 1.369349 1.396448.520388 2.885548 1.559781 4.103019 2.863932.797419.854191 1.063996 1.018876 1.17617.726555zm9.378815 28.341108c-2.078163-.56189-3.635225-2.08087-4.146948-4.0455-.127265-.48858-.144264-3.40764-.144264-24.762366 0-26.876671-.0547-24.664106.642722-25.995385.42278-.807015 1.452765-1.886483 2.204441-2.310348 3.315779-1.869737 7.592349-.582299 9.324467 2.807089.24794.485168.45082.935609.45082 1.000986 0 .232453.5309.616843 1.1276.816402 1.44873.484502 3.02273 1.511853 3.86619 2.523467 1.49425 1.792143 2.18811 4.012232 1.93668 6.196641-.11404.990801-.0128 1.274377.62639 1.74327.62885.461798 1.52776 1.417175 2.02298 2.150096 1.95179 2.888541 2.19974 6.546119.66298 9.779752-.92923 1.955255-2.36261 3.381584-4.29995 4.27873-1.26504.585815-1.7711.680045-3.9024.726645-1.05036.023-1.9888.0863-2.10117.14179-.11174.0551-.25049.20439-.30845.3316-.0735.16144-.105338 1.97349-.105338 5.99885 0 4.887341-.0221 5.841781-.14444 6.253931-.16777.56497-.76604 1.26611-1.63886 1.92071-.48311.36232-.57876.48381-.63089.8013-.13716.83523-.73841 1.58122-1.54659 1.9189-.45665.1908-1.41235.18429-1.88549-.0128-.48104-.20041-1.0585-.75778-1.28087-1.2363-.23481-.50529-.23653-1.4814-.004-1.99302.20317-.44609.83921-1.04839 1.32819-1.25776.50741-.21725 1.39078-.19304 1.94336.0533l.45908.20462.51719-.44651c.28447-.24558.53693-.5331.56104-.63893.0242-.10585.0546-2.883.0676-6.171471.0235-5.89191.0268-5.98549.22782-6.420284.24653-.533311.82888-1.134762 1.38176-1.427095.37555-.198549.57003-.219872 2.495228-.273489 1.94327-.05408 2.14052-.07619 2.84716-.317504 1.75342-.598921 3.00834-1.746288 3.86875-3.537179l.402-.836715-.0229-1.800517c-.0288-2.265166-.19996-3.364376-.66135-4.247599-.44119-.844565-1.28268-1.747157-2.20473-2.364843-.79603-.533286-1.19317-1.019655-1.30092-1.593249-.0361-.19217.005-.748749.0959-1.287545.19246-1.145462.19505-1.600677.0139-2.45529-.44247-2.08849-2.20351-3.90133-4.37417-4.502858-1.372778-.380402-1.936718-.86888-2.297918-1.990385-.57767-1.793637-1.98654-2.969-3.83574-3.200043-1.50308-.187798-3.196298.705525-3.846392 2.029319l-.262149.533797-.0257 8.487311c-.01764 5.804478.0051 8.518632.07338 8.586413.06891.06891.612381-.414139 1.781471-1.583163l1.68238-1.682264.0272-3.332275.0272-3.332288-.47186-.498922c-1.35361-1.431238-.73747-3.626487 1.16164-4.138769.81332-.219387 1.70548.05906 2.35921.736424.46326.479964.64525.943999.64525 1.645166 0 .906414-.39541 1.634324-1.13346 2.086598l-.38503.235942v3.376968c0 2.816464-.0252 3.462531-.15176 3.892458-.14258.484337-.31135.675995-2.79414 3.172833-1.453316 1.461548-2.687615 2.777588-2.742868 2.924528-.140228.372859-.140318 14.834429-.000102 14.921099.100738.0623 2.19105-1.92552 2.3987-2.28111.078-.13363.1249-1.45392.15829-4.46057.0465-4.188344.0517-4.27975.26271-4.737508.15776-.342063.58513-.823778 1.59981-1.803202.76149-.735044 1.54014-1.421393 1.73031-1.5252.30256-.165182.58549-.194803 2.26526-.237272 2.518108-.06366 2.341008.09371 2.380378-2.115093l.0291-1.634734-.42196-.351829c-.57139-.476397-.917528-1.187599-.917528-1.885147 0-1.083384.448168-1.821279 1.386848-2.283383.54345-.267545.66939-.293279 1.21922-.249148 1.04845.08412 1.89979.755332 2.1894 1.726037.17759.595263.17553.847645-.0115 1.479305-.11851.399066-.27415.630585-.71179 1.058812l-.56012.548078v1.794694c0 2.067384-.0965 2.525052-.67029 3.176834-.19451.220985-.58237.527712-.86191.681632-.5061.278654-.51665.28006-2.475978.328972l-1.9677.04909-.95704.949062c-.52637.521972-1.00755 1.034472-1.06928 1.138867-.0799.135102-.12593 1.420793-.15968 4.460553l-.0474 4.27075-.25427.47454c-.16921.31577-.94237 1.15717-2.31107 2.514991-1.131236 1.12226-2.116528 2.1779-2.18955 2.34587-.202768.46647-.19387 8.80811.01023 9.47637.656627 2.15112 3.55704 2.9852 6.0507 1.74002.50516-.25225 1.15511-.85559 4.422698-4.10554 2.55747-2.54369 3.88938-3.936 4.00767-4.18946.16116-.34532.17736-.65299.17925-3.40464l.003-3.025011-.41912-.36894c-1.37098-1.20676-1.06686-3.37914.58327-4.16649.54235-.25878 1.40884-.28243 1.94396-.0531 1.71161.73365 2.04408 3.21213.57406 4.27934l-.39283.2852-.006 2.952851c-.004 1.62407-.0494 3.1827-.10266 3.46364-.23912 1.26089-.29879 1.33327-4.81342 5.83903-2.859218 2.85361-4.339808 4.26361-4.706908 4.48254-.29456.17565-.90974.44974-1.36706.60909-.74419.2593-.97099.29309-2.16016.3218-1.09577.0265-1.44988-.00068-2.02002-.15484zm28.253738-17.007261c1.49868-.51141 2.57376-1.79189 2.86291-3.40986.49432-2.76603-2.05957-5.359072-4.84666-4.920951-2.32977.366241-4.00327 2.621801-3.62753 4.889281.44483 2.68448 3.08482 4.303661 5.61128 3.44153z" stroke-width=".358698"/><text style="font-weight:600;font-size:19.3745;font-family:Conthrax;letter-spacing:.968725;word-spacing:3.39053;text-anchor:middle;stroke-width:1.45355;stroke-miterlimit:0;stroke-dasharray:5.81418 2.90709" x="91.779015" y="153.96768"><tspan font-family="URW Gothic" font-weight="normal" stroke-width="1.45355" x="92.263374" y="153.96768">InterfaceZ</tspan></text></g></svg>