<svg height="224.27983mm" viewBox="0 0 224.93729 224.27983" width="224.93729mm" xmlns="http://www.w3.org/2000/svg"><path d="m100.10521 263.71452c-19.25805-1.10033-37.63868-7.20867-53.31355-17.71741-21.33784-14.3053-35.59136-35.77468-40.04856-60.32315-1.19178-6.56384-1.36036-8.87623-1.33089-18.25625.5969547-30.78658 3.2428081-61.50389 5.5308-92.207301 1.52307-20.443167 1.93666-25.081482 2.33732-26.212601 1.67017-4.715026 5.43176-8.149835 9.96341-9.09787 1.08314-.226596 21.31027-.283885 79.11043-.224065 74.93588.07755 77.70153.09759 78.97812.572285 3.98248 1.480855 7.15897 4.806404 8.50185 8.900792.43933 1.339518.48851 3.190574.6186 23.283334l.14133 21.828126.68156 1.75143c.93182 2.39453 1.8419 3.8819 3.45558 5.64752 2.01067 2.19999 4.26543 3.68474 8.49518 5.59402 4.08396 1.84348 6.8482 3.4184 9.54631 5.43899 8.81537 6.60176 15.23063 17.15741 17.01039 27.98885 2.20626 13.42701-2.16907 33.39027-11.3397 51.73961-9.77263 19.55387-25.28233 37.02191-44.25485 49.84271-10.57692 7.14743-19.98029 11.82018-31.70434 15.75461-10.17314 3.41397-20.00058 5.2017-31.39422 5.71101-6.14769.27481-5.91332.27512-10.98477-.0146zm15.21354-15.09495c19.3715-1.7174 37.88864-8.98807 52.25521-20.51776 5.66631-4.54741 12.93894-12.35134 16.29012-17.48018 4.27299-6.53962 4.77709-13.34649 1.40102-18.91773-.92027-1.51864-2.03469-2.74065-5.61967-6.16223-6.28976-6.00309-8.4034-14.20751-5.70445-22.14275 3.00607-8.83823 12.25874-14.44714 21.16814-12.83199 3.95173.7164 6.96355 2.25831 10.33617 5.29167 1.12199 1.00912 2.46587 2.01432 2.98641 2.23378 1.40775.5935 3.45167.51672 4.68415-.17597 4.46011-2.50673 4.4527-12.68436-.0158-21.71954-2.48005-5.01456-5.4169-8.5337-10.07191-12.06884-1.81455-1.37802-4.25787-2.74026-7.61447-4.24536-9.61451-4.31115-15.88516-11.33242-18.48191-20.69427-.53267-1.92036-.57399-2.97372-.85767-21.86132-.32051-21.340069-.26509-20.613658-1.6697-21.884809-1.48598-1.344796 3.05488-1.266237-73.19073-1.266237h-70.74293l-1.16609.615854c-.75023.396224-1.43758 1.054172-1.92735 1.844913-.86052 1.389339-.44351-3.11515-3.20135 34.580899-.66539 9.09505-1.44383 19.57256-1.72987 23.28334-.49331 6.39986-.85083 11.52832-1.71894 24.65728-1.08067 16.34371-1.34684 34.90246-.57415 40.03335 1.85124 12.29273 5.74733 22.62213 12.21438 32.38309 4.89537 7.38876 10.9404 13.71459 18.52535 19.38589 18.2077 13.61397 40.65411 19.76644 64.42605 17.65892zm-36.51251-19.19062c-6.50594-.82329-13.08371-3.27029-18.21026-6.77441-2.8683-1.96055-7.5743-6.72232-9.42461-9.53629-1.85571-2.82218-3.57229-6.65248-4.41413-9.8495-.84909-3.22451-.87471-9.98015-.0498-13.13891.32217-1.23371.44163-2.18282.30539-2.42626-.12307-.21992-1.02685-.66404-2.00839-.98693-5.94038-1.95415-10.47442-5.98363-13.17378-11.70776-1.31519-2.78892-1.75338-4.69739-1.89485-8.25264-.2156-5.41828 1.19573-10.30522 4.32727-14.98379.77887-1.16364 1.41612-2.35415 1.41612-2.64559s-.28631-.9089-.63624-1.37213c-1.97227-2.61085-3.81794-6.72926-4.5038-10.04971-.53902-2.60957-.53953-7.54803-.001-10.15498 1.57699-7.63466 6.13121-14.025 12.47988-17.51136 2.06558-1.13431 2.05404-1.08987 1.14357-4.40119-.75996-2.76395-.83808-7.17273-.17085-9.64199 2.23442-8.26907 9.1916-14.20481 17.28666-14.74867 1.27346-.0856 2.51052-.25548 2.74904-.37761.23851-.12213.97386-1.32627 1.6341-2.67586 2.04739-4.185059 4.97023-7.208884 8.78015-9.083518 5.06428-2.491824 11.4111-2.638432 16.15741-.373226 2.2369 1.067572 5.05803 3.710042 6.15184 5.762247 1.76158 3.305047 1.63601-2.289441 1.63095 72.667647-.005 75.17545.12055 69.78848-1.7178 73.65952-.70557 1.48573-1.42858 2.45283-2.97813 3.98355-2.18901 2.16242-4.2031 3.32938-7.09116 4.10863-1.59201.42955-6.09515.72488-7.78748.51073zm3.4284-9.90848c1.80886-.41684 3.71586-1.47381 5.12623-2.84123 3.95629-3.83584 3.97864-9.97763.0427-11.7187-.89552-.39613-1.6893-.48524-3.99745-.44875-2.48483.0393-3.03015-.0324-3.97395-.52239-2.53707-1.31717-3.70144-3.40241-3.475-6.22331.226-2.81546 1.58975-4.70298 4.73058-6.54742 5.73132-3.36569 8.70091-8.18607 9.51835-15.4506.243-2.15949.24284-3.43016-.0007-5.5945-1.36902-12.16638-8.05412-20.90696-18.88384-24.69008-2.84571-.99408-3.13952-1.14843-4.46409-2.34509-2.35501-2.12761-2.75684-4.55878-1.33154-8.05615 1.63754-4.01818 1.6543-7.43074.0538-10.96051-.92355-2.03685-3.6285-4.86804-5.71099-5.97751-7.37583-3.92959-16.67862.0136-19.83864 8.40894-1.54757 4.11154-1.41897 7.66061.41318 11.40252 2.21365 4.52109 6.49072 6.94507 12.30152 6.97175 3.95831.0182 7.29845 1.38032 9.79004 3.99249 2.6086 2.73485 3.65938 6.34271 2.35582 8.08869-.91287 1.22269-1.89853 1.80276-3.01354 1.77353-1.07135-.0281-1.4106-.20184-4.464-2.28625-6.59018-4.49879-14.10529-2.81122-17.37737 3.90222-1.15822 2.37635-1.55434 4.80886-1.17541 7.21802.97015 6.16799 6.33266 10.5662 12.21613 10.01939 2.69203-.2502 5.14011-1.2865 7.94028-3.36122 4.56422-3.38175 8.58279-5.00818 12.35735-5.00138 1.85681.003 3.88411.44315 5.1832 1.12446 1.02761.53893 2.59279 2.19332 3.18858 3.37032.98283 1.9416.39322 5.02919-1.2446 6.51749-1.47356 1.33903-2.2476 1.53212-6.3096 1.57394-4.44425.0458-6.27754.42646-9.09523 1.8887-3.52404 1.8288-6.40852 5.54287-7.4805 9.63194-.58438 2.22907-.57441 6.19133.0212 8.41845 1.2695 4.74723 4.3046 9.16437 8.42929 12.26758 5.28381 3.97526 13.66663 6.49204 18.16825 5.45466zm8.58184-69.71919c.30689-.79976.17808-27.78426-.13972-29.26795-.36559-1.7068-1.71049-3.18972-3.2781-3.61452-.57848-.15676-1.71423-.46411-2.52388-.68301-4.74296-1.28228-7.42356-6.63432-5.91363-11.80705.66346-2.2729 1.58262-3.60419 4.74414-6.8713 2.31076-2.38793 3.16599-3.483 3.9261-5.02709 2.5066-5.09192 2.08717-9.59937-1.16681-12.53915-1.50794-1.36233-2.71036-1.82522-4.74792-1.82779-2.35745-.003-4.12833.80175-5.80748 2.63899-1.88051 2.05759-2.45219 3.74125-2.51926 7.41954-.058 3.18053-.29822 3.8901-1.60744 4.74794-.99582.65248-2.4292.53136-4.50774-.38092-1.0245-.44966-2.4504-.94926-3.16867-1.11023-3.75363-.8412-8.28944 1.51096-9.95594 5.16292-.90617 1.98578-.85747 5.06725.10925 6.91309 1.41068 2.69352 3.23664 3.95547 7.21665 4.98755 4.80553 1.24615 8.00453 3.17568 10.91272 6.5822 4.73559 5.54705 5.68564 14.04167 2.33183 20.84945-1.19625 2.42822-1.01689 2.92501 1.37827 3.81755 3.8931 1.45075 8.0445 4.34845 11.43864 7.98424 2.22309 2.38136 2.96627 2.84045 3.27899 2.02554zm26.14679 79.01097c-5.79358-1.56644-10.13447-5.80114-11.56108-11.27826-.35478-1.3621-.40219-9.50001-.40219-69.03399 0-74.928367-.15251-68.76004 1.79182-72.47145 1.17866-2.249854 4.05011-5.259256 6.14568-6.440926 9.24394-5.212568 21.16639-1.623375 25.99531 7.825756.69123 1.35258 1.25677 2.60835 1.25677 2.79061 0 .64805 1.48012 1.71968 3.1436 2.27601 4.03884 1.35072 8.42696 4.21485 10.77839 7.03507 4.16577 4.99625 6.10016 11.18555 5.39921 17.27537-.31793 2.76221-.0339 3.55278 1.74627 4.86 1.75316 1.2874 4.25918 3.95088 5.63982 5.99416 5.4413 8.05286 6.13254 18.24967 1.84827 27.26457-2.59054 5.45098-6.58663 9.42735-11.98766 11.92848-3.52677 1.63319-4.93755 1.89589-10.87936 2.02578-2.92826.064-5.54449.24057-5.85775.3953-.31135.15379-.6983.56979-.8599.92445-.20505.45006-.2938 5.50181-.2938 16.72395 0 13.6252-.0615 16.28606-.40268 17.43508-.46774 1.57504-2.1356 3.52974-4.5689 5.35466-1.34685 1.01011-1.61352 1.34881-1.75886 2.23391-.38238 2.32854-2.05855 4.40822-4.31165 5.34962-1.27308.53193-3.93745.51378-5.25651-.0358-1.34107-.55875-2.95093-2.11262-3.57088-3.44668-.65461-1.40865-.65942-4.12992-.01-5.55625.56637-1.24359 2.33958-2.92277 3.70279-3.50644 1.41458-.60566 3.87731-.53817 5.41781.14849l1.27984.57048 1.44187-1.24482c.79303-.68465 1.49687-1.48622 1.56409-1.78127.0672-.29504.15213-8.03738.1887-17.20519.0655-16.42577.0748-16.68669.63512-17.89885.6873-1.48679 2.31081-3.16355 3.85216-3.97851 1.04696-.55355 1.58915-.61298 6.95629-.76248 5.41757-.15089 5.96747-.21222 7.9375-.88513 4.88828-1.66971 8.38682-4.8684 10.78555-9.86115l1.1207-2.33264-.0639-5.01958c-.0803-6.31498-.55748-9.37943-1.84377-11.84174-1.22997-2.35452-3.5759-4.87082-6.14644-6.59285-2.21926-1.48671-3.32641-2.84263-3.62681-4.44173-.10064-.53575.0149-2.08741.2673-3.58951.53657-3.19337.5438-4.46245.039-6.84502-1.23356-5.82238-6.1431-10.87635-12.19458-12.5533-3.82708-1.06053-5.39927-2.42232-6.40625-5.54891-1.61049-5.00042-5.53816-8.27716-10.69348-8.921275-4.19037-.523552-8.91085 1.966905-10.72323 5.657425l-.73083 1.48816-.0717 23.66142c-.049 16.18209.0156 23.74876.20459 23.93772.19199.19199 1.70723-1.15457 4.96649-4.41362l4.69021-4.68991.076-9.28993.076-9.28994-1.31546-1.39091c-3.77369-3.99012-2.05597-10.11016 3.23848-11.53831 2.2674-.61162 4.75464.16477 6.57714 2.05304 1.29148 1.33808 1.79886 2.63173 1.79886 4.58648 0 2.52696-1.10234 4.55627-3.15993 5.81714l-1.0734.65778v9.41452c0 7.85189-.0702 9.65305-.42307 10.8516-.3975 1.35028-.86803 1.88458-7.78969 8.84542-4.05165 4.07458-7.49268 7.74351-7.64673 8.15316-.39091 1.03951-.39117 41.35634-.00027 41.59793.28095.17364 6.10832-5.3681 6.68721-6.35942.21754-.37254.34816-4.05332.4413-12.43542.12973-11.67654.14387-11.93135.7324-13.2075.4398-.95364 1.63126-2.29658 4.46004-5.02709 2.12296-2.0492 4.29369-3.96262 4.82385-4.25204.84352-.46049 1.63228-.5431 6.31527-.66146 7.02007-.17742 6.52638.26126 6.6361-5.8966l.0812-4.55739-1.17637-.98085c-1.59292-1.32817-2.55792-3.31087-2.55792-5.25555 0-3.02031 1.24944-5.07747 3.86632-6.36576 1.51506-.74586 1.86617-.8176 3.39902-.69456 2.92291.23462 5.29635 2.10575 6.10372 4.81193.49511 1.65953.48938 2.36311-.0336 4.12409-.33038 1.11254-.7643 1.758-1.98437 2.95184l-1.56153 1.52796v5.00329c0 5.76358-.26921 7.03949-1.86867 8.85658-.54228.61606-1.62359 1.47119-2.40292 1.90029-1.41091.77684-1.44032.78075-6.90263.91712l-5.48567.13695-2.66811 2.64583c-1.46746 1.45521-2.80891 2.88396-2.98099 3.175-.2227.37665-.35101 3.961-.44517 12.43542l-.1323 11.90625-.70886 1.32292c-.47171.88033-2.62721 3.22604-6.44292 7.01146-3.15374 3.12869-5.90061 6.07167-6.10416 6.53994-.56531 1.30047-.54049 24.5558.0282 26.41881 1.83058 5.997 9.91653 8.3223 16.86849 4.85092 1.40831-.70323 3.22028-2.38526 12.32982-11.44567 7.1299-7.09146 10.84304-10.97302 11.17283-11.67963.44931-.96269.49448-1.82043.49976-9.49164l.006-8.43331-1.16846-1.02853c-3.82207-3.36432-2.97424-9.42058 1.62609-11.61562 1.51196-.72143 3.92765-.78735 5.4195-.14788 4.7717 2.04532 5.6986 8.95497 1.60038 11.93023l-1.09517.79509-.0162 8.23211c-.009 4.52767-.13769 8.87293-.28623 9.65615-.66664 3.51516-.83298 3.71695-13.41913 16.27838-7.97111 7.95546-12.09876 11.88635-13.1222 12.49667-.8212.48971-2.53622 1.25384-3.81116 1.69807-2.07469.72288-2.70698.81707-6.02224.89712-3.05482.0738-4.04203-.002-5.63152-.43167zm78.76746-47.41382c4.17809-1.42574 7.17528-4.99553 7.98138-9.50621 1.37809-7.71133-5.74179-14.94035-13.51179-13.71891-6.49512 1.02102-11.16056 7.30921-10.11307 13.63061 1.24013 7.48398 8.60008 11.99801 15.64348 9.59451z" fill="#c8c8c8" transform="translate(-5.4092 -39.653759)"/></svg>